/* XPM */
static char * cloud_xpm[] = {
"44 58 240 2",
"  	c #009AFE",
". 	c #0296FE",
"+ 	c #098CFB",
"@ 	c #0A9BFC",
"# 	c #00A1FE",
"$ 	c #0B95FC",
"% 	c #029BF5",
"& 	c #0396F5",
"* 	c #1396F7",
"= 	c #1B96EA",
"- 	c #72AAD2",
"; 	c #8AA2BA",
"> 	c #678DB2",
", 	c #0799E4",
"' 	c #529ACC",
") 	c #AFB0CD",
"! 	c #D5D9C5",
"~ 	c #C9CAD7",
"{ 	c #90A5C3",
"] 	c #0597EE",
"^ 	c #7698C6",
"/ 	c #CACCC5",
"( 	c #DCE2D3",
"_ 	c #F2E5C4",
": 	c #DAE4C6",
"< 	c #97A9D2",
"[ 	c #5995C9",
"} 	c #A5B9C7",
"| 	c #D3D7D6",
"1 	c #E6ECCA",
"2 	c #E8DCD4",
"3 	c #01A3EE",
"4 	c #0A96F5",
"5 	c #989AB9",
"6 	c #E2E2D9",
"7 	c #EAE8CE",
"8 	c #F0E4D4",
"9 	c #DBDCC7",
"0 	c #A6C7BA",
"a 	c #5A8FCA",
"b 	c #00A2F3",
"c 	c #93B5BD",
"d 	c #D8D7BD",
"e 	c #ECE5CC",
"f 	c #EBE4DA",
"g 	c #EBE9D3",
"h 	c #E8E6C4",
"i 	c #E5E9D2",
"j 	c #C7C2BF",
"k 	c #67A5B8",
"l 	c #5D8CBA",
"m 	c #648EC8",
"n 	c #B5AFBD",
"o 	c #ACD2CD",
"p 	c #E4E4CD",
"q 	c #DCE2DC",
"r 	c #6187D8",
"s 	c #1799F9",
"t 	c #74A7C6",
"u 	c #CCD7C7",
"v 	c #DCE2CC",
"w 	c #E4E4D2",
"x 	c #D3DDD2",
"y 	c #CBDACD",
"z 	c #ACD1D2",
"A 	c #B7DEC3",
"B 	c #BCD3C5",
"C 	c #7797AE",
"D 	c #D3D6CC",
"E 	c #F5E5D7",
"F 	c #EBE5D2",
"G 	c #DBDDD2",
"H 	c #D4DCCC",
"I 	c #AEDABF",
"J 	c #D6D6E6",
"K 	c #99ADC5",
"L 	c #869DCA",
"M 	c #D5E1CD",
"N 	c #DADDCC",
"O 	c #E3DDD3",
"P 	c #4F93E8",
"Q 	c #82ABCA",
"R 	c #49A3DF",
"S 	c #0B9AF2",
"T 	c #029AEE",
"U 	c #A2B8B9",
"V 	c #F1E5CE",
"W 	c #9CB6C2",
"X 	c #6B9BC3",
"Y 	c #86B7C7",
"Z 	c #8EC4E0",
"` 	c #6CACBB",
" .	c #0A9BEB",
"..	c #669AD4",
"+.	c #A4CCD3",
"@.	c #8CC2D2",
"#.	c #4A8EDF",
"$.	c #A5A7C4",
"%.	c #F4E8CE",
"&.	c #C4E6E2",
"*.	c #B4D4D2",
"=.	c #679DB6",
"-.	c #B5C8D4",
";.	c #E0E8DD",
">.	c #BEDAE8",
",.	c #94BACB",
"'.	c #67B4DA",
").	c #09A1F9",
"!.	c #639BBC",
"~.	c #CDBCC9",
"{.	c #D5E8D7",
"].	c #C4D9CD",
"^.	c #93C5D2",
"/.	c #65A8C6",
"(.	c #6298C4",
"_.	c #718EBA",
":.	c #D6E2D3",
"<.	c #AAC6DB",
"[.	c #98C6D8",
"}.	c #BBDACD",
"|.	c #C4D6CE",
"1.	c #B8DADB",
"2.	c #8BC5CC",
"3.	c #86CADB",
"4.	c #8AAABE",
"5.	c #A2B1D2",
"6.	c #97B8B6",
"7.	c #9AB9CA",
"8.	c #BDC5C9",
"9.	c #CBE2DC",
"0.	c #C7E0CD",
"a.	c #B6D9CF",
"b.	c #C9DBD8",
"c.	c #CCDCD2",
"d.	c #E0DECD",
"e.	c #B9C6C6",
"f.	c #BCD6D2",
"g.	c #A2D3CE",
"h.	c #A5D2D2",
"i.	c #C3DAD2",
"j.	c #E3DCE3",
"k.	c #1598EB",
"l.	c #7D97BA",
"m.	c #9BD2CC",
"n.	c #C1BEB5",
"o.	c #6E9CCE",
"p.	c #BCD9D2",
"q.	c #C4D3C6",
"r.	c #84ACBC",
"s.	c #839FAB",
"t.	c #149BFF",
"u.	c #A7D5C7",
"v.	c #CAD6CB",
"w.	c #9BCCCB",
"x.	c #8ABED9",
"y.	c #68AAD4",
"z.	c #98ACBC",
"A.	c #B3D4CD",
"B.	c #C3D5D2",
"C.	c #589AAC",
"D.	c #BBD5CE",
"E.	c #B3CCCC",
"F.	c #73ACB9",
"G.	c #A4D2DD",
"H.	c #5A8FD1",
"I.	c #A3C6C9",
"J.	c #96C7C7",
"K.	c #CCE0D2",
"L.	c #5CA5BD",
"M.	c #7CBBC7",
"N.	c #9CC1B5",
"O.	c #A2CDCB",
"P.	c #11A0E6",
"Q.	c #5DB3CE",
"R.	c #87C9D5",
"S.	c #D9E2E1",
"T.	c #95CAD2",
"U.	c #9DBBC5",
"V.	c #72ADC2",
"W.	c #79B4BD",
"X.	c #94CCCC",
"Y.	c #76A7BB",
"Z.	c #AACBCB",
"`.	c #8CCBCC",
" +	c #A5CCC3",
".+	c #8DCAC5",
"++	c #96BDC4",
"@+	c #8DDBCD",
"#+	c #9ED2D1",
"$+	c #84C4CD",
"%+	c #7DC8CF",
"&+	c #94C7B6",
"*+	c #86B5AD",
"=+	c #8AC5C6",
"-+	c #94CCBB",
";+	c #84CBCD",
">+	c #83BBBC",
",+	c #75B3B4",
"'+	c #93BBB5",
")+	c #479BD4",
"!+	c #5A94BC",
"~+	c #73ACB4",
"{+	c #85CBC3",
"]+	c #94C5BC",
"^+	c #7AADB2",
"/+	c #659BAD",
"(+	c #87BAB8",
"_+	c #76B7C5",
":+	c #7DB9BB",
"<+	c #8EC1B4",
"[+	c #789DB6",
"}+	c #74B7C5",
"|+	c #8BAFA1",
"1+	c #8EA996",
"2+	c #81C4C2",
"3+	c #7BACA8",
"4+	c #15A0F5",
"5+	c #57A1B8",
"6+	c #6CA7AB",
"7+	c #72B0AB",
"8+	c #0C95EA",
"9+	c #43A3CD",
"0+	c #389ADD",
"a+	c #63A3B5",
"b+	c #75ACAC",
"c+	c #75A1A4",
"d+	c #0C96E3",
"e+	c #559AB8",
"f+	c #059AFE",
"g+	c #069AFE",
"h+	c #089AFE",
"i+	c #049AFE",
"j+	c #079AFE",
"k+	c #0E9AFE",
"l+	c #089AFD",
"m+	c #0C9AFD",
"n+	c #079AFD",
"o+	c #0A9AFD",
"p+	c #109AFD",
"q+	c #1299FD",
"                                                                                        ",
"          .       .             . + @ # @ $ . %                                         ",
"                              . # @ $ %               .                               . ",
"                                  .   %   $ % %           .                             ",
"                                & @     @ $                       .     .               ",
"      .     .   .               % # . @   % & @                                         ",
"                                    . * @   #                                           ",
"                                    = - ; ; ; >           .                       .     ",
"                                  , ' ) ! ! ~ {   .                 .                   ",
"                % .   # % . @   . ] ^ / ( _ : < . + # % & #           @ .     %         ",
"      .   .       . & * & & % %   [ } | 1 1 2 / ; # %     $ @ @     %   % % % %         ",
"                    %     3 . $ 4 5 / 6 7 1 8 9 0 a + .   % .   $ $ @     . . .         ",
"                % @ . . . b +   a c d e f g h i j k $ l # % % $ . .           . .       ",
"                %       @ b m < n o p _ f f 9 q ~ c < } 5 r . =   % % & & % %           ",
"                . % & s $ # t u v q f _ 7 w x q y z A v B C #   % . @ . .               ",
"          .     @ % b . . s < D g E F g 7 v G H y I J e d K # & &         # % %         ",
"  .             .       % L ~ M 8 8 e g F h ( N H y O w _ ) t P Q - R = &   . .         ",
"                  S & T # U J F e F ( i e e e M H ( w e V D W X Y Z `  .  #             ",
"        .       .     $ ..n : F V F v g 8 V F N N w i e V p } Y +.+.@.[ .  .@ ,         ",
".               *     #.$.9 _ w F w N w 8 8 F p e f F e %.F G ~ &.y *.t   =.X .   .     ",
"                @ % % m -.q E f g G H w g F e F w F F e V e F ;.( q >.,.[ Q '.#         ",
"        .         $ ).!.~.G F f ( H N ( g i p p ( ( i g 7 h e w {.&.].^./.- (.$     .   ",
"                      _.~.h w w ].].:.6 i i H H y H ( g e 7 7 7 {.].<.[.,.t  .#         ",
"  .             . $ % ^ <._ f : }.|.( w i p y y ].y ( i 7 w F e e 1.Z 2.3.^ 4           ",
"              . 4.5.6.7.8.9.| 0.a.].6 e p p H b.9.c.G w d.O F F O b.8.Y '.!.            ",
"$   $ # % # . a e.D N 9 D f.g.h.z i.( w ( H N F 6 p N G ( N v F h j.-.^ % . %   .     . ",
"  % $ . % 4 k.l.D 2 p d.G a.m.+.*.c.p 7 ( x ( F w p d.G ( N H w i 2 n.X   @ @ . @ &   . ",
"  & @     # o.} O F e g O p.m.h.i.q g 7 w v w F F F w G ( H y x ( O q.r./.s.!.&   @ % . ",
"  & %   t.).5 y e V 7 e w i.u.*.c.6 e p 7 i 7 e F F e w ( x v.b.c.x ! w.x.,.y.#   @ & . ",
"      &     z.2 g e e V F y A.B.H w e e e 7 1 w e g e 7 w x B.f.B.:.d.u.+.[.4.C.        ",
"    @ $   # K 2 i e 1 e f H |.x p e F e e p p v F g 7 7 w ( i.p.D.9.q }.E.+.,.F.=       ",
"% % . & & k.$.N w F e e 8 G 0.w 7 g F 8 e v H G F 8 e e g 6 c.p.g.b.2 p v.G.[.Y H.%   @ ",
". 3   #   H.W G F 8 e F F :.0.( 7 e e e g 9 H ( 8 g e e e w c.p.g.| f 2 c.*.+.I.Q % . S ",
"# ] &   F.J.*.d.F F F e i ( H ( e e 7 g w | y M e g 7 h e i K.a.m.p.O O c.a.o -.J.4.&   ",
"  $ @ ).- I.v.F V F e F g ( H :.w 7 e p G D |.:.F g e e e w H D.m.A.G G c.a.p.f.E.7.    ",
". t.!./.3.A.K.( e e V e g :.q.0.w 7 v v c.|.v.N F F e e V F H |.w.o i.| c.i.f.i.1.7.% . ",
"b L.M.Y N.o 9 F F e 8 V w H B a.( v N y B.B.y x e F F V V F H D.w.O.A.p.B.B.B.p.f.W % . ",
"P.Q.2.2.R.G.y S.i g F F w y A.u.K.:.y |.p.p.i.H F F g e 8 e c.a.T.w.g.o p.f.D.D.D.U.% . ",
". C y.V.W.R.B H v 6 w v :.i.g.h.i.c.y D.*.*.B.H e w F e e ( ].o X.X.w.o z E.A.D.p.7.@ . ",
"  @ @   4 Y.Z.i.q.:.( y c.a.w.w.o }.B.f.z o D.c.F w F g w x A.w.X.`.J.T.w.w.z *.f.W % . ",
"    &   # ` J.o B x {.v.D.A.J.X. +A.B.B.z O.A.:.e w w F p y o .+`.`.J.X.`.`.O.f.f.U.  . ",
"  @ @ # & [ r.++0 A.b.q. +g.m.X.O.u.Z.A.[.@+#+/ x G G ( c.f.w.X..+@+J.++$+%+&+E.+.; @   ",
"  &   $ % @ (.*+W.U f.G.^.J.&+=+J.X.X.w.^.-+T.*.c.v.c.c.f.z J.`.J.;+.+=+>+,+'+E.z.)+&   ",
"@ . & %   . b !+~+c I.T.$+;+;+3.^.`.{+T.R.]+;+m.*.*.f.a.*.m.X.`.^.$+%+%+^+k r.I.l.).% % ",
"@ % % @     % @ /+Y.'+(+_+W.:+]+3.R.-+^.%+'+;+w.g.h.h.o m.w.`.R.T.R.-+<+L.!.[+Q a   &   ",
"  %   @ $ % & # % ' ^+}+|+1+` ]+`.`..+^.%+*+2+J.X.T.X.w.X.X.`.`..+.+>+3+  . $   k.    # ",
"&   %     & # 4 . 4+5+6+k 6+k M.<+.+Y R.(+7+>+$+=+=+=+.+.+`..+=+=+.+(+k   . $ % . 8+.   ",
"$ %         & 4 . % %   4   # ~+^+:+W.:+^+9+F.W.>+:+:+2+=+`.=+>+:+>+Y.0+@   %   # 4     ",
"  . % % @ .     @   ]     & & a+` 7+7+6+=.k.a+3+^+b+^+:+=+.+Y ^+~+b+L.@ 4 % % $   .   % ",
"                                5+/+c+5+0+= 0+k a+5+c+W.>+<+_+c+c+a+)+k.$     % .       ",
"                                S @ @       @   @ .   !+W.W.k   @ % #                   ",
"                .         .     &   .   S $ & % d+    s ~+~+e+& . . % & @               ",
"                                    % # @ .       # % S e+C.# % % . . . . .             ",
"                                  % % $ % % . .   $   . @ & . @       .     % &         ",
"                                f+f+g+h+g+i+i+j+k+l+m+j+                                ",
"                                      i+f+n+o+p+q+                                      ",
"                                                                                        ",
"                                                                                        "};
