/* XPM */
static char * esfera10_xpm[] = {
"44 58 255 2",
"  	c #009AFE",
". 	c #0199FD",
"+ 	c #0399FC",
"@ 	c #009AFD",
"# 	c #049AFE",
"$ 	c #019AFE",
"% 	c #039AFE",
"& 	c #029AFE",
"* 	c #ABADDC",
"= 	c #BFA1C0",
"- 	c #D5A2AB",
"; 	c #CC9BB1",
"> 	c #B69CC8",
", 	c #8BA3E8",
"' 	c #129BFE",
") 	c #C1AAC6",
"! 	c #E98F67",
"~ 	c #EC802A",
"{ 	c #F18728",
"] 	c #F17E25",
"^ 	c #EF6B1E",
"/ 	c #EA5B24",
"( 	c #E3553A",
"_ 	c #DA7D81",
": 	c #A9A0D5",
"< 	c #0A9AFD",
"[ 	c #0399FD",
"} 	c #DC9D94",
"| 	c #F09351",
"1 	c #F5A653",
"2 	c #F6B662",
"3 	c #F8C070",
"4 	c #F6B257",
"5 	c #F49832",
"6 	c #F18120",
"7 	c #EF6A1B",
"8 	c #EB5318",
"9 	c #E6471F",
"0 	c #D38D9C",
"a 	c #0B9AFD",
"b 	c #039AFD",
"c 	c #E19D8F",
"d 	c #F7B697",
"e 	c #FBD6B4",
"f 	c #FBDCAF",
"g 	c #FEECD0",
"h 	c #FDEBCC",
"i 	c #F9D088",
"j 	c #F6B345",
"k 	c #F49D28",
"l 	c #F18621",
"m 	c #EE6E1A",
"n 	c #EC5615",
"o 	c #E84410",
"p 	c #DB8C91",
"q 	c #099AFE",
"r 	c #1F9CFE",
"s 	c #D3A4AD",
"t 	c #F5A87C",
"u 	c #FEE6D6",
"v 	c #FEF0DE",
"w 	c #FDEDD1",
"x 	c #FFF7EB",
"y 	c #FFF1DC",
"z 	c #FACF88",
"A 	c #F6B43E",
"B 	c #F5AA2B",
"C 	c #F49D27",
"D 	c #F18821",
"E 	c #EF701B",
"F 	c #EC5614",
"G 	c #E74212",
"H 	c #C59BBB",
"I 	c #2199FC",
"J 	c #99ACE7",
"K 	c #EC8544",
"L 	c #F8B872",
"M 	c #FBD8A2",
"N 	c #FAD699",
"O 	c #F9D699",
"P 	c #FCDDAC",
"Q 	c #FACF8D",
"R 	c #F6B74B",
"S 	c #F5AE2E",
"T 	c #F6AD2B",
"U 	c #F5AA2A",
"V 	c #F18520",
"W 	c #EE691A",
"X 	c #EB4D12",
"Y 	c #E45D44",
"Z 	c #CFA0AE",
"` 	c #F07C25",
" .	c #F5A63F",
"..	c #F6B646",
"+.	c #F6B745",
"@.	c #F7BC52",
"#.	c #F6B94D",
"$.	c #F5B136",
"%.	c #F5AE2C",
"&.	c #F6AD2A",
"*.	c #F5A929",
"=.	c #F39725",
"-.	c #F07C1E",
";.	c #ED6017",
">.	c #E84712",
",.	c #C492B5",
"'.	c #7F89DE",
").	c #3F9FFC",
"!.	c #E38576",
"~.	c #EF711B",
"{.	c #F39827",
"].	c #F5AB2B",
"^.	c #F4AE2D",
"/.	c #F5AF2E",
"(.	c #F5AE2D",
"_.	c #F5AB2C",
":.	c #F6AC2A",
"<.	c #F5A528",
"[.	c #F29023",
"}.	c #EF751C",
"|.	c #EB5616",
"1.	c #DE7E7E",
"2.	c #059AFE",
"3.	c #54A0F9",
"4.	c #E56D4E",
"5.	c #EE6A19",
"6.	c #F29124",
"7.	c #F5A829",
"8.	c #F5AD2C",
"9.	c #F4AA2B",
"0.	c #F5AC2B",
"a.	c #F5AC2A",
"b.	c #F4A228",
"c.	c #F28B23",
"d.	c #EE671C",
"e.	c #E16C61",
"f.	c #61A2F8",
"g.	c #E56646",
"h.	c #ED6317",
"i.	c #F18A22",
"j.	c #F5A429",
"k.	c #F6AB2C",
"l.	c #F5AB2A",
"m.	c #F39D28",
"n.	c #EE7121",
"o.	c #DF6A66",
"p.	c #4DA0FB",
"q.	c #E47860",
"r.	c #ED5B16",
"s.	c #F08020",
"t.	c #F49E26",
"u.	c #F6AC2B",
"v.	c #F6AC2C",
"w.	c #ED772A",
"x.	c #D7727B",
"y.	c #D78B97",
"z.	c #EB5113",
"A.	c #EF731C",
"B.	c #F4A529",
"C.	c #F5A329",
"D.	c #ED782F",
"E.	c #CE7891",
"F.	c #E74A17",
"G.	c #ED6118",
"H.	c #F17D1F",
"I.	c #F39224",
"J.	c #F49F27",
"K.	c #F5A729",
"L.	c #F59B28",
"M.	c #E97239",
"N.	c #DE7B78",
"O.	c #EA5025",
"P.	c #ED601C",
"Q.	c #EF721C",
"R.	c #F1821F",
"S.	c #F29324",
"T.	c #F4A328",
"U.	c #F5A629",
"V.	c #F38B24",
"W.	c #DE8F84",
"X.	c #279CFC",
"Y.	c #DC6364",
"Z.	c #E64C3C",
"`.	c #EA5322",
" +	c #ED651A",
".+	c #F07A1E",
"++	c #F29223",
"@+	c #F5AB2D",
"#+	c #F5AC34",
"$+	c #F4AC35",
"%+	c #F5AB36",
"&+	c #F5A62F",
"*+	c #F49325",
"=+	c #EA8652",
"-+	c #CF6E89",
";+	c #E04F56",
">+	c #E84F31",
",+	c #EC6320",
"'+	c #F07B24",
")+	c #F28F35",
"!+	c #F19A44",
"~+	c #F09F4C",
"{+	c #F09F4F",
"]+	c #F19D4B",
"^+	c #EF8F42",
"/+	c #E78759",
"(+	c #109AFD",
"_+	c #3297FA",
":+	c #BD87B1",
"<+	c #D95769",
"[+	c #E45346",
"}+	c #E86245",
"|+	c #E57561",
"1+	c #E08175",
"2+	c #DB8784",
"3+	c #D88A8B",
"4+	c #CF8B96",
"5+	c #C59AB2",
"6+	c #4B9AF6",
"7+	c #229AFC",
"8+	c #069AFE",
"9+	c #8EA0E5",
"0+	c #C590B1",
"a+	c #D18195",
"b+	c #C683A1",
"c+	c #C58CA7",
"d+	c #B095C3",
"e+	c #9199DB",
"f+	c #6E9AEC",
"g+	c #469AF8",
"h+	c #289AFC",
"i+	c #179AFC",
"j+	c #079AFE",
"k+	c #1F9AFD",
"l+	c #5599F3",
"m+	c #8097E3",
"n+	c #8D98DD",
"o+	c #8A97DD",
"p+	c #8398E1",
"q+	c #6798ED",
"r+	c #3F99F8",
"s+	c #159AFD",
"t+	c #219BFD",
"u+	c #0E9AFD",
"v+	c #1F9BFC",
"w+	c #209AFB",
"x+	c #0299FD",
"y+	c #229CFD",
"z+	c #029AFD",
"A+	c #199BFD",
"B+	c #189BFD",
"C+	c #0299FC",
"D+	c #2499F8",
"E+	c #1C97F7",
"F+	c #1E97F7",
"                                                                                        ",
"                                                                                        ",
"                                                                                        ",
"                                                                                        ",
"                                                                                        ",
"                                                                                        ",
"                                                                                        ",
"                                                                                        ",
"                                                                                        ",
"                                                                          . +           ",
"                                                                            @ @         ",
"                                                                                        ",
"                                                                                        ",
"                                                                                        ",
"                                                #                                       ",
"                                                $                                       ",
"                                                                                        ",
"                                                                                $       ",
"                                                    % $ &                               ",
"                                                                                  &     ",
"                                    * = - ; > ,                                   ' $ $ ",
"                                ) ! ~ { ] ^ / ( _ :                                 < [ ",
"                              } | 1 2 3 4 5 6 7 8 9 0                               a b ",
"                            c d e f g h i j k l m n o p                             q $ ",
"                        r s t u v w x y z A B C D E F G H   I                       $   ",
"                        J K L M N O P Q R S T U C V W X Y                               ",
"                        Z `  ...+.@.#.$.%.&.&.&.*.=.-.;.>.,.'.                    $     ",
"                      ).!.~.{.].^./.(.T _.T &.&.:.<.[.}.|.1.                      2.    ",
"                      3.4.5.6.7.&.&.8.9.:.:.0.&.&.a.b.c.d.e.                      2.    ",
"                      f.g.h.i.j.&.&.T k.l.a.T &.&.&.a.m.n.o.                            ",
"  #                   p.q.r.s.t.a.&.&.u.v.k.T &.&.&.&.j.w.x.                        $   ",
"$                       y.z.A.6.B.a.&.&.&.&.&.&.&.&.&.C.D.E.                            ",
"&                         F.G.H.I.J.K.a.&.&.&.&.&.&.:.L.M.                        q     ",
"                          N.O.P.Q.R.S.T.a.&.&.&.&.:.U.V.W.                      X.      ",
"  $                         Y.Z.`. +.+++j.@+#+$+%+&+*+=+                                ",
"                              -+;+>+,+'+)+!+~+{+]+^+/+(+_+                              ",
"                                :+<+[+}+|+1+2+3+4+5+6+7+8+                              ",
"                                $ 9+0+a+b+c+d+e+f+g+h+i+j+$                     $       ",
"    &                           $ k+l+m+n+o+p+q+r+s+b $ $                       $       ",
"    $                                                                                   ",
"      $                   t+u+v+                                                        ",
"                          w+< <                                               x+        ",
"                        y+u+z+% A+                                                      ",
"                        % $     %                       &                               ",
"                                  B+                                                    ",
"                                                                                        ",
"                                                                                        ",
"                                                                                        ",
"                                                                                        ",
"                                                                                        ",
"                                                                                        ",
"                                                                                        ",
"                                                                                        ",
"                                  + C+                                                  ",
"                                  D+E+                                        F+        ",
"                                                                                        ",
"                                                                                        ",
"                                                                                        "};
