/* XPM */
static char * esfera1_xpm[] = {
"44 58 262 2",
"  	c #009AFE",
". 	c #0199FD",
"+ 	c #0399FC",
"@ 	c #009AFD",
"# 	c #049AFE",
"$ 	c #019AFE",
"% 	c #039AFE",
"& 	c #029AFE",
"* 	c #ABADDC",
"= 	c #BFA1C0",
"- 	c #D5A2AB",
"; 	c #CC9BB1",
"> 	c #B69CC8",
", 	c #8BA3E8",
"' 	c #129BFE",
") 	c #C1AAC6",
"! 	c #E98F67",
"~ 	c #EC802A",
"{ 	c #F18728",
"] 	c #F17E25",
"^ 	c #EF6B1E",
"/ 	c #EA5B24",
"( 	c #E3553A",
"_ 	c #DA7D81",
": 	c #A9A0D5",
"< 	c #0A9AFD",
"[ 	c #0399FD",
"} 	c #DC9D94",
"| 	c #F09351",
"1 	c #F5A653",
"2 	c #F6B662",
"3 	c #F8C070",
"4 	c #F6B257",
"5 	c #F49832",
"6 	c #F18120",
"7 	c #EF6A1B",
"8 	c #EB5318",
"9 	c #E6471F",
"0 	c #D38D9C",
"a 	c #0B9AFD",
"b 	c #039AFD",
"c 	c #E19D8F",
"d 	c #F7B697",
"e 	c #FBD6B4",
"f 	c #FBDCAF",
"g 	c #FEECD0",
"h 	c #FDEBCC",
"i 	c #F9D088",
"j 	c #F6B345",
"k 	c #F49D28",
"l 	c #F18621",
"m 	c #EE6E1A",
"n 	c #EC5615",
"o 	c #E84410",
"p 	c #DB8C91",
"q 	c #099AFE",
"r 	c #1F9CFE",
"s 	c #D3A4AD",
"t 	c #F5A87C",
"u 	c #FEE6D6",
"v 	c #FEF0DE",
"w 	c #FDEDD1",
"x 	c #FFF8EC",
"y 	c #FFF3E0",
"z 	c #FAD18C",
"A 	c #F6B440",
"B 	c #F5AA2B",
"C 	c #F49D27",
"D 	c #F18821",
"E 	c #EF701B",
"F 	c #EC5614",
"G 	c #E74212",
"H 	c #C59BBB",
"I 	c #2199FC",
"J 	c #99ACE7",
"K 	c #EC8544",
"L 	c #F8B872",
"M 	c #FBD8A2",
"N 	c #FAD699",
"O 	c #F9D79A",
"P 	c #FCE1B3",
"Q 	c #FBD598",
"R 	c #F6BA52",
"S 	c #F5AE2F",
"T 	c #F6AD2B",
"U 	c #F5AA2A",
"V 	c #F18520",
"W 	c #EE691A",
"X 	c #EB4D12",
"Y 	c #E45D44",
"Z 	c #CFA0AE",
"` 	c #F07C25",
" .	c #F5A63F",
"..	c #F6B646",
"+.	c #F6B745",
"@.	c #F7BD55",
"#.	c #F6BD56",
"$.	c #F5B43E",
"%.	c #F5AE2E",
"&.	c #F6AD2A",
"*.	c #F5A829",
"=.	c #F39625",
"-.	c #F07C1E",
";.	c #ED6017",
">.	c #E84712",
",.	c #C492B5",
"'.	c #7F89DE",
").	c #3F9FFC",
"!.	c #E38576",
"~.	c #EF711B",
"{.	c #F39827",
"].	c #F5AB2B",
"^.	c #F4AE2D",
"/.	c #F5AF2F",
"(.	c #F4AE2E",
"_.	c #F5AE2D",
":.	c #F29F34",
"<.	c #F6AA33",
"[.	c #F6AC2A",
"}.	c #F5A428",
"|.	c #F29023",
"1.	c #EF751C",
"2.	c #EB5616",
"3.	c #DE7E7E",
"4.	c #059AFE",
"5.	c #54A0F9",
"6.	c #E56D4E",
"7.	c #EE6A19",
"8.	c #F29124",
"9.	c #F5AD2E",
"0.	c #E99233",
"a.	c #E26622",
"b.	c #E2712A",
"c.	c #F3A234",
"d.	c #F5AC2A",
"e.	c #F4A228",
"f.	c #F28B23",
"g.	c #EE671C",
"h.	c #E16C61",
"i.	c #61A2F8",
"j.	c #E56646",
"k.	c #ED6317",
"l.	c #F18A22",
"m.	c #F5A429",
"n.	c #F29F37",
"o.	c #D64D1A",
"p.	c #DD6829",
"q.	c #F7AD32",
"r.	c #F39D28",
"s.	c #EE7121",
"t.	c #DF6A66",
"u.	c #4DA0FB",
"v.	c #E47860",
"w.	c #ED5B16",
"x.	c #F08020",
"y.	c #F49E26",
"z.	c #F4A82F",
"A.	c #F6A436",
"B.	c #F3A134",
"C.	c #F6AD2D",
"D.	c #ED772A",
"E.	c #D7727B",
"F.	c #D78B97",
"G.	c #EB5113",
"H.	c #EF731C",
"I.	c #F4A529",
"J.	c #F5A329",
"K.	c #ED782F",
"L.	c #CE7891",
"M.	c #E74A17",
"N.	c #ED6118",
"O.	c #F17D1F",
"P.	c #F39224",
"Q.	c #F49F27",
"R.	c #F5A729",
"S.	c #F59B28",
"T.	c #E97239",
"U.	c #DE7B78",
"V.	c #EA5025",
"W.	c #ED601C",
"X.	c #EF721C",
"Y.	c #F1821F",
"Z.	c #F29324",
"`.	c #F4A328",
" +	c #F5A629",
".+	c #F38B24",
"++	c #DE8F84",
"@+	c #279CFC",
"#+	c #DC6364",
"$+	c #E64C3C",
"%+	c #EA5322",
"&+	c #ED651A",
"*+	c #F07A1E",
"=+	c #F29223",
"-+	c #F5AB2D",
";+	c #F5AC34",
">+	c #F4AC35",
",+	c #F5AB36",
"'+	c #F5A62F",
")+	c #F49325",
"!+	c #EA8652",
"~+	c #CF6E89",
"{+	c #E04F56",
"]+	c #E84F31",
"^+	c #EC6320",
"/+	c #F07B24",
"(+	c #F28F35",
"_+	c #F19A44",
":+	c #F09F4C",
"<+	c #F09F4F",
"[+	c #F19D4B",
"}+	c #EF8F42",
"|+	c #E78759",
"1+	c #109AFD",
"2+	c #3297FA",
"3+	c #BD87B1",
"4+	c #D95769",
"5+	c #E45346",
"6+	c #E86245",
"7+	c #E57561",
"8+	c #E08175",
"9+	c #DB8784",
"0+	c #D88A8B",
"a+	c #CF8B96",
"b+	c #C59AB2",
"c+	c #4B9AF6",
"d+	c #229AFC",
"e+	c #069AFE",
"f+	c #8EA0E5",
"g+	c #C590B1",
"h+	c #D18195",
"i+	c #C683A1",
"j+	c #C58CA7",
"k+	c #B095C3",
"l+	c #9199DB",
"m+	c #6E9AEC",
"n+	c #469AF8",
"o+	c #289AFC",
"p+	c #179AFC",
"q+	c #079AFE",
"r+	c #1F9AFD",
"s+	c #5599F3",
"t+	c #8097E3",
"u+	c #8D98DD",
"v+	c #8A97DD",
"w+	c #8398E1",
"x+	c #6798ED",
"y+	c #3F99F8",
"z+	c #159AFD",
"A+	c #219BFD",
"B+	c #0E9AFD",
"C+	c #1F9BFC",
"D+	c #209AFB",
"E+	c #0299FD",
"F+	c #229CFD",
"G+	c #029AFD",
"H+	c #199BFD",
"I+	c #189BFD",
"J+	c #0299FC",
"K+	c #2499F8",
"L+	c #1C97F7",
"M+	c #1E97F7",
"                                                                                        ",
"                                                                                        ",
"                                                                                        ",
"                                                                                        ",
"                                                                                        ",
"                                                                                        ",
"                                                                                        ",
"                                                                                        ",
"                                                                                        ",
"                                                                          . +           ",
"                                                                            @ @         ",
"                                                                                        ",
"                                                                                        ",
"                                                                                        ",
"                                                #                                       ",
"                                                $                                       ",
"                                                                                        ",
"                                                                                $       ",
"                                                    % $ &                               ",
"                                                                                  &     ",
"                                    * = - ; > ,                                   ' $ $ ",
"                                ) ! ~ { ] ^ / ( _ :                                 < [ ",
"                              } | 1 2 3 4 5 6 7 8 9 0                               a b ",
"                            c d e f g h i j k l m n o p                             q $ ",
"                        r s t u v w x y z A B C D E F G H   I                       $   ",
"                        J K L M N O P Q R S T U C V W X Y                               ",
"                        Z `  ...+.@.#.$.%.&.&.&.*.=.-.;.>.,.'.                    $     ",
"                      ).!.~.{.].^./.(._.:.<.T &.[.}.|.1.2.3.                      4.    ",
"                      5.6.7.8.*.&.&.9.0.a.b.c.&.&.d.e.f.g.h.                      4.    ",
"                      i.j.k.l.m.&.&.T n.o.p.q.&.&.&.d.r.s.t.                            ",
"  #                   u.v.w.x.y.d.&.&.z.A.B.C.&.&.&.&.m.D.E.                        $   ",
"$                       F.G.H.8.I.d.&.&.&.&.&.&.&.&.&.J.K.L.                            ",
"&                         M.N.O.P.Q.R.d.&.&.&.&.&.&.[.S.T.                        q     ",
"                          U.V.W.X.Y.Z.`.d.&.&.&.&.[. +.+++                      @+      ",
"  $                         #+$+%+&+*+=+m.-+;+>+,+'+)+!+                                ",
"                              ~+{+]+^+/+(+_+:+<+[+}+|+1+2+                              ",
"                                3+4+5+6+7+8+9+0+a+b+c+d+e+                              ",
"                                $ f+g+h+i+j+k+l+m+n+o+p+q+$                     $       ",
"    &                           $ r+s+t+u+v+w+x+y+z+b $ $                       $       ",
"    $                                                                                   ",
"      $                   A+B+C+                                                        ",
"                          D+< <                                               E+        ",
"                        F+B+G+% H+                                                      ",
"                        % $     %                       &                               ",
"                                  I+                                                    ",
"                                                                                        ",
"                                                                                        ",
"                                                                                        ",
"                                                                                        ",
"                                                                                        ",
"                                                                                        ",
"                                                                                        ",
"                                                                                        ",
"                                  + J+                                                  ",
"                                  K+L+                                        M+        ",
"                                                                                        ",
"                                                                                        ",
"                                                                                        "};
