/* XPM */
static char * portal1_xpm[] = {
"42 57 80 1",
" 	c #009AFE",
".	c #D0FDD4",
"+	c #75FB82",
"@	c #D1FED4",
"#	c #6FFC7B",
"$	c #7DFC87",
"%	c #87FC91",
"&	c #24E331",
"*	c #C6FECA",
"=	c #78FD83",
"-	c #63F76D",
";	c #26EC2E",
">	c #75FC80",
",	c #5BEF5F",
"'	c #94F39D",
")	c #69FC76",
"!	c #20CB37",
"~	c #138E43",
"{	c #128B44",
"]	c #008A39",
"^	c #138C43",
"/	c #79FD84",
"(	c #68AC7D",
"_	c #7AB48B",
":	c #429C5F",
"<	c #21D435",
"[	c #1EC338",
"}	c #179F40",
"|	c #19AC3D",
"1	c #3AB257",
"2	c #9DCAF8",
"3	c #1EC538",
"4	c #2BA24E",
"5	c #44BD5D",
"6	c #3AE447",
"7	c #56F55F",
"8	c #51CD66",
"9	c #149342",
"0	c #9BFDA2",
"a	c #9EFDA6",
"b	c #BEFDC2",
"c	c #A4FDAA",
"d	c #2CB848",
"e	c #4FD75D",
"f	c #019AFE",
"g	c #0B9AFE",
"h	c #049AFE",
"i	c #069AFE",
"j	c #139BFE",
"k	c #AADFB2",
"l	c #23DF32",
"m	c #18A63F",
"n	c #1BB63B",
"o	c #089AFE",
"p	c #199CFE",
"q	c #219EFD",
"r	c #2C9451",
"s	c #34A0FD",
"t	c #4BF253",
"u	c #B2FDB7",
"v	c #ACFDB2",
"w	c #58D66B",
"x	c #65E674",
"y	c #8BF38E",
"z	c #3DF046",
"A	c #9DFCA7",
"B	c #45F24E",
"C	c #89E8C2",
"D	c #65E7AD",
"E	c #6EE97B",
"F	c #5EA06E",
"G	c #579E70",
"H	c #7EE584",
"I	c #B1FCB8",
"J	c #52E360",
"K	c #9BE8CD",
"L	c #92BBA0",
"M	c #A0D0AB",
"N	c #54A26C",
"O	c #AEFDB3",
"             .+++++++++++++               ",
"             @#$%$#########&              ",
"           *=-;>&>;;;;;;;;;#=             ",
"           *#,&'&'&&&&&&&&&)#&            ",
"         *>-;!~{]{~~~~~~~~^&;#/           ",
"         *>-;!~~~~~~~~~(_:~&;#$           ",
"         *>-;!~~~~~~~~~~$_~&;#$           ",
"        **-,<[~~~}|1111>$(~!<-)$$         ",
"       2>-;<~~~~~3;->>>>>1~~~;;>$         ",
"       2>-;<~45556;7-----859~0a>$         ",
"       2>-;<~8>>>7;;;;;;;)>4{$$/$         ",
"      @@bc!d8e---6!!!!!&;7-4~44--00    f g",
"      >005~5>-;;;[~~~~~<;;;}~~9;;>0    hij",
"      >%0k~5>-;l[[[m~n[[[&;8899;;>0   fopq",
"      >);<~5>-;3~3;n~<;|~l;#>r9;;>0      s",
"      >);<~d76[|~|[m~|[}~l;t7}9;;>0       ",
"      >);<~n;!~~~~~~~~~~~l;;;99;;>0       ",
"    uvttn|~}nm~~~~~~~~~~~|n&;wwn100u*     ",
"    =#;l~~~~~~~~~~~~~~~~~~~&;#>9:>>>0     ",
"f   =%=l~m<[~~~5xxxxx1~~~~~&;#>9ryy>0     ",
"    =%l=~|;<~~~8>>>>>5~~~~~&;#>99;z>0     ",
"f A0Bt_(~|;<~5x,zzzzz,x1~~~mmzz9~mnz,aC   ",
"  +#;&~~~|;<~5>7;;;;;->1~~~~~;;9~~};z>D   ",
"  +#;&~}l<}}~dzz;3}<;zz-E4~~~;;EE00;z>D   ",
"  +#;&~m;<~~{n;;;[~!;;;->1~~~;;>$>0;z>D   ",
"  +#;&~~99~5#,;!99~9999l;m~~~;;>>:1;z>D   ",
"  +#;&rr~~~5>-;3~~~~~~~<;m~~~;;>#~};z>D   ",
"  +#;,~F~~~~9[;3~~~~~~~99~~~~;;>#~};z>D   ",
"  +#;,~F~~~~9[;3~~~~~99~~~~99;;>#~4t7>D   ",
"  +#;&]]~~~n;;;3~~~~~<;|~~~&;;;>#~(zz>D   ",
"  +#;&~9}}~n;;&[~~~~~<;d49~<&;;>#~Gzz>D   ",
"  +#;&~m;<~n;!~~~~~~~<;->1~~~&;>#~};z>D   ",
"  +>HE~}l!~|l[~~~~~~~<;->1~~~;;>#~};z>D   ",
"  +%$$]~~~~~~~~~~~~~~<;->1~~~;;>#~};z>D   ",
"  +$;E{~~411~~~~~}|}~<;->1~~~;;xx~};z>D   ",
"  +#;&~~~1>x~~~~~3;n~<;->1~~~;;9~~};z>D   ",
"  Ivttn|~1>xnm~456;!nl;Jw4~|ntt9~ndt-uK   ",
"    =#;l~1>-;!~8>7;;;;;|~~~&;#>99;z>0     ",
"    =#;l~4ww7e~1wJ7z;t7d~~~&;#>99;z>0     ",
"    =#;l~~~5>w~~~8>7;->1~~~&;#>99;z>0     ",
"    *b7E0L~5>w~~~1853e84~n[778w007#00     ",
"      >00E~5>w~~~~~~~~~~~l;#>rr00>0       ",
"      >$EM~5>x!|~~~~~~~~~n[589r00>0       ",
"      >);<~5>-;3~~~~~~~~~~~~~~9;;>0       ",
"      >);<~5>-;3~n<|~[<ew4~~~~9;;>0       ",
"      >);<~5>-;3~3;n~<;->1~~~~9;;>0       ",
"      **-,<!5e-J<[|3<&;55r~~~<<-#00       ",
"       2>-;<~8>7;[~!;;;|~~~~~;;>$         ",
"        **;<~41w)tl,)))1~~~~~;;>$         ",
"         *;<~~~8>7;->>>1~{{~~&;#$         ",
"         *),l3~r44}44449~l,,l)>           ",
"         *>-;!~~~~~~~~~~~,$-;#$           ",
"         *>-;!~~~~~~~;;_~NG&;#$           ",
"         *=-;!rr~~~~~;;_~~~&;>$           ",
"           b>>;>;;;;;;z;;;;#>             ",
"           b$>;>;;;;;;;;;;;/$             ",
"             O=>>>>>>>>>>>>               "};
