/* XPM */
static char * portal1_xpm[] = {
"42 57 884 2",
"  	c #009AFE",
". 	c #059BFD",
"+ 	c #23A5F7",
"@ 	c #30AFEF",
"# 	c #6CF58B",
"$ 	c #70FB7B",
"% 	c #71FB7C",
"& 	c #74FC7F",
"* 	c #79FC83",
"= 	c #A0F7B3",
"- 	c #41B0F2",
"; 	c #39A5F9",
"> 	c #0D9BFE",
", 	c #21A4F7",
"' 	c #72F0A2",
") 	c #70F68E",
"! 	c #3BEE47",
"~ 	c #33ED3B",
"{ 	c #34EE3C",
"] 	c #3CEF44",
"^ 	c #6DFA78",
"/ 	c #45F04D",
"( 	c #77FA82",
"_ 	c #7FF699",
": 	c #ABF1CA",
"< 	c #38A4FA",
"[ 	c #2EAFEF",
"} 	c #6DF58C",
"| 	c #69F974",
"1 	c #30E83A",
"2 	c #25E630",
"3 	c #26E631",
"4 	c #33E83C",
"5 	c #38EE41",
"6 	c #28EC30",
"7 	c #25E730",
"8 	c #31E73B",
"9 	c #69F374",
"0 	c #3BE946",
"a 	c #6DF778",
"b 	c #7AFB83",
"c 	c #ADF7BE",
"d 	c #44AFF3",
"e 	c #39A5FA",
"f 	c #22A4F7",
"g 	c #73F0A2",
"h 	c #3BED47",
"i 	c #2FE13D",
"j 	c #22A246",
"k 	c #1F9A46",
"l 	c #299C4B",
"m 	c #6DBC7D",
"n 	c #34E93D",
"o 	c #138E43",
"p 	c #339F53",
"q 	c #2BA34D",
"r 	c #2FCF42",
"s 	c #3AEC43",
"t 	c #6BF776",
"u 	c #7BF797",
"v 	c #B2F1CF",
"w 	c #3BA5FB",
"x 	c #77F695",
"y 	c #6DFB78",
"z 	c #32ED3A",
"A 	c #32E13F",
"B 	c #55AE6B",
"C 	c #4FA766",
"D 	c #2E944F",
"E 	c #6CB47E",
"F 	c #32E23D",
"G 	c #24E032",
"H 	c #20CA38",
"I 	c #2EEA37",
"J 	c #61F76B",
"K 	c #7DFC87",
"L 	c #B9F7CA",
"M 	c #3DA6FA",
"N 	c #76F695",
"O 	c #6CFB78",
"P 	c #37ED40",
"Q 	c #5EF468",
"R 	c #74F47E",
"S 	c #57E45F",
"T 	c #20C938",
"U 	c #2EE937",
"V 	c #61F66A",
"W 	c #7CFC86",
"X 	c #2DAFEF",
"Y 	c #63F870",
"Z 	c #33DF40",
"` 	c #55E85C",
" .	c #58E95E",
"..	c #2FD73E",
"+.	c #33A952",
"@.	c #35AB53",
"#.	c #35AA53",
"$.	c #30AA4F",
"%.	c #1EA742",
"&.	c #2EA94E",
"*.	c #34A952",
"=.	c #2E9A51",
"-.	c #1DC039",
";.	c #2ADB39",
">.	c #57ED5D",
",.	c #72FA7C",
"'.	c #B8F7CA",
").	c #72F0A1",
"!.	c #69F589",
"~.	c #3AED46",
"{.	c #2DE13B",
"].	c #3DB558",
"^.	c #6DF179",
"/.	c #70F67C",
"(.	c #6FF67B",
"_.	c #5DF068",
":.	c #32E73C",
"<.	c #53EF5D",
"[.	c #6CF278",
"}.	c #50CA65",
"|.	c #29D43A",
"1.	c #4DED53",
"2.	c #B8F7C8",
"3.	c #53AEF7",
"4.	c #25E530",
"5.	c #3CB757",
"6.	c #64F671",
"7.	c #66FB73",
"8.	c #65FA71",
"9.	c #2EDE3B",
"0.	c #4AEE54",
"a.	c #63F770",
"b.	c #57D969",
"c.	c #41B95B",
"d.	c #2EA550",
"e.	c #21D236",
"f.	c #46EC4C",
"g.	c #B8FCBE",
"h.	c #B3F2CF",
"i.	c #47A8FA",
"j.	c #089AFE",
"k.	c #079BFE",
"l.	c #2CA4F9",
"m.	c #3AAFF1",
"n.	c #77F694",
"o.	c #70FA7B",
"p.	c #32EC3B",
"q.	c #24E431",
"r.	c #23B242",
"s.	c #2FE939",
"t.	c #30ED39",
"u.	c #28CD3C",
"v.	c #19A340",
"w.	c #24C83B",
"x.	c #33E93E",
"y.	c #56F160",
"z.	c #6CF378",
"A.	c #4FCB64",
"B.	c #21D136",
"C.	c #31E93A",
"D.	c #6DF675",
"E.	c #7FF893",
"F.	c #94CEEF",
"G.	c #49A8FA",
"H.	c #8FF1B5",
"I.	c #90F7A7",
"J.	c #6FFA7C",
"K.	c #5FF469",
"L.	c #2BD53C",
"M.	c #20CD37",
"N.	c #2D9A51",
"O.	c #45BD5D",
"P.	c #43C55A",
"Q.	c #29E834",
"R.	c #24E231",
"S.	c #1EC438",
"T.	c #1BB43C",
"U.	c #1EC338",
"V.	c #27D23A",
"W.	c #4FE35C",
"X.	c #5FF369",
"Y.	c #52DA60",
"Z.	c #46C35C",
"`.	c #28CA3F",
" +	c #29D33B",
".+	c #56EC5C",
"++	c #6CF676",
"@+	c #B7FAC4",
"#+	c #B2F2CF",
"$+	c #2EA5F8",
"%+	c #92F7AA",
"&+	c #78FB82",
"*+	c #3BEF43",
"=+	c #2DE838",
"-+	c #3DB358",
";+	c #6BEF78",
">+	c #5EF069",
",+	c #2DE937",
"'+	c #1CB93B",
")+	c #23E032",
"!+	c #1EC439",
"~+	c #25C83D",
"{+	c #26EC2E",
"]+	c #60F46A",
"^+	c #6EF37A",
"/+	c #45C15C",
"(+	c #1DA044",
"_+	c #38ED41",
":+	c #72FB7C",
"<+	c #79F696",
"[+	c #24A5F7",
"}+	c #75FB7F",
"|+	c #2FA550",
"1+	c #54D167",
"2+	c #4CD55B",
"3+	c #26D03A",
"4+	c #1DBF39",
"5+	c #19AC3D",
"6+	c #1FCC37",
"7+	c #1EC538",
"8+	c #70F77C",
"9+	c #47C05F",
"0+	c #1C9A45",
"a+	c #30EC39",
"b+	c #6FF690",
"c+	c #21A5F7",
"d+	c #75FB80",
"e+	c #43EF4A",
"f+	c #3AE842",
"g+	c #1EC339",
"h+	c #61F56C",
"i+	c #38D147",
"j+	c #39EB43",
"k+	c #68FB75",
"l+	c #93FC9A",
"m+	c #90F598",
"n+	c #3CA059",
"o+	c #4EC863",
"p+	c #45C25C",
"q+	c #23C23D",
"r+	c #1BB53C",
"s+	c #19AD3D",
"t+	c #2ACA3F",
"u+	c #62E670",
"v+	c #71F67C",
"w+	c #359A53",
"x+	c #8ED099",
"y+	c #74EB80",
"z+	c #7CFB87",
"A+	c #71F691",
"B+	c #40AFF2",
"C+	c #7AFC84",
"D+	c #98FD9F",
"E+	c #96F79D",
"F+	c #43A65D",
"G+	c #38A556",
"H+	c #67F673",
"I+	c #2FE63A",
"J+	c #21D535",
"K+	c #59D66B",
"L+	c #70F57C",
"M+	c #2C9C4D",
"N+	c #75E082",
"O+	c #95FA9D",
"P+	c #93FB9B",
"Q+	c #73F690",
"R+	c #42AFF2",
"S+	c #3AA5FA",
"T+	c #72FA7E",
"U+	c #60F669",
"V+	c #91F699",
"W+	c #91F499",
"X+	c #5FD870",
"Y+	c #53D266",
"Z+	c #56F260",
"`+	c #53F15D",
" @	c #26C73D",
".@	c #4CD35B",
"+@	c #29C640",
"@@	c #42C15A",
"#@	c #4FCA64",
"$@	c #3BB257",
"%@	c #58D56A",
"&@	c #329751",
"*@	c #86BF94",
"=@	c #91F19A",
"-@	c #71EC7C",
";@	c #64F46F",
">@	c #B1F1CF",
",@	c #79FB83",
"'@	c #48F251",
")@	c #2FE839",
"!@	c #33A84E",
"~@	c #3CA955",
"{@	c #2DDE3B",
"]@	c #35ED3E",
"^@	c #169D41",
"/@	c #3DB658",
"(@	c #33EB3C",
"_@	c #6CF478",
":@	c #50CD65",
"<@	c #57D569",
"[@	c #6EF47A",
"}@	c #49C260",
"|@	c #269A4A",
"1@	c #309550",
"2@	c #33A24F",
"3@	c #2FDC3E",
"4@	c #38ED40",
"5@	c #7BF798",
"6@	c #25A5F7",
"7@	c #43F14B",
"8@	c #27E732",
"9@	c #199D42",
"0@	c #31ED3A",
"a@	c #30BA4A",
"b@	c #53F05D",
"c@	c #4AF252",
"d@	c #2DED35",
"e@	c #3FF048",
"f@	c #54F35E",
"g@	c #53E361",
"h@	c #55D368",
"i@	c #3BB357",
"j@	c #4BD45A",
"k@	c #56F060",
"l@	c #57DA69",
"m@	c #55D168",
"n@	c #22DB33",
"o@	c #31EC3A",
"p@	c #72F792",
"q@	c #22A5F7",
"r@	c #2DA2FB",
"s@	c #45AFF3",
"t@	c #8FF7A6",
"u@	c #73FA7D",
"v@	c #41ED4B",
"w@	c #27E333",
"x@	c #28D43B",
"y@	c #159842",
"z@	c #149243",
"A@	c #138F43",
"B@	c #24B641",
"C@	c #2BE935",
"D@	c #2AEB32",
"E@	c #26E930",
"F@	c #28EA31",
"G@	c #31ED39",
"H@	c #54F25E",
"I@	c #6BF178",
"J@	c #25C83C",
"K@	c #33E73D",
"L@	c #61F36C",
"M@	c #3EB659",
"N@	c #22D734",
"O@	c #30E93A",
"P@	c #6AFA75",
"Q@	c #71F68F",
"R@	c #3DAFF2",
"S@	c #33A4FA",
"T@	c #0A9BFE",
"U@	c #2BA2FB",
"V@	c #8EE0D2",
"W@	c #A1F5B8",
"X@	c #6CF777",
"Y@	c #4EEF57",
"Z@	c #2BBB47",
"`@	c #3DE449",
" #	c #1AB23D",
".#	c #2EAF4D",
"+#	c #53D366",
"@#	c #4FE15D",
"##	c #2BEA34",
"$#	c #23DD32",
"%#	c #1DBE3A",
"&#	c #20CE36",
"*#	c #28E932",
"=#	c #3BE149",
"-#	c #63E671",
";#	c #40B75A",
">#	c #22BD3E",
",#	c #4AEE53",
"'#	c #59F363",
")#	c #9DF6B1",
"!#	c #9FF0C2",
"~#	c #32A4F9",
"{#	c #1DA2F9",
"]#	c #68E4B5",
"^#	c #77F986",
"/#	c #47F150",
"(#	c #2CE836",
"_#	c #179842",
":#	c #23BD3F",
"<#	c #46E253",
"[#	c #18A93F",
"}#	c #1CBA3C",
"|#	c #3BBF54",
"1#	c #6DF479",
"2#	c #60F56A",
"3#	c #2EEB37",
"4#	c #21D336",
"5#	c #1CB83B",
"6#	c #24E132",
"7#	c #21C53A",
"8#	c #43DF51",
"9#	c #3DE24A",
"0#	c #31DA41",
"a#	c #29CE3E",
"b#	c #23BC40",
"c#	c #1BA442",
"d#	c #31E03E",
"e#	c #37ED3F",
"f#	c #73FB7E",
"g#	c #76F596",
"h#	c #1BA2F9",
"i#	c #62E4B3",
"j#	c #70F981",
"k#	c #28E732",
"l#	c #189D42",
"m#	c #55E164",
"n#	c #47E853",
"o#	c #19AA3F",
"p#	c #3FBB58",
"q#	c #19AE3D",
"r#	c #34CF48",
"s#	c #31D941",
"t#	c #2EDD3D",
"u#	c #2DDC3C",
"v#	c #2AD13E",
"w#	c #22BA40",
"x#	c #5DE36A",
"y#	c #43EE4D",
"z#	c #71F592",
"A#	c #46EF50",
"B#	c #19AF3E",
"C#	c #2CD93D",
"D#	c #2EDF3C",
"E#	c #26C53F",
"F#	c #69ED73",
"G#	c #77F880",
"H#	c #83FC8D",
"I#	c #72F593",
"J#	c #45EF4F",
"K#	c #1BB33D",
"L#	c #18A43F",
"M#	c #3FB959",
"N#	c #1EC039",
"O#	c #23D636",
"P#	c #2DDA3D",
"Q#	c #28CA3E",
"R#	c #20B340",
"S#	c #63E36F",
"T#	c #77EA7E",
"U#	c #76FA81",
"V#	c #70F592",
"W#	c #43F14C",
"X#	c #2AE735",
"Y#	c #3DE549",
"Z#	c #1BB73C",
"`#	c #159A41",
" $	c #6CF179",
".$	c #5EF269",
"+$	c #21CD37",
"@$	c #26E432",
"#$	c #2DDB3D",
"$$	c #2DDF3B",
"%$	c #29D03D",
"&$	c #3CEC44",
"*$	c #70F591",
"=$	c #44F14D",
"-$	c #3DEA48",
";$	c #49B960",
">$	c #1DC03B",
",$	c #159841",
"'$	c #33AB51",
")$	c #32C04A",
"!$	c #23DD33",
"~$	c #29CC3F",
"{$	c #24B642",
"]$	c #32E23F",
"^$	c #34ED3D",
"/$	c #6CFB77",
"($	c #46F14F",
"_$	c #41EB4C",
":$	c #51C463",
"<$	c #18A340",
"[$	c #1FCA38",
"}$	c #149442",
"|$	c #1BAF3E",
"1$	c #25E82F",
"2$	c #25E92F",
"3$	c #28E235",
"4$	c #28C341",
"5$	c #2EDB3E",
"6$	c #31D344",
"7$	c #2FC047",
"8$	c #31E13D",
"9$	c #34ED3C",
"0$	c #71FA82",
"a$	c #55F55E",
"b$	c #45EC4F",
"c$	c #19A83F",
"d$	c #37D647",
"e$	c #51E959",
"f$	c #45F14E",
"g$	c #2BE835",
"h$	c #21B140",
"i$	c #36C64B",
"j$	c #50E856",
"k$	c #37EE40",
"l$	c #19A93F",
"m$	c #2DEA37",
"n$	c #5CF166",
"o$	c #66EF71",
"p$	c #34C44B",
"q$	c #3CCE4F",
"r$	c #1EAD41",
"s$	c #2CEA35",
"t$	c #56EC5D",
"u$	c #61EE6D",
"v$	c #28C93F",
"w$	c #3BED42",
"x$	c #49E356",
"y$	c #19AE3E",
"z$	c #149642",
"A$	c #3CB557",
"B$	c #6CF477",
"C$	c #2FE83A",
"D$	c #25E431",
"E$	c #1FC738",
"F$	c #27BF40",
"G$	c #159343",
"H$	c #2CCE40",
"I$	c #2EDE3D",
"J$	c #2FDF3D",
"K$	c #2ED440",
"L$	c #28B944",
"M$	c #29DF38",
"N$	c #32ED3B",
"O$	c #1BB23D",
"P$	c #33A752",
"Q$	c #66E174",
"R$	c #5FF16A",
"S$	c #45F14F",
"T$	c #3EF047",
"U$	c #28EB31",
"V$	c #21D435",
"W$	c #1AAE3E",
"X$	c #1FC937",
"Y$	c #3DF046",
"Z$	c #2EBC49",
"`$	c #25DE34",
" %	c #1CA2F9",
".%	c #66E4B4",
"+%	c #74F984",
"@%	c #46F14E",
"#%	c #33B44B",
"$%	c #30B14B",
"%%	c #19A341",
"&%	c #1AB03E",
"*%	c #139043",
"=%	c #43BD5B",
"-%	c #5EF568",
";%	c #30ED38",
">%	c #28E832",
",%	c #28E931",
"'%	c #2EED36",
")%	c #55F45E",
"!%	c #6BF577",
"~%	c #44C05C",
"{%	c #26D539",
"]%	c #2BE039",
"^%	c #2AE038",
"/%	c #35ED3D",
"(%	c #74F594",
"_%	c #25A2FA",
":%	c #7EE0CA",
"<%	c #90F4AB",
"[%	c #64F16C",
"}%	c #44ED4D",
"|%	c #23C03E",
"1%	c #1BB63C",
"2%	c #1CBB3B",
"3%	c #17A340",
"4%	c #17A040",
"5%	c #149242",
"6%	c #5FE06F",
"7%	c #59EC60",
"8%	c #60E06F",
"9%	c #43BA5C",
"0%	c #1AB03C",
"a%	c #63B077",
"b%	c #6EBB7E",
"c%	c #53ED5C",
"d%	c #53F35E",
"e%	c #8EF6A5",
"f%	c #8EF0B6",
"g%	c #019AFE",
"h%	c #069BFE",
"i%	c #26A2FA",
"j%	c #8FF6A6",
"k%	c #4AED52",
"l%	c #36E440",
"m%	c #1EB33F",
"n%	c #55F45F",
"o%	c #159642",
"p%	c #48C45E",
"q%	c #6EF579",
"r%	c #70F97B",
"s%	c #6EF67A",
"t%	c #52CF65",
"u%	c #20D036",
"v%	c #1AB03D",
"w%	c #6BED77",
"x%	c #4CE357",
"y%	c #7EF988",
"z%	c #72F690",
"A%	c #38AFF1",
"B%	c #089BFE",
"C%	c #7AFB84",
"D%	c #84F488",
"E%	c #80ED84",
"F%	c #3A9F56",
"G%	c #2AA04B",
"H%	c #3CB357",
"I%	c #60DF70",
"J%	c #63E272",
"K%	c #44BC5C",
"L%	c #18A73F",
"M%	c #38DE46",
"N%	c #6EF878",
"O%	c #82FC8D",
"P%	c #74F794",
"Q%	c #2FA5F8",
"R%	c #96F7AD",
"S%	c #7FFC89",
"T%	c #7BFB85",
"U%	c #77F582",
"V%	c #45A75F",
"W%	c #2BA24C",
"X%	c #28DD38",
"Y%	c #3EEE47",
"Z%	c #79F797",
"`%	c #B2F1D0",
" &	c #A8F7BA",
".&	c #99FCA2",
"+&	c #91F899",
"@&	c #46BE5C",
"#&	c #28BB43",
"$&	c #54D367",
"%&	c #54D766",
"&&	c #47E254",
"*&	c #1CBC3A",
"=&	c #49ED53",
"-&	c #58F363",
";&	c #A0F1C1",
">&	c #47AFF3",
",&	c #93F7A9",
"'&	c #35EA3E",
")&	c #25E332",
"!&	c #21A345",
"~&	c #21A445",
"{&	c #1DB53E",
"]&	c #29E833",
"^&	c #1BB53D",
"/&	c #22CA3A",
"(&	c #2AE336",
"_&	c #1DB73D",
":&	c #20CF36",
"<&	c #64FA71",
"[&	c #6EF58C",
"}&	c #3CAFF2",
"|&	c #34A4F9",
"1&	c #099AFE",
"2&	c #169E41",
"3&	c #23A645",
"4&	c #52EF5D",
"5&	c #4BF254",
"6&	c #28DE36",
"7&	c #21C43A",
"8&	c #3EE34B",
"9&	c #52EF5C",
"0&	c #31BB4B",
"a&	c #2E9FFD",
"b&	c #33A053",
"c&	c #67F773",
"d&	c #1AB13C",
"e&	c #1BB63B",
"f&	c #23DF32",
"g&	c #2DE738",
"h&	c #5FF569",
"i&	c #46C05D",
"j&	c #3BD249",
"k&	c #42ED4A",
"l&	c #6AFB76",
"m&	c #70F690",
"n&	c #219EFD",
"o&	c #179CFE",
"p&	c #209947",
"q&	c #4FC964",
"r&	c #4FD162",
"s&	c #23CA3B",
"t&	c #1BB33C",
"u&	c #1CB73C",
"v&	c #1EC139",
"w&	c #1EC638",
"x&	c #2FEC37",
"y&	c #379B54",
"z&	c #97D9A0",
"A&	c #95F99C",
"B&	c #87FC90",
"C&	c #72F692",
"D&	c #139BFE",
"E&	c #049AFE",
"F&	c #3AEE41",
"G&	c #1A9E42",
"H&	c #179144",
"I&	c #1E9646",
"J&	c #23AA44",
"K&	c #22C03E",
"L&	c #22C63A",
"M&	c #35EE3D",
"N&	c #279D4A",
"O&	c #62C873",
"P&	c #9AF9A1",
"Q&	c #9DFDA3",
"R&	c #7EF69A",
"S&	c #0A9AFE",
"T&	c #3CB356",
"U&	c #35A853",
"V&	c #1A9246",
"W&	c #5DF168",
"X&	c #53F45D",
"Y&	c #53DB61",
"Z&	c #4FCD64",
"`&	c #31BE4B",
" *	c #39CD4A",
".*	c #97F59E",
"+*	c #B6FCBB",
"@*	c #C7FAD2",
"#*	c #BCF2D7",
"$*	c #3CA5FB",
"%*	c #39AFF1",
"&*	c #77F693",
"**	c #78FC83",
"=*	c #7CF786",
"-*	c #77F082",
";*	c #2B9A4D",
">*	c #6CF178",
",*	c #64F770",
"'*	c #36EE3F",
")*	c #2EE838",
"!*	c #2ADE39",
"~*	c #26D439",
"{*	c #53F25C",
"]*	c #6EF77A",
"^*	c #25A049",
"/*	c #22D038",
"(*	c #30E939",
"_*	c #68F772",
":*	c #9AD0EF",
"<*	c #4DA9FB",
"[*	c #0E9BFE",
"}*	c #79FC84",
"|*	c #93FC9B",
"1*	c #8EF595",
"2*	c #319B4F",
"3*	c #1E9846",
"4*	c #46BE5E",
"5*	c #52D266",
"6*	c #60F46B",
"7*	c #60F66A",
"8*	c #53F45C",
"9*	c #2DE837",
"0*	c #39DD48",
"a*	c #46C35D",
"b*	c #189743",
"c*	c #78F88E",
"d*	c #94CBF1",
"e*	c #2F9FFE",
"f*	c #49F051",
"g*	c #3FE948",
"h*	c #1B9F43",
"i*	c #159542",
"j*	c #1F9648",
"k*	c #45B95E",
"l*	c #71F77D",
"m*	c #6FF67A",
"n*	c #1AA940",
"o*	c #1B9845",
"p*	c #1B9346",
"q*	c #1A9345",
"r*	c #179543",
"s*	c #179C41",
"t*	c #37EC40",
"u*	c #6DF776",
"v*	c #80F895",
"w*	c #8FC9F2",
"x*	c #2D9EFE",
"y*	c #76F693",
"z*	c #68FA76",
"A*	c #2AD43D",
"B*	c #1FC639",
"C*	c #249749",
"D*	c #65B379",
"E*	c #7AF685",
"F*	c #6FF17B",
"G*	c #3FB75A",
"H*	c #3BB656",
"I*	c #1EB040",
"J*	c #17A140",
"K*	c #149342",
"L*	c #28D33B",
"M*	c #BAFCBF",
"N*	c #32AFF0",
"O*	c #6BFA77",
"P*	c #31EB3A",
"Q*	c #299A4B",
"R*	c #71B683",
"S*	c #78EC84",
"T*	c #3BA756",
"U*	c #1C9346",
"V*	c #199145",
"W*	c #189145",
"X*	c #149143",
"Y*	c #1FC938",
"Z*	c #2EE938",
"`*	c #7CFB86",
" =	c #BAF8CA",
".=	c #23DE33",
"+=	c #1D9945",
"@=	c #499E63",
"#=	c #71B583",
"$=	c #5EA774",
"%=	c #229049",
"&=	c #128E42",
"*=	c #20CA37",
"==	c #20A4F7",
"-=	c #6FF19E",
";=	c #69F976",
">=	c #39EE41",
",=	c #199F41",
"'=	c #299B4B",
")=	c #249A49",
"!=	c #189843",
"~=	c #2D974E",
"{=	c #13953E",
"]=	c #1A9D43",
"^=	c #39EC42",
"/=	c #79F695",
"(=	c #049BFD",
"_=	c #22AAEF",
":=	c #36DF7B",
"<=	c #68F976",
"[=	c #63F86F",
"}=	c #36E042",
"|=	c #81EB8B",
"1=	c #44E04E",
"2=	c #3BE146",
"3=	c #57ED5E",
"4=	c #75FA7F",
"5=	c #B4F7C4",
"6=	c #009BFD",
"7=	c #21AAEF",
"8=	c #6DF19C",
"9=	c #3BEE44",
"0=	c #71F87B",
"a=	c #46E950",
"b=	c #43EF4B",
"c=	c #6EF678",
"d=	c #6DFB79",
"e=	c #7BFC85",
"f=	c #80FA8A",
"g=	c #BDF7CC",
"h=	c #49AFF4",
"i=	c #22ACEE",
"j=	c #70F590",
"k=	c #74FB81",
"l=	c #75FB81",
"m=	c #76FB82",
"n=	c #77FB83",
"o=	c #80FB8B",
"p=	c #C2F7D3",
"q=	c #41A5FB",
"                        . + @ # $ $ $ $ $ $ $ $ $ % & * = - ; >                     ",
"                        , ' ) ! ~ ~ ~ { ~ ~ ~ ~ ~ ] ^ / ( _ : <                     ",
"                    . , [ } | 1 2 3 4 5 6 7 2 2 2 8 9 0 a b c d e >                 ",
"                    f g } h i j k l m n 7 o o o o o p q r s t u v w                 ",
"                    + x y z A B C D E F G o o o o o o o H I J K L M                 ",
"                    + N O P Q R S o o o o o o o o o o o T U V W L M                 ",
"                . , X # Y Z `  ...o o +.@.#.$.%.&.*.=.o -.;.>.,.'.M                 ",
"                f ).!.~.{.o o o o o ].^./.(._.:.<.[.}.o o o |.1.2.3.>               ",
"                + x % z 4.o o o o o 5.6.7.8.>.9.0.a.b.c.d.o e.f.g.h.i.j.            ",
"            k.l.m.n.o.p.q.o o o o o r.s.t.s.u.v.w.x.y.z.A.o B.C.D.E.F.G.>           ",
"            l.H.I.J.K.L.M.o o o N.O.P.Q.R.e.S.T.U.V.W.X.Y.Z.`. +.+++@+#+e           ",
"            $+%+&+*+=+o o o o o -+;+>+,+e.o '+)+!+o ~+{+]+^+/+(+|._+:+<+[+          ",
"            $+%+}+~ 2 o o o o o |+1+2+3+4+o 5+6+T.o 7+{+J 8+9+0+e.a+7.b+c+          ",
"            $+%+d+e+f+o o o o o o o o o o o o o o o g+{+h+8+9+k i+j+k+b+c+          ",
"            $+%+W l+m+n+o o+p+q+r+o o o o o o o o o s+t+u+v+9+w+x+y+z+A+c+          ",
"        k.l.B+I.C+D+E+F+G+[.H+I+J+o o o o o o o o o o o K+L+9+M+N+O+P+Q+R+S+>       ",
"        l.H.I.T+U+V+W+X+Y+Z+`+ @r+o d.A..@+@@@#@$@o o o %@L+9+&@*@=@-@;@c >@e       ",
"        $+%+,@'@)@!@~@{@{@]@^@o o o /@z.Q (@`+_@:@o o o <@[@}@|@1@2@3@4@}+5@6@      ",
"        $+%+d+7@8@^@9@{@{@0@^@o o o a@b@c@d@e@f@g@h@i@o j@k@l@m@|+o n@o@O p@q@      ",
"    k.r@s@t@u@v@w@^@^@{@{@x@^@y@z@A@B@C@D@E@F@G@H@I@o+o J@K@L@[@M@o N@O@P@Q@R@S@T@  ",
"    U@V@W@X@Y@Z@^@^@^@`@{@^@^@ #.#+#@###$#%#&#*#=#/+|+o o o -#L+;#o s+>#,#'#)#!#~#  ",
"    {#]#^#/#(#^@_#^@:#<#{@[#^@}#|#1#2#3#4#o 5#6#7#o o o o o 8#9#0#a#b#c#d#e#f#g#+   ",
"    h#i#j#7@k#^@l#m#n#{@{@^@^@o#p#/.J 3#e.o o q#o o o o o o r#s#t#u#v#w#x#y#&+z#c+  ",
"    h#i#j#7@k#^@^@A#{@{@{@[#^@B#p#/.J 3#e.o o o o o o o o o o C#D#D#C#E#F#G#H#I#c+  ",
"    h#i#j#7@k#^@^@J#{@{@{@^@K#L#M#/.J 3#e.o o o o o o o N#O#o o P#{@Q#R#S#T#U#V#c+  ",
"    h#i#j#W#X#^@^@Y#{@{@{@^@Z#`#]. $.$3#e.o o o o o o o +$@$o o #$$$%$R#D#&$y *$c+  ",
"    h#i#j#=$-$;$^@{@{@{@{@>$^@,$o '$)$8@e.o o o o o 4+!$E@=+o _#P#Z ~${$]$^$/$*$c+  ",
"    h#i#j#($_$:$<${@{@{@{@[$^@}$o o |$G M.o o o o o 7+1$2$3$o 4$P#5$6$7$8$9$/$*$c+  ",
"    h#i#0$a$b$^@^@{@{@{@{@^@o#}$o o o o o o o o o o 7+2 c$o o _#P#Z d${$e$*+/$*$c+  ",
"    h#i#j#f$g$^@^@{@{@{@{@^@o#}$o o o o o o o o o o 7+3 h$o o 6$P#P#~$i$j$k$/$*$c+  ",
"    h#i#j#7@k#^@^@{@{@{@{@^@o#}$l$o o o o o o o o o 7+m$n$o$o 6$P#P#~$p$A 9$/$*$c+  ",
"    h#i#j#7@C@q$^@{@{@{@{@^@o#}$r$o o o o o o o o o M.s$t$u$o v$5$Z ~${$]$^$/$*$c+  ",
"    h#i#j#7@w$^@x${@{@{@{@^@y$z$A$B$Q C$8@D$E$o -.D$F@*#F$G$o H$I$J$K$L$M$N$/$*$c+  ",
"    h#i#j#7@w$^@^@{@{@{@{@^@O$,$P$Q$R$S$T$U$V$W$X$F@Y$v@Z$o o %${@{@Q#R#`$0@/$*$c+  ",
"     %.%+%@%(##%$%%%^@{@{@^@&%`#*%o =%_@-%;%F@>%,%'%)%!%~%o {%]%u#C#Q#R#^%/%$ (%q@  ",
"    _%:%<%[%}%|%1%2%^@{@{@^@3%4%5%o $@6%7%/ 7@7@7@/ 7%8%9%o e.2 0%o a%b%c%d%e%f%l.g%",
"    h%i%B+j%u@k%l%m%^@n%{@{@^@o#o%o o o p%q%r%r%r%s%t%o o o u%q.v%o w%x%y%z%A%l.B%  ",
"        $+%+C%D%E%F%G%{@{@{@^@o o o o o H%I%J%J%J%I%K%o o o 4+M.L%o M%N%O%P%q@    g%",
"        Q%R%S%T%U%V%W%{@{@{@^@o o o o o o o o o o o o o o o o o o o X%Y%}+Z%[+      ",
"        e `% &.&+&@&#&$&%&&&^@*&s+o o o o o o o o o o o L%r+o o 5+>#=&-&)#;&~#      ",
"        > S+>&,&&+'&)&!&~&{&]&^&^@o o o o o o o o o o o /&(&_&o :&)@<&[&}&|&T@      ",
"1&g%        $+%+}+~ 2 2&3&4&5&6&^@o o 4+s+o L%4+5+o 5+7&8&9&0&o e.a+7.b+c+          ",
"a&T@g%      $+%+}+~ 2 l#b&[.c&C$^@o d&^@^@o e&f&g+o 7+g&h&s%i&o j&k&l&m&c+          ",
"n&o&j.g%    $+%+}+~ 2 ^@p&q&r&s&^@3%t&u&T.o L%v&U.w&$#x&J 8+9+y&z&A&B&C&c+          ",
"D&1&E&      $+%+&+F&g&G&H&I&J&K&g$>$^@o o o o o L&g&x&M&]+[@i&N&O&P&Q&R&[+          ",
"S&g%g%      l.H.t@c&R$T&U&V&$.W&X&g$^@^@^@^@^@^@8&h&J ]+Y&Z&`& *.*+*@*#*$*          ",
"g%          k.l.%*&***=*-*;*+.>*,*'*)*!*x@x@~*~*{*]*8+[@A.^*/*(*_*E.:*<*[*          ",
"                + x }*|*1*2*3*4*5*6*J J J 7*8*9*0*a*9+4*|+b*e.3#J c*d*e*            ",
"                + x f#f*g*h*i*j*k*l*f#8+/.m*.$n*l$o*p*q*r*s*|.t*u*v*w*x*            ",
"                f g y*z*Q A*B*C*D*E*F*O.;#G*H*I*J**%o K*%#L*.+D.M*h.i.j.            ",
"                . f N*y*O*P*!$Q*R*S*T*U*V*V*W*X*A@o o }$Y*Z*V `* =3.>               ",
"                    + x O 0@.=+=@=#=$=%=o o o o o &=o }$*=I J K L M                 ",
"                    ==-=;=>={.,=+='=)=_#y@y@y@!=~={=~=]=u.^=X@/=v w                 ",
"                    (=_=:=<=[={..=.=.=.=.=.=.=}=|=1=|=2=3=4=5=s@e >                 ",
"                      6=7=8=<=>=0@0@0@0@0@0@0@9=0=a=0=b=c=u v w                     ",
"                        (=7=:=<=/$/$/$/$/$/$/$d=e=f=e=,@g=h=e >                     ",
"                          6=i=j=k=k=k=k=k=k=k=l=m=n=m=o=p=q=                        "};
