/* XPM */
static char *result[] = {
/* columns rows colors chars-per-pixel */
"44 58 237 2 ",
"   c #020202",
".  c #0B0101",
"X  c #03010A",
"o  c #0C000B",
"O  c #030A06",
"+  c #140001",
"@  c #1C0000",
"#  c #12020C",
"$  c #080113",
"%  c #140013",
"&  c #1A0015",
"*  c #1C001B",
"=  c #110019",
"-  c #240001",
";  c #25001A",
":  c #3B0000",
">  c #1D0023",
",  c #220022",
"<  c #290028",
"1  c #370035",
"2  c #360028",
"3  c #581B07",
"4  c #790803",
"5  c #731508",
"6  c #5F3F18",
"7  c #6A2906",
"8  c #762B06",
"9  c #79271D",
"0  c #673316",
"q  c #6D3310",
"w  c #5F2C32",
"e  c #762729",
"r  c #772839",
"t  c #6C2E31",
"y  c #730A2E",
"u  c #350043",
"i  c #751D53",
"p  c #553046",
"a  c #6A2945",
"s  c #772548",
"d  c #880A01",
"f  c #9A0408",
"g  c #8E130D",
"h  c #B70117",
"j  c #832A00",
"k  c #862011",
"l  c #B03515",
"z  c #850425",
"x  c #890135",
"c  c #8A102B",
"v  c #B0052D",
"b  c #882738",
"n  c #AD3F2C",
"m  c #C70713",
"M  c #C11C16",
"N  c #C53D0F",
"B  c #C60826",
"V  c #D2112B",
"C  c #C53C2E",
"Z  c #9A5518",
"A  c #B74404",
"S  c #A95D03",
"D  c #B55B01",
"F  c #A85915",
"G  c #B85719",
"H  c #BA4A15",
"J  c #8C6719",
"K  c #966817",
"L  c #956E10",
"P  c #AC6403",
"I  c #A3620C",
"U  c #A7670A",
"Y  c #B56506",
"T  c #A56813",
"R  c #AF691D",
"E  c #8A533E",
"W  c #9D5E32",
"Q  c #BA4826",
"!  c #B25B26",
"~  c #B6572A",
"^  c #B84C3A",
"/  c #AB5636",
"(  c #B65938",
")  c #A74D2E",
"_  c #966724",
"`  c #8B6B20",
"'  c #A66B26",
"]  c #B76227",
"[  c #AA7031",
"{  c #C64604",
"}  c #C85012",
"|  c #F45D04",
" . c #EA5F16",
".. c #E85B01",
"X. c #D06C15",
"o. c #E96608",
"O. c #F56607",
"+. c #E76517",
"@. c #C45627",
"#. c #D85E2B",
"$. c #D35B2A",
"%. c #C1512A",
"&. c #E85A30",
"*. c #CE6C2B",
"=. c #DA6927",
"-. c #C77531",
";. c #E86528",
":. c #ED682B",
">. c #9E0052",
",. c #83255E",
"<. c #B44A4B",
"1. c #AA5845",
"2. c #B75348",
"3. c #B55456",
"4. c #B14D58",
"5. c #AF6A4B",
"6. c #B94B64",
"7. c #B1536B",
"8. c #B87D68",
"9. c #BE787C",
"0. c #C15B4E",
"q. c #C7794B",
"w. c #C67B54",
"e. c #DA7954",
"r. c #C77D73",
"t. c #E87445",
"y. c #A98737",
"u. c #B1843A",
"i. c #C08029",
"p. c #EC9C33",
"a. c #EB9E3C",
"s. c #E99A3A",
"d. c #F59B3E",
"f. c #F5953E",
"g. c #EF9D2F",
"h. c #D9A53F",
"j. c #ECA13B",
"k. c #EEA333",
"l. c #F4A339",
"z. c #D6841E",
"x. c #AB8341",
"c. c #9B8975",
"v. c #B98667",
"b. c #A78774",
"n. c #B48871",
"m. c #DF9D47",
"M. c #D28A53",
"N. c #E49C44",
"B. c #EB9D44",
"V. c #EC9C4B",
"C. c #E69A4B",
"Z. c #F49E43",
"A. c #F39C4C",
"S. c #F89A45",
"D. c #EB9954",
"F. c #F69958",
"G. c #DCA748",
"H. c #D9A757",
"J. c #C8A257",
"K. c #E4A244",
"L. c #ECA244",
"P. c #E4A54C",
"I. c #EBA34C",
"U. c #E6AA46",
"Y. c #F4A343",
"T. c #F9A344",
"R. c #F7A449",
"E. c #E3AB52",
"W. c #E5A657",
"Q. c #F8A45A",
"!. c #CF8A68",
"~. c #E89C67",
"^. c #F99865",
"/. c #EC9878",
"(. c #CAA967",
"). c #D7A96D",
"_. c #ECB174",
"`. c #FEC36D",
"'. c #FAC868",
"]. c #EBCB79",
"[. c #FCCB74",
"{. c #FDCA7D",
"}. c #F7C975",
"|. c #FAD279",
" X c #ECC86C",
".X c #7A6B8B",
"XX c #4A56C2",
"oX c #C37C80",
"OX c #009AFE",
"+X c #B39888",
"@X c #CAB298",
"#X c #D8AE8C",
"$X c #F0AC94",
"%X c #CDB2A9",
"&X c #E0A5A9",
"*X c #F8C887",
"=X c #FDD588",
"-X c #FFDE97",
";X c #F3CB90",
":X c #FFE38E",
">X c #FFEC8D",
",X c #FFE494",
"<X c #FFEB96",
"1X c #FFE59B",
"2X c #FFEB9B",
"3X c #FFF49B",
"4X c #FFC9A6",
"5X c #FDD9AB",
"6X c #EDCBB6",
"7X c #F6CBB7",
"8X c #F7D3B7",
"9X c #E9D0AE",
"0X c #FEE5A6",
"qX c #FFEBA3",
"wX c #FFE4AC",
"eX c #F6ECAC",
"rX c #FEECAB",
"tX c #FEF2A3",
"yX c #FFF3AB",
"uX c #F6F1AF",
"iX c #FEECB3",
"pX c #FDECBC",
"aX c #F7EBB8",
"sX c #FEF2B2",
"dX c #FEF3BB",
"fX c #F7F5BA",
"gX c #DECFBC",
"hX c #FFC7C6",
"jX c #E4D5C5",
"kX c #F6D0D4",
"lX c #FDF5C2",
"zX c #FFE8D7",
"xX c #FFF5DF",
"cX c #FFE9C7",
"vX c #FFEDE8",
"bX c #E3D2E6",
"nX c None",
/* pixels */
"OXOXOXOXOXOXOXOXOXOXOXOXOXOXOXOXOXOXOXOXOXOXOXOXOXOXOXOXOXOXOXOXOXOXOXOXOXOXOXOXOXOXOXOX",
"OXOXOXOXOXOXOXOXOXOXOXOXOXOXOXOXOXOXOXOXOXOXOXOXOXOXOXOXOXOXOXOXOXOXOXOXOXOXOXOXOXOXOXOX",
"OXOXOXOXOXOXOXOXOXOXOXOXOXOXOXOXOXOXOXOX1 OXOXOXOX; % ; OXOXOXOXOXOXOXOXOXOXOXOXOXOXOXOX",
"OXOXOXOXOXOXOXOXOXOXOXOXOXOXOXOXOXOX< < OXOX< , * o X % * < OXOXOXOXOXOXOXOXOXOXOXOXOXOX",
"OXOXOXOXOXOXOXOXOXOXOXOXOXOXOXOX; = o % o o o o o O o OXOXOXOXOXOXOXOXOXOXOXOXOXOXOXOXOX",
"OXOXOXOXOXOXOXOXOXOXOXOXOXOXOX> % O O         X       & , > , , 1 OXOXOXOXOXOXOXOXOXOXOX",
"OXOXOXOXOXOXOXOXOXOXOXOXOXOXOX* X           . X       o % = = OXOXOXOXOXOXOXOXOXOXOXOXOX",
"OXOXOXOXOXOXOXOXOXOXOXOXOXOX2 # X O O   O                 X $ = , OXOXOXOXOXOXOXOXOXOXOX",
"OXOXOXOXOXOXOXOXOXOXOXOXOXOX; # .   X       O   O O       X X $ * < 2 u OXOXOXOXOXOXOXOX",
"OXOXOXOXOXOXOXOXOXOXOXOXOXOX; @ . #       . . O     O     O X X % ; OXOXOXOXOXOXOXOXOXOX",
"OXOXOXOXOXOXOXOXOXOXOXOXOXOX; - n.+ + + %X%Xb.+ . .   . .     X OXOXOXOXOXOXOXOXOXOXOXOX",
"OXOXOXOXOXOXOXOXOXOXOXOXOXOX2 w &X7Xb.@ + @ 6X%X+   o .     o & ; 2 OXOXOXOXOXOXOXOXOXOX",
"OXOXOXOXOXOXOXOXOXOXOXOXOXOXOX- @X8X8X@Xc.. . c.. . o         & 1 OXOXOXOXOXOXOXOXOXOXOX",
"OXOXOXOXOXOXOXOXOXOXOXOX>.OXOX- . 9XaX9X.   jX. . .         # OXOXOXOXOXOXOXOXOXOXOXOXOX",
"OXOXOXOXOXOXOXOXOXOXOXz v h c t @X. jX  %XvXb.@ gXjX.     o OXOXOXOXOXOXOXOXOXOXOXOXOXOX",
"OXOXOXOXOXOXOXOXOXOXOXz v V v q xX. jX. vXcXn.7XjXc.. . . ; < OXOXOXOXOXOXOXOXOXOXOXOXOX",
"OXOXOXOXOXOXOXOXOXOXOXOXOXx c r.cXzXjXzXzXcX#X5Xv.#X- - t OXOXOXOXOXOXOXOXOXOXOXOXOXOXOX",
"OXOXOXOXOXOXOXOXOXOXOXOXOXOXOXr.7X@X8X8X6X8X5X#X7 : Z Z !.b OXOXOXOXOXOXOXOXOXOXOXOXOXOX",
"OXOXOXOXOXOXOXOXOXOXOXOXOXOXOXe v.9X6 0 8.5X).0 w.G A G /.k OXOXOXOXOXOXOXOXOXOXOXOXOXOX",
"OXOXOXOXOXOXOXOXOXOXOXOXOXOXs 9.7 q ).4X$Xw.q M.q.l { A e.k OXOXOXOXOXOXOXOXOXOXOXOXOXOX",
"OXOXOXOXOXOXOXOXOXOXOXOXa w hX8X).-.j j j M.M.q.M.;.{ t.g k OXOXOXOXOXOXOXOXOXOXOXOXOXOX",
"OXOXOXOXOXOXOXOXOXOXOXa a bXhX6X4XQ.=.=.=.*.Q.Q.X.+.N d 5 k b c k OXOXOXOXOXOXOXOXOXOXOX",
"OXOXOXOXOXOXOXOXOXOXa w kX.XbX@X5Xd ;.+.o.O.o.o. . .f l b a kX&Xs OXOXOXOXOXOXOXOXOXOXOX",
"OXOXOXOXOXOXOXOXOXa hX8.%XbXp %X8 5 l ;.X.+.+.X.;.N f %.b hX+Xr.k OXOXOXOXOXOXOXOXOXOXOX",
"OXOXOXOXOXOXOXOX,.hXn.8.v.7X0 8 5 %XXXXXE E E E XX$.#.%.r.4X4Xg M B v OXOXOXOXOXOXOXOXOX",
"OXOXOXOXOXOXOXOXOXs r e k 5.4Xd ^ ) XXXXXXXXXXXXXX#.#.3 9 8.$Xf h B V v v OXOXOXOXOXOXOX",
"OXOXOXOXOXOXOXOXOXOXOXOXnX4 {  . . .;.H n ) #.#.#.#.#.$.3 q k OXOXx v B V m v OXOXOXOXOX",
"OXOXOXOXOXOXOXOXOXOXOXOXg }  .| O.....;.} n #.#.#.#.n $.#.) 5 OXOXOXOXf m m B OXOXOXOXOX",
"OXOXOXOXOXOXOXOXOXOXOXOXd ;.O.O.| O.o.;.l &.n #.#.*.*.7 -.#.d OXOXOXOXOXOXz OXOXOXOXOXOX",
"OXOXOXOXOXOXOXOXOXOXOXx n ;.O.O.O.{ A $.#.#.} l t.=.=.*.H &.d e r e r i OXOXOXOXOXOXOXOX",
"OXOXOXOXOXOXOXOXOXOXOXy n :.o.o...o.g OXOXOXOX@.C &.+.+.l } d M.q.q.r.9.r 9 OXOXOXOXOXOX",
"OXOXOXOXOXOXOXOXOXOXOX5 5 H } D Y D G 2.OXOXOXOX4 { { { } ~ ! F R F 8 r 9.r.OXOXOXOXOXOX",
"OXOXOXOXOXOXOXOXOX2.~ F U U D.{.1X2X*X~.~ ( / ! R D D Y C.wX5XyX].E.R OXe i OXOXOXOXOXOX",
"OXOXOXOXOXOX6.3.1.D.Q.U K.'.2XqXwXiXqX=XK [.,X,X}.E.U G.,XiXlXfX3X XH.1.OXOXOXOXOXOXOXOX",
"OXOXOXOXOX1.H.;XwXrXK ].,X3X<XrXdXaXaXtX*XK tXiXiXrX]._ iXwXeXuXsXtX|.H.2.OXOXOXOXOXOXOX",
"OXOXOXOX2.D.`.qXrXrX(.yXtX Xy.(.wXlXfXuXtX` 2XiXiXiXiXiX(.iXpXiXiXeXqXG.! OXOXOXOXOXOXOX",
"OXOXOX2.] S U qXiXrXyXeXqX' }.yXiXpXiXuXtXK <X,XyXqXqXtXeXlXpXiXsXdXwXH.W.] ( OXOXOXOXOX",
"OXOX3.~.[.[.[._ sXeXfXeXrXT `.,XyXwXwXyX].T K K K y.tXtXdXaXcXiXsXwXiXwX1X XH.2.OXOXOXOX",
"OXOX5.$X2XtX2X}.K iXfXcXiXI I.[.<X1XqX`.E.*X2XtX].H.` <X2XyXyXqXqXu.[ u.qX3X*X~.2.OXOXOX",
"OX1.H.wXqXdXyX<XL dXaXaXwX_.I G.H.(.W.m.U 3X<X<X<X2X|.` y.dX0X2Xu.<XqX1XJ.uXtX}.] 4.OXOX",
"OX/ =XqXrXsXqX,XK uXfXlXeX2X].` J _ _ ' ,X>X|.'.[.1XqXL (.iXpX_ 1XiXsXrXsXiXtX'.I *X1.7.",
"OX_ ,XqX(.0XsXx.qXuXeXtXuX3X3X3XyX1X1X1X XG.U.U.G.{.-X' 1XiXwXT -XrXdXeXrXyXtX|.I :XwXkX",
"OX[ :X2XrXu.x.wXiX;X(.(.J.|.>X<X2X1X-X'.L.U.m.N.R.s.`.U <X,X}.I [.,XtXsXyX2X Xh.L >X5XkX",
"OXW *XqXrXrXwXiX;X1X3X2X>XL ` J ` ' C.a.l.a.I.L.Z.g.z.L.`.[.G.P j.G.].*X}.H.U.U '.~.1.7.",
"OXOX1.rXwXiXiXiXsX:X[.[.J yXsXsXiX1XT L.a.Y.S.d.d.Y.B.B.I.P.K.Y.P U.h.K.a.B.D l.C.3.OXOX",
"OXOX4.).*X0XrXqX}.E.P.K 2XqXsXwXqX<X>XU z.X.l.l.T.N.P.I.P.N.Y.L.j.P P D X.D Z.d.~ OXOXOX",
"OXOXOX( K.P.P.K.L.j.j.T :X<X*XH.E.}.>XT K T I P k.h.'.<X,XP.K.L.L.V.R.Z.S.S.S.F.^ OXOXOX",
"OXOXOX( S j.j.Y.j.P.P.K <X`.P.B.U U.'.T 2X:X<XU.U U.G. X2X<XE.P.B.B.A.R.A.S.F.^ OXOXOXOX",
"OXOXOX~ T.P Y m.qX0XrX}.T I.L.L.Y k.j.U :X2X2X,Xu.j.U.G.<X<X<XF R.l.g.p.B.F.( OXOXOXOXOX",
"OXOXOX2.I.Y N.W.}.wXrX2X`.I U P B.p.l.U P.W.{.,XC.I.P.P.[.tX2XF S.g.Y ! ( 2.OXOXOXOXOXOX",
"OXOXOXOX3.F.Y N.I.E.[.:X,X<X<X-X{.E.Y a.B.B.C.`.L.I.F.C.E.<X'.Y T.g.@.OXOXOXOXOXOXOXOXOX",
"OXOXOXOXOX^ F.~ ~.F.V.K.G.E.H.H.W.C.S l.T.f.T.k.Y.N.Q.A.I.`.E.F F.F.0.OXOXOXOXOXOXOXOXOX",
"OXOXOXOXOXOX6.0.2.2.( I.L.g.S.F.F X.T.l.a.Y.s.k.l.B.B.L.B.Q.) 0.<.6.OXOXOXOXOXOXOXOXOXOX",
"OXOXOXOXOXOXOXOXOXOXOX/ ! ~ @.%.^.F.A.T.d.j.k.k.d.A.F.^./ ^ OXOXOXOXOXOXOXOXOXOXOXOXOXOX",
"OXOXOXOXOXOXOXOXOXOXOXOXOXOXOXOX4.0.~ F.S.g.l.k.Y.~ 3.6.OXOXOXOXOXOXOXOXOXOXOXOXOXOXOXOX",
"OXOXOXOXOXOXOXOXOXOXOXOXOXOXOXOXOXOXOX3.%.~ ! ! ^ OXOXOXOXOXOXOXOXOXOXOXOXOXOXOXOXOXOXOX",
"OXOXOXOXOXOXOXOXOXOXOXOXOXOXOXOXOXOXOXOXOXOXOXOXOXOXOXOXOXOXOXOXOXOXOXOXOXOXOXOXOXOXOXOX",
"OXOXOXOXOXOXOXOXOXOXOXOXOXOXOXOXOXOXOXOXOXOXOXOXOXOXOXOXOXOXOXOXOXOXOXOXOXOXOXOXOXOXOXOX"
};
