/* XPM */
static char *result[] = {
/* columns rows colors chars-per-pixel */
"44 58 237 2 ",
"   c #020202",
".  c #0B0101",
"X  c #03010A",
"o  c #0C000B",
"O  c #030A06",
"+  c #140001",
"@  c #1C0000",
"#  c #12020C",
"$  c #080113",
"%  c #140013",
"&  c #1A0015",
"*  c #1C001B",
"=  c #110019",
"-  c #240001",
";  c #25001A",
":  c #3B0000",
">  c #1D0023",
",  c #220022",
"<  c #290028",
"1  c #370035",
"2  c #360028",
"3  c #581B07",
"4  c #790803",
"5  c #731508",
"6  c #5F3F18",
"7  c #6A2906",
"8  c #762B06",
"9  c #79271D",
"0  c #673316",
"q  c #6D3310",
"w  c #5F2C32",
"e  c #762729",
"r  c #772839",
"t  c #6C2E31",
"y  c #730A2E",
"u  c #350043",
"i  c #751D53",
"p  c #553046",
"a  c #6A2945",
"s  c #772548",
"d  c #880A01",
"f  c #9A0408",
"g  c #8E130D",
"h  c #B70117",
"j  c #832A00",
"k  c #862011",
"l  c #B03515",
"z  c #850425",
"x  c #890135",
"c  c #8A102B",
"v  c #B0052D",
"b  c #882738",
"n  c #AD3F2C",
"m  c #C70713",
"M  c #C11C16",
"N  c #C53D0F",
"B  c #C60826",
"V  c #D2112B",
"C  c #C53C2E",
"Z  c #9A5518",
"A  c #B74404",
"S  c #A95D03",
"D  c #B55B01",
"F  c #A85915",
"G  c #B85719",
"H  c #BA4A15",
"J  c #8C6719",
"K  c #966817",
"L  c #956E10",
"P  c #AC6403",
"I  c #A3620C",
"U  c #A7670A",
"Y  c #B56506",
"T  c #A56813",
"R  c #AF691D",
"E  c #8A533E",
"W  c #9D5E32",
"Q  c #BA4826",
"!  c #B25B26",
"~  c #B6572A",
"^  c #B84C3A",
"/  c #AB5636",
"(  c #B65938",
")  c #A74D2E",
"_  c #966724",
"`  c #8B6B20",
"'  c #A66B26",
"]  c #B76227",
"[  c #AA7031",
"{  c #C64604",
"}  c #C85012",
"|  c #F45D04",
" . c #EA5F16",
".. c #E85B01",
"X. c #D06C15",
"o. c #E96608",
"O. c #F56607",
"+. c #E76517",
"@. c #C45627",
"#. c #D85E2B",
"$. c #D35B2A",
"%. c #C1512A",
"&. c #E85A30",
"*. c #CE6C2B",
"=. c #DA6927",
"-. c #C77531",
";. c #E86528",
":. c #ED682B",
">. c #9E0052",
",. c #83255E",
"<. c #B44A4B",
"1. c #AA5845",
"2. c #B75348",
"3. c #B55456",
"4. c #B14D58",
"5. c #AF6A4B",
"6. c #B94B64",
"7. c #B1536B",
"8. c #B87D68",
"9. c #BE787C",
"0. c #C15B4E",
"q. c #C7794B",
"w. c #C67B54",
"e. c #DA7954",
"r. c #C77D73",
"t. c #E87445",
"y. c #A98737",
"u. c #B1843A",
"i. c #C08029",
"p. c #EC9C33",
"a. c #EB9E3C",
"s. c #E99A3A",
"d. c #F59B3E",
"f. c #F5953E",
"g. c #EF9D2F",
"h. c #D9A53F",
"j. c #ECA13B",
"k. c #EEA333",
"l. c #F4A339",
"z. c #D6841E",
"x. c #AB8341",
"c. c #9B8975",
"v. c #B98667",
"b. c #A78774",
"n. c #B48871",
"m. c #DF9D47",
"M. c #D28A53",
"N. c #E49C44",
"B. c #EB9D44",
"V. c #EC9C4B",
"C. c #E69A4B",
"Z. c #F49E43",
"A. c #F39C4C",
"S. c #F89A45",
"D. c #EB9954",
"F. c #F69958",
"G. c #DCA748",
"H. c #D9A757",
"J. c #C8A257",
"K. c #E4A244",
"L. c #ECA244",
"P. c #E4A54C",
"I. c #EBA34C",
"U. c #E6AA46",
"Y. c #F4A343",
"T. c #F9A344",
"R. c #F7A449",
"E. c #E3AB52",
"W. c #E5A657",
"Q. c #F8A45A",
"!. c #CF8A68",
"~. c #E89C67",
"^. c #F99865",
"/. c #EC9878",
"(. c #CAA967",
"). c #D7A96D",
"_. c #ECB174",
"`. c #FEC36D",
"'. c #FAC868",
"]. c #EBCB79",
"[. c #FCCB74",
"{. c #FDCA7D",
"}. c #F7C975",
"|. c #FAD279",
" X c #ECC86C",
".X c #7A6B8B",
"XX c #4A56C2",
"oX c #C37C80",
"OX c #009AFE",
"+X c #B39888",
"@X c #CAB298",
"#X c #D8AE8C",
"$X c #F0AC94",
"%X c #CDB2A9",
"&X c #E0A5A9",
"*X c #F8C887",
"=X c #FDD588",
"-X c #FFDE97",
";X c #F3CB90",
":X c #FFE38E",
">X c #FFEC8D",
",X c #FFE494",
"<X c #FFEB96",
"1X c #FFE59B",
"2X c #FFEB9B",
"3X c #FFF49B",
"4X c #FFC9A6",
"5X c #FDD9AB",
"6X c #EDCBB6",
"7X c #F6CBB7",
"8X c #F7D3B7",
"9X c #E9D0AE",
"0X c #FEE5A6",
"qX c #FFEBA3",
"wX c #FFE4AC",
"eX c #F6ECAC",
"rX c #FEECAB",
"tX c #FEF2A3",
"yX c #FFF3AB",
"uX c #F6F1AF",
"iX c #FEECB3",
"pX c #FDECBC",
"aX c #F7EBB8",
"sX c #FEF2B2",
"dX c #FEF3BB",
"fX c #F7F5BA",
"gX c #DECFBC",
"hX c #FFC7C6",
"jX c #E4D5C5",
"kX c #F6D0D4",
"lX c #FDF5C2",
"zX c #FFE8D7",
"xX c #FFF5DF",
"cX c #FFE9C7",
"vX c #FFEDE8",
"bX c #E3D2E6",
"nX c None",
/* pixels */
"OXOXOXOXOXOXOXOXOXOXOXOXOXOXOXOXOXOXOXOXOXOXOXOXOXOXOXOXOXOXOXOXOXOXOXOXOXOXOXOXOXOXOXOX",
"OXOXOXOXOXOXOXOXOXOXOXOXOXOXOXOXOXOXOXOXOXOXOXOXOXOXOXOXOXOXOXOXOXOXOXOXOXOXOXOXOXOXOXOX",
"OXOXOXOXOXOXOXOXOXOXOXOXOXOXOXOX* & , OXOXOXOX1 OXOXOXOXOXOXOXOXOXOXOXOXOXOXOXOXOXOXOXOX",
"OXOXOXOXOXOXOXOXOXOXOXOXOXOX< * % . X * , < OXOX< < OXOXOXOXOXOXOXOXOXOXOXOXOXOXOXOXOXOX",
"OXOXOXOXOXOXOXOXOXOXOXOXOXOXOXOXOXX O X o # o o % # = * OXOXOXOXOXOXOXOXOXOXOXOXOXOXOXOX",
"OXOXOXOXOXOXOXOXOXOXOX1 , , > , & .         .       X = , OXOXOXOXOXOXOXOXOXOXOXOXOXOXOX",
"OXOXOXOXOXOXOXOXOXOXOXOXOX= = # o     O X X           o & OXOXOXOXOXOXOXOXOXOXOXOXOXOXOX",
"OXOXOXOXOXOXOXOXOXOXOX> = $ X   .                 O O X % 2 OXOXOXOXOXOXOXOXOXOXOXOXOXOX",
"OXOXOXOXOXOXOXOXu 1 , * $ $ X       O O           O   O # , OXOXOXOXOXOXOXOXOXOXOXOXOXOX",
"OXOXOXOXOXOXOXOXOXOX; % o   O     O     .   .       + . + , OXOXOXOXOXOXOXOXOXOXOXOXOXOX",
"OXOXOXOXOXOXOXOXOXOXOXOXX     .   . .   . b.%X%X+ + @ n.- ; OXOXOXOXOXOXOXOXOXOXOXOXOXOX",
"OXOXOXOXOXOXOXOXOXOX2 ; & .     . X . + %X8X@ + @ b.6X&Xt 2 OXOXOXOXOXOXOXOXOXOXOXOXOXOX",
"OXOXOXOXOXOXOXOXOXOXOX1 &         o . . +X    b.@X6X8X@X- OXOXOXOXOXOXOXOXOXOXOXOXOXOXOX",
"OXOXOXOXOXOXOXOXOXOXOXOXOX%       X . . . gX. . 9XaX9X  @ OXOX>.OXOXOXOXOXOXOXOXOXOXOXOX",
"OXOXOXOXOXOXOXOXOXOXOXOXOXOXo       jXgX+ b.vX%XO jX+ @Xt g h v z OXOXOXOXOXOXOXOXOXOXOX",
"OXOXOXOXOXOXOXOXOXOXOXOXOX< ; . . . c.cX9Xb.zXvX. jX. xX0 v V v z OXOXOXOXOXOXOXOXOXOXOX",
"OXOXOXOXOXOXOXOXOXOXOXOXOXOXOXe - - #Xv.7X#XcXxXzXjXxXzX9.c x OXOXOXOXOXOXOXOXOXOXOXOXOX",
"OXOXOXOXOXOXOXOXOXOXOXOXOXOXb r.Z Z : 7 #X7X5X6X7X7X#X9X9.OXOXOXOXOXOXOXOXOXOXOXOXOXOXOX",
"OXOXOXOXOXOXOXOXOXOXOXOXOXOXk /.G A G w.0 ).8Xv.0 6 9Xv.e OXOXOXOXOXOXOXOXOXOXOXOXOXOXOX",
"OXOXOXOXOXOXOXOXOXOXOXOXOXOXk e.A { l q.M.q M./.4X_.7 q 8.s OXOXOXOXOXOXOXOXOXOXOXOXOXOX",
"OXOXOXOXOXOXOXOXOXOXOXOXOXOXk k t.{ +.e.q.M.M.j j j -.).8XhXa a OXOXOXOXOXOXOXOXOXOXOXOX",
"OXOXOXOXOXOXOXOXOXOXOXk y r k k g N ;.=.Q.F.-.=.=.;.^.4X8X7XbXa a OXOXOXOXOXOXOXOXOXOXOX",
"OXOXOXOXOXOXOXOXOXOXOXs &XkXr b l f  .+.o.O.o.O.+.:.d 5X@XbX.XkXw a OXOXOXOXOXOXOXOXOXOX",
"OXOXOXOXOXOXOXOXOXOXOXk !.9.kXb } g N ;.X.+.+.X.;.l 4 7 %Xp bX%X8.hXa OXOXOXOXOXOXOXOXOX",
"OXOXOXOXOXOXOXOXOXv B h l 4X4Xr.Q #.$.XXE E E E XXXX%X5 9 t 8Xv.8.v.hX,.OXOXOXOXOXOXOXOX",
"OXOXOXOXOXOXOXv v V B h d $X8.q 3 #.#.XXXXXXXXXXXXXX) %.4 *Xq.9 e t s OXOXOXOXOXOXOXOXOX",
"OXOXOXOXOXh h V B v x OXOXk 9 3 #.#.#.#.$.#.) l } ;.+. . .{ d nXOXOXOXOXOXOXOXOXOXOXOXOX",
"OXOXOXOXOXV m m f OXOXOXOX4 ) *.#.) #.#.#.#.n } :...o.O.| o.N z OXOXOXOXOXOXOXOXOXOXOXOX",
"OXOXOXOXOXOXz OXOXOXOXOXOXd =.-.7 *.*.#.#.n #.N ;.o.O...| O.&.g OXOXOXOXOXOXOXOXOXOXOXOX",
"OXOXOXOXOXOXOXOXi r e r k d &.A *.=.#.&.l %.#.#.#.A { o.O.O.&.n x OXOXOXOXOXOXOXOXOXOXOX",
"OXOXOXOXOXOX9 r 9.r.M.q.M.d } l :.+.&.%.@.OXOXOXOXg o.o.o.o.:.n y OXOXOXOXOXOXOXOXOXOXOX",
"OXOXOXOXOXOXr.9.e 8 F R Z ( ~ } A { N 4 OXOXOXOX2.G S X.D } A 5 5 OXOXOXOXOXOXOXOXOXOXOX",
"OXOXOXOXOXOXi e OX' E.].yX0XrXm.Y S Y R ! / / ~ ~.*X2X1X{.C.T S ] ~ 2.OXOXOXOXOXOXOXOXOX",
"OXOXOXOXOXOXOXOX1.W. XtXuXlXiX,XG.I E.`.,X,X[.I =XyXrXrX0X<X'.U.U I.D./ 3.6.OXOXOXOXOXOX",
"OXOXOXOXOXOXOX( P.*XtXyXeXeXwXiX_ *XqXpXiXqXJ ;XrXaXaXsXqX<X3X<X].K iX5X;XH.( OXOXOXOXOX",
"OXOXOXOXOXOXOX! G.qXuXuXpXiXpX(.iXiXsXdXrXqXK yXuXfXcXiX(.y.].tXyX(.rXwXtX'.W.2.OXOXOXOX",
"OXOXOXOXOX( ' D.H.0XlXsXpXcXlXrXyXqX2XtX,X<XK tXeXiXpXiXsX}.' <XrXsXrXiX0XU S ] 2.OXOXOX",
"OXOXOXOX<.W. X1XwXiXwXsXrXpXaXsX3XtXy.J T T K ].tXrX0XyX1X`.T rXeXsXsXsX` [.`.`.~.6.OXOX",
"OXOXOX2.~.].3XyXu.[ u.qXqXsXrXqX>X` H.].yXqX|.H.`.rX0X<X[.I.T wXcXfXeXK }.qXtXqX*X5.OXOX",
"OXOX4.] }.yXrXJ.1XqX1Xu.2X0XsXy.` *X3X<X<X<X<XT m.H.H.H.G.I _.wXaXaXfXK 2XyXsXyXqX!.1.OX",
"7./ *XI }.qXiXsXiXsXrX0X_ pXiX(.K qX1X[.'.[.>X,X' _ _ J ` |.<XeXfXfXuXJ ,X0XsXrXqX=X/ OX",
"kX0X:XI |.qXsXrXrXdXqX-X' rXrX-X' -X{.G.U.h.U. X2X1X1XtX3X<XtXtXuXeXuXrXx.yX0X(.qX,X_ OX",
"kX5X>XL h.'.2XrXsXtX<X[.I }.,X<XU '.j.R.j.K.U.L.'.,X2XqX3X>X}.J.H.(.;XuXrX5.x.rXtX:X[ OX",
"7.1.~.'.U U.E.{.*X].G.K.P K.[.`.N.z.p.S.I.I.N.l.j.C.' J J J K ,X2X3X1X;XsXyX0XrX0X*X_ OX",
"OXOX3.C.l.Y Z.L.L.h.U.P j.U.I.I.B.L.Y.d.d.Z.T.s.L.T 1XsXsXsXyXJ {.`.,XsXiXiXiX0XeX1.OXOX",
"OXOXOX~ S.S.D Y D P P a.L.L.N.I.I.h.N.T.d.L.X.z.U ,X<X0XrXiXrXqXK U.H.}.qXyX0X*X).4.OXOX",
"OXOXOX^ F.S.S.S.Z.A.V.L.K.N.E.:X3X'.h.k.Y U T I T >X}.E.H.{.<X:XT K.j.L.j.P.P.L.( OXOXOX",
"OXOXOXOX^ F.A.Z.R.Y.Y.B.I.E.2X<X XG.U.I U.<X,X3XK '.U.P V.P.`.<XL P.U.j.Y.j.a.Y ( OXOXOX",
"OXOXOXOXOX( F.B.d.k.l.R.F 1X2X<XG.U.G.i.:X,X1X-XU j.j.P Y.B.I.T }.rX0XqXm.U P R.~ OXOXOX",
"OXOXOXOXOXOX2.( ! D g.f.F qXtX[.P.E.I.N.<X{.E.P.P j.k.K.U U I `.qX0XrX}.W.s.Y D.0.OXOXOX",
"OXOXOXOXOXOXOXOXOXG l.T.Y '.<XI.C.V.A.K.`.A.B.B.j.P I.{.,X,X,X<X:X[.W.W.B.Y F.3.OXOXOXOX",
"OXOXOXOXOXOXOXOXOX0.A.Q.F E.'.I.A.Q.C.R.k.T.s.T.l.S C.H.W.H.E.G.G.V.F.F.~ F.^ OXOXOXOXOX",
"OXOXOXOXOXOXOXOXOXOX6.<.2.! Q.N.R.C.d.l.p.p.L.j.T.Z.X.H A.l.p.L.I.( 2.0.<.6.OXOXOXOXOXOX",
"OXOXOXOXOXOXOXOXOXOXOXOXOXOX2.( ^.F.A.l.k.l.j.L.A.S.D.^.%.~ @.~ ) OXOXOXOXOXOXOXOXOXOXOX",
"OXOXOXOXOXOXOXOXOXOXOXOXOXOXOXOX7.3.~ d.l.l.p.S.A.~ 0.6.OXOXOXOXOXOXOXOXOXOXOXOXOXOXOXOX",
"OXOXOXOXOXOXOXOXOXOXOXOXOXOXOXOXOXOXOX( ! ~ ( %.2.OXOXOXOXOXOXOXOXOXOXOXOXOXOXOXOXOXOXOX",
"OXOXOXOXOXOXOXOXOXOXOXOXOXOXOXOXOXOXOXOXOXOXOXOXOXOXOXOXOXOXOXOXOXOXOXOXOXOXOXOXOXOXOXOX",
"OXOXOXOXOXOXOXOXOXOXOXOXOXOXOXOXOXOXOXOXOXOXOXOXOXOXOXOXOXOXOXOXOXOXOXOXOXOXOXOXOXOXOXOX"
};
