/* XPM */
static char *result[] = {
/* columns rows colors chars-per-pixel */
"44 58 236 2 ",
"   c #020102",
".  c #050506",
"X  c #0B0002",
"o  c #0C000C",
"O  c #130000",
"+  c #170006",
"@  c #0C0112",
"#  c #0F041A",
"$  c #160319",
"%  c #1C011B",
"&  c #230000",
"*  c #1A0B29",
"=  c #1C102B",
"-  c #1D1839",
";  c #230727",
":  c #2B0931",
">  c #281337",
",  c #731700",
"<  c #742A08",
"1  c #69320B",
"2  c #78320B",
"3  c #673716",
"4  c #771A21",
"5  c #573435",
"6  c #6D2C33",
"7  c #371B4F",
"8  c #2E2655",
"9  c #3B3771",
"0  c #66374B",
"q  c #693D4B",
"w  c #743253",
"e  c #6F386D",
"r  c #783B68",
"t  c #4A477C",
"y  c #6D4C68",
"u  c #79476B",
"i  c #694978",
"p  c #77467A",
"a  c #822800",
"s  c #9C251F",
"d  c #C43E08",
"f  c #9D4D12",
"g  c #AA5C00",
"h  c #B4530E",
"j  c #AA4719",
"k  c #A75D11",
"l  c #8C6719",
"z  c #966312",
"x  c #956E13",
"c  c #976918",
"v  c #AC6403",
"b  c #A3620C",
"n  c #A7680A",
"m  c #B56506",
"M  c #A56814",
"N  c #98572C",
"B  c #B64928",
"V  c #AA502D",
"C  c #B65828",
"Z  c #B9473A",
"A  c #AB5735",
"S  c #B55938",
"D  c #8B6B20",
"F  c #956923",
"G  c #A46B27",
"H  c #B86427",
"J  c #AF7132",
"K  c #C5410B",
"L  c #F55B0B",
"P  c #F15F09",
"I  c #EC5C19",
"U  c #D46F14",
"Y  c #E8680B",
"T  c #F36605",
"R  c #E9661A",
"E  c #F7651A",
"W  c #C3502B",
"Q  c #C34638",
"!  c #EF5C2D",
"~  c #DA6827",
"^  c #D17F2E",
"/  c #D36E33",
"(  c #D76A34",
")  c #F66929",
"_  c #ED6534",
"`  c #EF6B37",
"'  c #F56336",
"]  c #823658",
"[  c #903153",
"{  c #813C67",
"}  c #88554F",
"|  c #B44A4D",
" . c #AA5645",
".. c #B65248",
"X. c #B14D58",
"o. c #B85555",
"O. c #B06D4F",
"+. c #8D4977",
"@. c #885A72",
"#. c #B94B64",
"$. c #B1566B",
"%. c #B47D64",
"&. c #AF7272",
"*. c #C44945",
"=. c #C65A4A",
"-. c #CF5D52",
";. c #CF744F",
":. c #F46D44",
">. c #FC7043",
",. c #C57879",
"<. c #AB8B3C",
"1. c #B1843A",
"2. c #D6841E",
"3. c #C08029",
"4. c #EF9D2F",
"5. c #EC9C33",
"6. c #E99A3A",
"7. c #EB9E3C",
"8. c #F5953E",
"9. c #F59B3E",
"0. c #D9A53F",
"q. c #EEA333",
"w. c #ECA13B",
"e. c #F4A339",
"r. c #AB8341",
"t. c #B18756",
"y. c #B89056",
"u. c #97876D",
"i. c #AE886B",
"p. c #B78266",
"a. c #A78675",
"s. c #DF9D47",
"d. c #D28F5A",
"f. c #E59B45",
"g. c #EB9D44",
"h. c #EC9C4B",
"j. c #F49E43",
"k. c #F89A45",
"l. c #F39C4C",
"z. c #EB9954",
"x. c #F79958",
"c. c #DCA849",
"v. c #C8A257",
"b. c #D8A957",
"n. c #E4A244",
"m. c #ECA244",
"M. c #E6AA46",
"N. c #E4A54C",
"B. c #EBA34C",
"V. c #F4A343",
"C. c #F9A344",
"Z. c #F7A449",
"A. c #E5A657",
"S. c #E3AA53",
"D. c #F3A459",
"F. c #CB8C6C",
"G. c #E79C67",
"H. c #F69767",
"J. c #D4AA6B",
"K. c #EEB46D",
"L. c #FAA377",
"P. c #EBC66D",
"I. c #FDC36C",
"U. c #FAC868",
"Y. c #EDCC7B",
"T. c #F8C975",
"R. c #FCCB74",
"E. c #FCCA7C",
"W. c #FBD278",
"Q. c #505993",
"!. c #664B83",
"~. c #6D4C86",
"^. c #5A61A5",
"/. c #4A56C2",
"(. c #967A9D",
"). c #A97E88",
"_. c #8C7BAB",
"`. c #3483DB",
"'. c #009AFE",
"]. c #0D9AFD",
"[. c #1D94F5",
"{. c #1697FA",
"}. c #1B96F9",
"|. c #1997FA",
" X c #1398FC",
".X c #288BE6",
"XX c #2C8EEC",
"oX c #378CE7",
"OX c #2393F4",
"+X c #2296F8",
"@X c #A790A1",
"#X c #F89F85",
"$X c #D1AA8E",
"%X c #D5AC99",
"&X c #D8B397",
"*X c #E6AA85",
"=X c #EEAF91",
"-X c #CDB3A6",
";X c #F7C888",
":X c #FCD589",
">X c #F0CF93",
",X c #F8DB98",
"<X c #FFE38E",
"1X c #FFEC8D",
"2X c #FFE494",
"3X c #FFEB96",
"4X c #FFE59C",
"5X c #FFEB9B",
"6X c #FCC6AA",
"7X c #FFCBAC",
"8X c #FCD6AA",
"9X c #EDCDB4",
"0X c #FFCBB3",
"qX c #F9CCB8",
"wX c #FCD5B8",
"eX c #FEE4A6",
"rX c #FFEBA3",
"tX c #FFE5AC",
"yX c #F5ECAB",
"uX c #FEEBAC",
"iX c #FEF2A4",
"pX c #F6F1AF",
"aX c #FFF3AB",
"sX c #FEECB3",
"dX c #F7EBB8",
"fX c #FCEDBA",
"gX c #FEF2B2",
"hX c #FAF4BC",
"jX c #CCABDA",
"kX c #EFD0C6",
"lX c #F6D4C8",
"zX c #F8D3D3",
"xX c #FBF3C1",
"cX c #FAE6D1",
"vX c #FFEBE6",
"bX c #FFF3E5",
/* pixels */
"'.'.'.'.'.'.'.'.'.'.'.'.'.'.'.'.'.'.'.'.'.'.'.'.'.'.OX9 '.].|.}.+X|.|.'.'.'.'.'.'.'.'.'.",
"'.'.'.'.'.'.'.'.'.'.'.'.'.'.'.'.'.'.'.'.'.'.'.'.'.}.7 OX}.OX> % % ; 8 ].'.'.'.'.'.'.'.'.",
"'.'.'.'.'.'.'.'.'.'.'.'.'.'.'.'.'.'.'.'.'.'.'.'.'.[.: XX; % + o o - |.'.'.'.'.'.'.'.'.'.",
"'.'.'.'.'.'.'.'.'.'.'.'.'.'.'.'.'.'.'.'.'.'.'.].OX: `.$ + o @ $ - }.'.'.'.'.'.'.'.'.'.'.",
"'.'.'.'.'.'.'.'.'.'.'.'.'.'.'.'.'.'.'.'.].{.{.OXXX$ o     . # > {. X].'.'.'.'.'.'.'.'.'.",
"'.'.'.'.'.'.'.'.'.'.'.'.'.'.'.'.'.'.'.].[.= * $ X     .   . # * [.OXOX[.'.'.'.'.'.'.'.'.",
"'.'.'.'.'.'.'.'.'.'.'.'.'.|. X X{.}.{.OX* . .   . .     . @ # .X.X; : 7 ].'.'.'.'.'.'.'.",
"'.'.'.'.'.'.'.'.'.'.'.'. X7 * * * ; .X* @ @           . .   .   o $ 7 [.'.'.'.'.'.'.'.'.",
"'.'.'.'.'.'.'.'.'.'.'.'.'.OX* o X o + o @ .       X X           . > |.'.'.'.'.'.'.'.'.'.",
"'.'.'.'.'.'.'.'.'.'.'.'.'. XOX% @ o   X .         a.O X     X X = [.'.'.'.'.'.'.'.'.'.'.",
"'.'.'.'.'.'.'.'.'.'.'.'.+X+XOX`.@ .             X &Xi.X . @X  o XX|.'.'.'.'.'.'.'.'.'.'.",
"'.'.'.'.'.'.'.'.'.'.'. X7 > % o X . .           X 9X&XO $X5 O X ; 8 '.'.'.'.'.'.'.'.'.'.",
"'.'.'.'.'.'.'.'.'.'.'.'.{.{.> $ o       . . . cXo X 9X%Xi.  X + - |.'.'.'.'.'.'.'.'.'.'.",
"'.'.'.'.'.'.'.'.'.'.'.'.'.'.{.OX: @     kXkXX a.vX-XX kXO -X5 *  X'.'.'.'.'.'.'.'.'.'.'.",
"'.'.'.'.'.'.'.'.'.'.'.'.'.'.'.OXXXo   X u.lXlXp.vXvXX zXO bX5 }.|.'.'.'.'.'.'.'.'.'.'.'.",
"'.'.'.'.'.'.'.'.'.'.'.'.'.'.'.9 ; +     -Xa.qX&XlXcXbXlXcXcX).}.[.'.'.'.'.'.'.'.'.'.'.'.",
"'.'.'.'.'.'.'.'.'.'.'.'.'.'.].OX`.O O & & 3 p.7XwX9X9XqX&XqX@X].'.'.'.'.'.'.'.'.'.'.'.'.",
"'.'.'.'.'.'.'.'.'.'.'.'.[.[.[.`.6 p.N B , %.3 *X8Xt.3 1 6Xp.i '.'.'.'.'.'.'.'.'.'.'.'.'.",
"'.'.'.'.'.'.'.'.'.'.'.[.e w 0 6 =X8XH.d d :.t.1 t.*X,XL.2 q OX'.'.'.'.'.'.'.'.'.'.'.'.'.",
"'.'.'.'.'.'.'.'.'.'.'.i F.&.3 3 %.0X=XK d h ^ ;.p.2 < a j 6 i  X|.[.+X'.'.'.'.'.'.'.'.'.",
"'.'.'.'.'.'.'.'.'.'.'.i 5 3 8X7X1 #XL.R T Y U H.#XH.j j j ;.w +XXXw r OX'.'.'.'.'.'.'.'.",
"'.'.'.'.'.'.'.'.'.'.'.OXw 0X7Xp.0X2 j Y T T T R x.R ~ j 4 #XF.0 0 *X%Xe {.'.'.'.'.'.'.'.",
"'.'.'.'.'.'.'.'.'.'.'.}.w 0X0XwX%.3 j U T T T E L R W s #X#XJ.%Xa.8Xt.0Xi ].'.'.'.'.'.'.",
"'.'.'.'.'.'.'.'.'.'.'. X~.,.6X6XwX%.5 V ~ R P L E W j ] &.=X-X%X@X&.7X0Xi '.'.'.'.'.'.'.",
"'.'.'.'.'.'.'.'.'.'.'.'.OXu ,.7X$Xe 1 , A V j C Z [ { oXu q @X-XjXkXqXzX~.'.'.'.'.'.'.'.",
"'.'.'.'.'.'.'.'.'.'.'.'.'.OXr 4 < V  .0 /./././.Q.w [ r oXXX^.0 (.%XlXe }.'.'.'.'.'.'.'.",
"'.'.'.'.'.'.'.'.'.'.'.'.'.OX] 6 B Y Y ( } /././.} ( ! *.] e 0 0 !.y !.+X'.'.'.'.'.'.'.'.",
"'.'.'.'.'.'.'.'.'.'.'.'.+X{ Q I E T E Y / ~ y / O.( _ ! ' Z u q q  X'.'.'.'.'.'.'.'.'.'.",
"'.'.'.'.'.'.'.'.'.'.'.'.p Q R T L E I Y ~ / u / O.( ` :.! ) Q e '.'.'.'.'.'.'.'.'.'.'.'.",
"'.'.'.'.'.'.'.'.'.'.'.'.{ *.Q E E L ) | @.Q.t @.@.~ :.>.>._ *.{ }.'.'.'.'.'.'.'.'.'.'.'.",
"'.'.'.'.'.'.'.'.'.'.'.].+.=.=.=.-.*.*.w ^.OX'.'.@.o.>.>.>.` ' -.p '.'.'.'.'.'.'.'.'.'.'.",
"'.'.'.'.'.'.'.'.'.'._.O.z z z z z f Z s '.'.'.'.&.$.D z z z ` :.@.].'.'.'.'.'.'.'.'.'.'.",
"'.'.'.'.'.'.[.OX'._.J.c sXtXtX;XJ.z / H H A A A c :XsXdXdXyXz ` z A o.'.'.'.'.'.'.'.'.'.",
"'.'.'.'.'.'.'.'.(.$Xz iXgXsXtXuXz y.J.R.2X3XW.b :XgXfXxXxXhX8Xz c D.z.A o.$.'.'.'.'.'.'.",
"'.'.'.'.'.'.'.&.F.z aXaXsXyXtXtXz z uXgXsXrXl >XtXdXfXxXhXdXpXrXz F sX8X;XG.S '.'.'.'.'.",
"'.'.'.'.'.'.'.A c.iXyXsXsXsXsX,XsXuXsXfXuXrXc iXpXfXxXdX>X&X,XaXaXz uXtXrXU.A...'.'.'.'.",
"'.'.'.'.'.S H b.b.tXxXgXsXfXfXtXaXrXrXiX2X5Xx iXyXgXfXsXgX:Xy.rXuXaXsXsXrXn g H ..'.'.'.",
"'.'.'.'.| A.P.4XtXsXtXgXsXfXdXgXiXaX<.l M z M Y.aXtXtXpX4XE.G tXyXhXpXaXF T.I.R.G.#.'.'.",
"'.'.'...G.Y.5XaX1.J J iXrXgXtXrX5Xx b.Y.iXrXW.b.I.eXeX3XT.m.M tXxXhXuXF T.5XrXrX;XO.'.'.",
"'.'.X.C T.iXaXv.4XiX4X<.5XeXaX<.F Y.5X3X3X5X5XM c.A.b.b.c.b K.tXdXdXhXz 5XaXhXiXuXd.A '.",
"X.A ;Xb T.rXsXgXsXsXsX4XF fXsXJ.x rX4XR.U.W.1X1XG F F l x Y.5XyXhXhXpXl 2XeXgXuXrX:X .'.",
"zXeX<Xx W.rXpXuXuXhXrX2XF sXtX,XG ,XE.c.M.w.c.K.4X4X4XiX5X3XiXiXpXyXpXiX<.aXeXJ.rX2XF '.",
"zX8X3Xn 0.U.4XuXgXiX3XR.n R.3X3Xb U.7.Z.0.s.M.M.U.2X5XrX5X1XT.v.b.J.>XyXtXO.r.uXiX<XG '.",
"). .G.U.n M.c.Y.;XY.c.w.v M.R.K.g.2.5.j.V.B.g.e.w.z.G D D x x 2X5X3X4X>XsXaXrXrXrX;XN '.",
"'.'.| z.C.m m.6.n.0.M.v w.m.N.B.m.m.Z.9.9.9.C.6.m.M 4XgXsXpXaXl E.T.<XgXtXsXsXtXeXO.'.'.",
"'.'.'.B k.k.m U m m v w.m.m.f.B.B.0.7.Z.9.m.U 2.n <X5XrXsXpXtXiXz c.S.T.rXgXtX;XJ.X.'.'.",
"'.'.'.Z x.k.k.j.8.l.h.m.n.n.S.<X3XU.0.w.v n M b z 3XU.b.A.E.5X<XM n.w.M.w.c.N.g.S '.'.'.",
"'.'.'.'.Z x.k.j.Z.V.j.f.B.S.3X5XP.c.M.n M.3X3X5XM U.M.m g.N.I.3XM N.N.w.V.w.w.m S '.'.'.",
"'.'.'.'.'.Z x.g.9.q.e.Z.k 4X5X3Xc.M.c.3.<X4X3X:Xn w.q.v m.m.B.M P.uXeX5Xs.n v C.C '.'.'.",
"'.'.'.'.'.'...S C m 4.8.k rXiXR.N.N.B.s.2XE.A.S.n w.5.w.m M b I.5XuXuXT.A.6.m z...'.'.'.",
"'.'.'.'.'.'.'.'.'.h e.C.m R.3XN.h.l.D.g.I.l.h.w.6.v B.:X2X2X2X3X<XR.S.A.h.m x.o.'.'.'.'.",
"'.'.'.'.'.'.'.'.'.=.x.D.k A.I.m.h.D.f.V.e.C.6.C.V.g f.z.b.b.S.c.c.h.x.H.H x.Z '.'.'.'.'.",
"'.'.'.'.'.'.'.'.'.'.o.| o.C D.f.B.g.h.e.5.6.V.w.w.j.U h l.e.5.m.B.S ..*.| #.'.'.'.'.'.'.",
"'.'.'.'.'.'.'.'.'.'.'.'.'.'...S H.x.l.e.q.q.w.m.Z.k.z.H.W W C C A '.'.'.'.'.'.'.'.'.'.'.",
"'.'.'.'.'.'.'.'.'.'.'.'.'.'.'.'.#.o.B e.e.e.5.C.x.C =.#.'.'.'.'.'.'.'.'.'.'.'.'.'.'.'.'.",
"'.'.'.'.'.'.'.'.'.'.'.'.'.'.'.'.'.'.].S C C C S ..'.'.'.'.'.'.'.'.'.'.'.'.'.'.'.'.'.'.'.",
"'.'.'.'.'.'.'.'.'.'.'.'.'.'.'.'.'.'.'.'.'.'.'.'.'.'.'.'.'.'.'.'.'.'.'.'.'.'.'.'.'.'.'.'.",
"'.'.'.'.'.'.'.'.'.'.'.'.'.'.'.'.'.'.'.'.'.'.'.'.'.'.'.'.'.'.'.'.'.'.'.'.'.'.'.'.'.'.'.'."
};
