/* XPM */
static char * m_init_xpm[] = {
"44 58 25 1",
" 	c #009AFE",
".	c #0099FD",
"+	c #0299FC",
"@	c #0199FD",
"#	c #0297F9",
"$	c #0099FC",
"%	c #000000",
"&	c #B14157",
"*	c #E68C88",
"=	c #FCD1D6",
"-	c #E63C40",
";	c #AC2023",
">	c #E8A21E",
",	c #FFDB63",
"'	c #FFFFFF",
")	c #3E3E3E",
"!	c #A5B5B6",
"~	c #F7F9F9",
"{	c #607273",
"]	c #019AFE",
"^	c #504032",
"/	c #826548",
"(	c #039AFE",
"_	c #059AFE",
":	c #029AFE",
"                                            ",
"                                            ",
"                .      +                    ",
"              @#$                           ",
"                                            ",
"                                            ",
"                                            ",
"                    %%%%                    ",
"                  %&*==*%%                  ",
"                 %**%%*==*%                 ",
"                %**%  %*===%                ",
"                %*&%   %===*%               ",
"                 %%    %%===*%              ",
"                      %%%&===%              ",
"                    %%***&*===%             ",
"                   %&*****&===%             ",
"                   %***&***===*%            ",
"                  %*******&====%            ",
"                  %*******=====%            ",
"                  %******=======%           ",
"                 %%%%****==*====%           ",
"                %*%*=***&===**==%           ",
"               %**%=&=**&*===***=%          ",
"               %*=%=&=**&%%====&=%          ",
"               %==%*=****%%%%==&%           ",
"              %*==*%%*****%%-;%%            ",
"              %==**===*&*====*%             ",
"             %===&=====*&*===%              ",
"             %=*%&*===*==%%%%%              ",
"             %==%*&===*=*%%=>%              ",
"            %,,,%******%%'%>))%             ",
"            %)))%&*====%''%)))%             ",
"            %))),%))=*=)%'%>>))%            ",
"            %)),==%)>,,>%%%==>)%            ",
"            %,,=&=%!~,,>{%=&*=>%            ",
"            %===&%%~~!~~{%*&==%%            ",
"            %%*==%~~~!~~{%*=&%*%            ",
"            %!%%%~~~~!~{!!%==*%%            ",
"           %!!~~~~~!%%%%{{{%%%!%            ",
"           %~~~~!!!%   %!{{{{!!%            ",
"           %!~~!!{{%   %!!!!!!%             ",
"]          %%!~!{!%     %%!))%              ",
"            %)))%%        %)>%              ",
"            %,)%          %>^^%%            ",
"           %//,%          %^^^^^%           ",
"          %////%                            ",
"                                            ",
"                                            ",
"                                            ",
"                                            ",
"                                            ",
"                                            ",
"                                            ",
"                 (]]((]                     ",
"                 ] ]_]]                     ",
"                   ]:_(                     ",
"                                            ",
"                                            "};
