/* XPM */
static char * m_left_xpm[] = {
"44 58 29 1",
" 	c #009AFE",
".	c #000000",
"+	c #E68C88",
"@	c #FCD1D6",
"#	c #B14157",
"$	c #E8A21E",
"%	c #AC2023",
"&	c #E63C40",
"*	c #3E3E3E",
"=	c #FFDB63",
"-	c #A5B5B6",
";	c #F7F9F9",
">	c #607273",
",	c #FFFFFF",
"'	c #019AFE",
")	c #504032",
"!	c #099AFE",
"~	c #059AFE",
"{	c #826548",
"]	c #029AFE",
"^	c #149AFD",
"/	c #0D9AFD",
"(	c #0A9AFD",
"_	c #039AFE",
":	c #0F9AFD",
"<	c #049AFE",
"[	c #0E9AFD",
"}	c #089AFD",
"|	c #079AFE",
"                                            ",
"                                            ",
"                                            ",
"                                            ",
"                                            ",
"                                            ",
"                         ..                 ",
"                   ......+.                 ",
"                 ..+@@@@+.                  ",
"                .+@@@+...                   ",
"               .@@@@..                      ",
"              .@@@@.                        ",
"             .@@@@.                         ",
"            .+@@@..                         ",
"            .@@@#++..                       ",
"           .+@@++++++.                      ",
"           .@@@+++++#+.                     ",
"          .+@@@#++#+++.                     ",
"          .@@@@@@++++++.                    ",
"          .@@+@@@@+++++.                    ",
"          .++@@@+#++##+.                    ",
"          .#@@@..#++@@#. ...                ",
"         .+@@@...++@##+..+++.               ",
"         .@@+...+++@##+.+#+$.               ",
"          .+%&.@@++#@@..##$**.              ",
"           .@@@@@++##......$$*.             ",
"           .+@@@@+###+@@+++#+$.             ",
"      ...   .@@@..+@@+#@@.++#.              ",
"      .++.   .+.+@@@@@+#@+...               ",
"    ...#+.   ..@@@@@@@+#@@.                 ",
"    .@@@@=...+@@@++@+@@++@.                 ",
"     .@@=***=@@+..++@@@@@@.                 ",
"     .+@=***=.....+++@@@@+*.                ",
"      .......     .@@++@@**.                ",
"                   .@+++**-;.               ",
"                  ..$===*;--;.              ",
"                ..>-$==-;;;-;;..            ",
"               .>---->;-;;;;,;;...          ",
"              .>----->.-;;;;,;;->>.         ",
"              .>------..-;;;,;;->>.         ",
"              .>--->>....-;;;;->>-;.       '",
"              .>>>>>>*$$,.---->>>;-.        ",
"               .>---***$) ..>>>;;;*.       !",
"                .-->..*$)   ..-;;**=.      ~",
"                 ...  .$))    ..***={.      ",
"                       .))      ..={{.      ",
"                        ..        .{{{.     ",
"                                   .{{.     ",
"                                    ...     ",
"                                            ",
"                                            ",
"                                            ",
"          ]!^~            '                 ",
"           ~/(      _]  ~::<                ",
"                    ]]  ~[}|                ",
"                     ]  '                   ",
"                                            ",
"                                            "};
