/* XPM */
static char * m_right_xpm[] = {
"44 58 29 1",
" 	c #009AFE",
".	c #000000",
"+	c #E68C88",
"@	c #FCD1D6",
"#	c #B14157",
"$	c #E8A21E",
"%	c #3E3E3E",
"&	c #E63C40",
"*	c #AC2023",
"=	c #FFDB63",
"-	c #F7F9F9",
";	c #A5B5B6",
">	c #607273",
",	c #FFFFFF",
"'	c #019AFE",
")	c #099AFE",
"!	c #504032",
"~	c #059AFE",
"{	c #826548",
"]	c #149AFD",
"^	c #029AFE",
"/	c #049AFE",
"(	c #0F9AFD",
"_	c #039AFE",
":	c #0A9AFD",
"<	c #0D9AFD",
"[	c #079AFE",
"}	c #089AFD",
"|	c #0E9AFD",
"                                            ",
"                                            ",
"                                            ",
"                                            ",
"                                            ",
"                                            ",
"                 ..                         ",
"                 .+......                   ",
"                  .+@@@@+..                 ",
"                   ...+@@@+.                ",
"                      ..@@@@.               ",
"                        .@@@@.              ",
"                         .@@@@.             ",
"                         ..@@@+.            ",
"                       ..++#@@@.            ",
"                      .++++++@@+.           ",
"                     .+#+++++@@@.           ",
"                     .+++#++#@@@+.          ",
"                    .++++++@@@@@@.          ",
"                    .+++++@@@@+@@.          ",
"                    .+##++#+@@@++.          ",
"                ... .#@@++#..@@@#.          ",
"               .+++..+##@++...@@@+.         ",
"               .$+#+.+##@+++...+@@.         ",
"              .%%$##..@@#++@@.&*+.          ",
"             .%$$......##++@@@@@.           ",
"             .$+#+++@@+###+@@@@+.           ",
"              .#++.@@#+@@+..@@@.   ...      ",
"               ...+@#+@@@@@+.+.   .++.      ",
"                 .@@#+@@@@@@@..   .+#...    ",
"                 .@++@@+@++@@@+...=@@@@.    ",
"                 .@@@@@@++..+@@=%%%=@@.     ",
"                .%+@@@@+++.....=%%%=@+.     ",
"                .%%@@++@@.     .......      ",
"               .-;%%+++@.                   ",
"              .-;;-%===$..                  ",
"            ..--;---;==$;>..                ",
"          ...--,----;->;;;;>.               ",
"         .>>;--,----;.>;;;;;>.              ",
"         .>>;--,---;..;;;;;;>.              ",
"'       .-;>>;----;....>>;;;>.              ",
"        .;->>>;;;;.,$$%>>>>>>.              ",
")       .%--->>>.. !$%%%;;;>.               ",
"~      .=%%--;..   !$%..>;;.                ",
"      .{=%%%..    !!$.  ...                 ",
"      .{{=..      !!.                       ",
"     .{{{.        ..                        ",
"     .{{.                                   ",
"     ...                                    ",
"                                            ",
"                                            ",
"                                            ",
"                 '            ~])^          ",
"                /((~  ^_      :<~           ",
"                [}|~  ^^                    ",
"                   '  ^                     ",
"                                            ",
"                                            "};
