/* XPM */
static char * teste1_xpm[] = {
"44 58 23 1",
" 	c #009AFE",
".	c #0098FB",
"+	c #000000",
"@	c #E68C88",
"#	c #FCD1D6",
"$	c #B14157",
"%	c #FFFFFF",
"&	c #FFDB63",
"*	c #E8A21E",
"=	c #3E3E3E",
"-	c #F7F9F9",
";	c #A5B5B6",
">	c #607273",
",	c #019AFE",
"'	c #099AFE",
")	c #059AFE",
"!	c #504032",
"~	c #826548",
"{	c #149AFD",
"]	c #029AFE",
"^	c #0A9AFD",
"/	c #0D9AFD",
"(	c #049AFE",
"                                            ",
"                                            ",
"                                            ",
"                                            ",
"                                            ",
"                                            ",
"                 .                          ",
"                                            ",
"                                            ",
"                                            ",
"                                            ",
"                   +++++                    ",
"                 ++@###@++                  ",
"                +@########+                 ",
"               +@######@@#@+                ",
"              +@@@@###$####+                ",
"             +@@+@@@#$@####+                ",
"             +@+#@@@#$####@+                ",
"            +@$#$#@@@$####+                 ",
"            +@+#$#+@@@####+                 ",
"            +@++#@+@@@###@+                 ",
"           +@$+@++@+@$@##@+                 ",
"           +@+%+@+++@@$@#@@+                ",
"           +@+%%+@######@@@#+               ",
"           +@+%+###@@#####@##+              ",
"           +@+%+##@$$@###@@@#+              ",
"           +$@+@@#++#$$@@###$++             ",
"            +@+##+++@#@#####+@+             ",
"             +&&+%%%+#####@#+**+            ",
"             +==+%%%+##@##@#+==+            ",
"            +==&+%%%+=#@@###+==+            ",
"           +&&&+%%%+-===&&&*=+**+           ",
"          +#@##+%%%+-;-==&&*;+@@+           ",
"          +@#++#+%+;-----;->;>+@+           ",
"          ++#+ ++%+------;->;;+++           ",
"           ++    +-------;->;;++            ",
"                +>------;++;;;;+            ",
"               +>>------++>;;;;+            ",
"               +>>;----;+>>;;;>+            ",
"              +->>>>>>>++;>>>>>+            ",
",             +-;>>>>>;++>;>>>;+            ",
"              +;-----;+  +=;;;+             ",
"'             +=----;+   +===++             ",
")            +===;;++    +*==+              ",
"            +&&==++      +!**+              ",
"            +~~&+         !!!!+             ",
"           +~~~+            !!!+            ",
"                                            ",
"                                            ",
"                                            ",
"                                            ",
"                                            ",
"                              ){']          ",
"                 ,],          ^/)           ",
"                 ,(]                        ",
"                                            ",
"                                            ",
"                                            "};
