/* XPM */
static char * 0_xpm[] = {
"44 58 636 2",
"  	c #009AFE",
". 	c #9C9DA2",
"+ 	c #95969B",
"@ 	c #C3C4C9",
"# 	c #A5A6AB",
"$ 	c #BBBABF",
"% 	c #DEDDE2",
"& 	c #D8D7DD",
"* 	c #AFAEB4",
"= 	c #8A8A8F",
"- 	c #9B9CA1",
"; 	c #A0A2A7",
"> 	c #919196",
", 	c #828388",
"' 	c #8C8B91",
") 	c #96959A",
"! 	c #CDCCD1",
"~ 	c #D7D6DC",
"{ 	c #DFDEE3",
"] 	c #D3D2D7",
"^ 	c #CCCBD0",
"/ 	c #D4D3D8",
"( 	c #DBDAE0",
"_ 	c #DFDEE4",
": 	c #C5C5CA",
"< 	c #B0AFB4",
"[ 	c #9E9EA3",
"} 	c #75767B",
"| 	c #7E8186",
"1 	c #C5C4CA",
"2 	c #BCBCC1",
"3 	c #C8C8CD",
"4 	c #B3B2B8",
"5 	c #B2B1B7",
"6 	c #AEADB2",
"7 	c #A3A2A7",
"8 	c #A09FA4",
"9 	c #C5C4C9",
"0 	c #CFCED3",
"a 	c #DCD9DF",
"b 	c #E3DFE5",
"c 	c #E1DEE3",
"d 	c #E2E1E6",
"e 	c #E3E2E7",
"f 	c #DDDCE1",
"g 	c #D0CFD4",
"h 	c #B8B7BD",
"i 	c #B0B0B5",
"j 	c #BEBDC3",
"k 	c #AAA9AE",
"l 	c #CBCACF",
"m 	c #E1E0E5",
"n 	c #C1C0C5",
"o 	c #BCBBC0",
"p 	c #BFBEC3",
"q 	c #DCD8DB",
"r 	c #E2DDE3",
"s 	c #DED9DF",
"t 	c #DCDBE0",
"u 	c #DBDADF",
"v 	c #D3D1D7",
"w 	c #DAD6DB",
"x 	c #DDDBE0",
"y 	c #DCDBE1",
"z 	c #DDDCE2",
"A 	c #CFCED4",
"B 	c #C4C2C8",
"C 	c #D6D5DA",
"D 	c #E4E2E8",
"E 	c #E0DDE3",
"F 	c #D2D1D6",
"G 	c #C7C6CB",
"H 	c #D0CFD5",
"I 	c #DAD9DE",
"J 	c #DAD6DA",
"K 	c #DCD7DC",
"L 	c #DBD7DD",
"M 	c #D9D8DD",
"N 	c #D2D0D5",
"O 	c #DCD7DD",
"P 	c #E4E0E6",
"Q 	c #A1A2A7",
"R 	c #C4C2C7",
"S 	c #C9C7CC",
"T 	c #D9D5DB",
"U 	c #E1DCE2",
"V 	c #E2DFE4",
"W 	c #E0DDE2",
"X 	c #D4D2D7",
"Y 	c #E2E0E5",
"Z 	c #E0DBE0",
"` 	c #DDD9DF",
" .	c #DDDADF",
"..	c #DBD9DE",
"+.	c #DDD8DD",
"@.	c #D7D5DA",
"#.	c #D5D4D9",
"$.	c #BEBCC1",
"%.	c #369EFD",
"&.	c #C3C1C6",
"*.	c #CAC8CD",
"=.	c #BDBCC1",
"-.	c #CCCACF",
";.	c #DED9DE",
">.	c #DAD6D9",
",.	c #D9D4D9",
"'.	c #D6D3D8",
").	c #E0DCE2",
"!.	c #E5E0E6",
"~.	c #DFDBDE",
"{.	c #D4D0D1",
"].	c #D3CED4",
"^.	c #D4CFD4",
"/.	c #E4DFE5",
"(.	c #DFDAE0",
"_.	c #D5D0D6",
":.	c #D9D7DC",
"<.	c #CECCD1",
"[.	c #C8C9D3",
"}.	c #BFBDC2",
"|.	c #A6A7AC",
"1.	c #97969C",
"2.	c #B1B0B6",
"3.	c #BEBDC2",
"4.	c #CECDD2",
"5.	c #D4D1D6",
"6.	c #CECACD",
"7.	c #C8C4C6",
"8.	c #C4BFC5",
"9.	c #D2CDD3",
"0.	c #DBD7DB",
"a.	c #C2BEBF",
"b.	c #C9C7CD",
"c.	c #D1CDD0",
"d.	c #D7D3D4",
"e.	c #D0CCD1",
"f.	c #D1CCD1",
"g.	c #E4E2E7",
"h.	c #D1CFD4",
"i.	c #9D9CA1",
"j.	c #C9C8CE",
"k.	c #C4C3C8",
"l.	c #C3C2C8",
"m.	c #CAC9CE",
"n.	c #D1D0D5",
"o.	c #CAC9CD",
"p.	c #B3AFB1",
"q.	c #B1ADB2",
"r.	c #C1BFC4",
"s.	c #C9C5C6",
"t.	c #BCB8BC",
"u.	c #C9C5CA",
"v.	c #D2CDD1",
"w.	c #D0CCCD",
"x.	c #D5D1D2",
"y.	c #DAD6D8",
"z.	c #D7D3D8",
"A.	c #D6D1D7",
"B.	c #E6E5EA",
"C.	c #E1DFE4",
"D.	c #D3D1D6",
"E.	c #CFCDD2",
"F.	c #89888D",
"G.	c #C7C6CC",
"H.	c #C9C8CD",
"I.	c #E3E0E5",
"J.	c #D8D5DB",
"K.	c #CFCCD2",
"L.	c #CFCDD3",
"M.	c #B7B4B9",
"N.	c #AEABAF",
"O.	c #C2BEC4",
"P.	c #CDC9CE",
"Q.	c #C5C1C7",
"R.	c #BDB8BE",
"S.	c #CDC9CF",
"T.	c #D5D1D7",
"U.	c #CFCBCE",
"V.	c #D3CFD2",
"W.	c #D6D3D9",
"X.	c #D9D5DA",
"Y.	c #DFDBDC",
"Z.	c #E3E0E6",
"`.	c #E4E0E5",
" +	c #DDDAE0",
".+	c #DAD8DD",
"++	c #AAA9AF",
"@+	c #D7D4D9",
"#+	c #CECBD0",
"$+	c #D3CED3",
"%+	c #D3CFD5",
"&+	c #CECACF",
"*+	c #BCB9BE",
"=+	c #BFBCC2",
"-+	c #BAB9BE",
";+	c #C0BCC1",
">+	c #CAC7CC",
",+	c #D1CDCE",
"'+	c #D1CDCF",
")+	c #D2CDD0",
"!+	c #D6D2D7",
"~+	c #D9D6DB",
"{+	c #DBD6DC",
"]+	c #E1DDDF",
"^+	c #D1D0D4",
"/+	c #C7C5CA",
"(+	c #BDBCC2",
"_+	c #D7D6DB",
":+	c #D8D4DA",
"<+	c #C8C3C7",
"[+	c #C4C0C6",
"}+	c #C8C7CC",
"|+	c #CCC8CC",
"1+	c #D4D0D6",
"2+	c #D1CDD2",
"3+	c #CDC8CD",
"4+	c #9F9EA3",
"5+	c #818085",
"6+	c #98979C",
"7+	c #A6A5AA",
"8+	c #B7B5BA",
"9+	c #C2BEC0",
"0+	c #CAC6C7",
"a+	c #CAC6C8",
"b+	c #CDC8CC",
"c+	c #D2CED4",
"d+	c #E2DEE4",
"e+	c #E1DCE1",
"f+	c #E0DEE3",
"g+	c #D6D5DB",
"h+	c #A2A1A6",
"i+	c #C8C5CB",
"j+	c #CDCBD0",
"k+	c #C2BEC1",
"l+	c #C9C4C9",
"m+	c #CAC6CB",
"n+	c #BFBBBC",
"o+	c #CFCACF",
"p+	c #B9B6BB",
"q+	c #7E7D82",
"r+	c #838287",
"s+	c #A4A1A6",
"t+	c #BBB7BA",
"u+	c #B9B4B7",
"v+	c #CAC5CB",
"w+	c #E7E3E7",
"x+	c #E0DBE1",
"y+	c #DEDCE1",
"z+	c #CBC8CC",
"A+	c #BEBABC",
"B+	c #C9C5CB",
"C+	c #CDC9CD",
"D+	c #D1CDD3",
"E+	c #D8D5DA",
"F+	c #CAC6CC",
"G+	c #ADAAB0",
"H+	c #88878C",
"I+	c #A29FA3",
"J+	c #BDBABD",
"K+	c #BFBCC0",
"L+	c #D9D5D8",
"M+	c #E5E1E7",
"N+	c #D4D0D4",
"O+	c #E0DEE4",
"P+	c #919095",
"Q+	c #D1CCD2",
"R+	c #949398",
"S+	c #757579",
"T+	c #B5B5B9",
"U+	c #CDCACF",
"V+	c #BDB9BB",
"W+	c #C1BDC1",
"X+	c #D6D4D8",
"Y+	c #DFDADF",
"Z+	c #D2CED3",
"`+	c #E1DFE5",
" @	c #A5A4A9",
".@	c #D8D6DB",
"+@	c #BEBABB",
"@@	c #BAB5BA",
"#@	c #C1BEC2",
"$@	c #C8C4C9",
"%@	c #C5C3C8",
"&@	c #ADACB1",
"*@	c #858589",
"=@	c #A9A8AD",
"-@	c #C6C5CA",
";@	c #BDBABF",
">@	c #B3AFB0",
",@	c #C8C4C5",
"'@	c #DBD8DD",
")@	c #D7D5D9",
"!@	c #DBD6DB",
"~@	c #797C81",
"{@	c #A8A8AE",
"]@	c #B8B7BC",
"^@	c #B2B1B6",
"/@	c #CBC6CB",
"(@	c #B6B2B3",
"_@	c #BBB7BD",
":@	c #C9C4CA",
"<@	c #C4C0C2",
"[@	c #B4B1B6",
"}@	c #8C8B90",
"|@	c #B5B4B9",
"1@	c #B1ADAE",
"2@	c #C2BDC0",
"3@	c #C5C1C4",
"4@	c #D2CED2",
"5@	c #D7D2D5",
"6@	c #DEDADD",
"7@	c #E3E1E6",
"8@	c #808388",
"9@	c #A3A3A9",
"0@	c #B6B5BA",
"a@	c #CBC7CD",
"b@	c #C6C4C7",
"c@	c #C4C3C7",
"d@	c #CBC7CC",
"e@	c #BEBABF",
"f@	c #2194F1",
"g@	c #C1BFC2",
"h@	c #B4B0B1",
"i@	c #B9B5B8",
"j@	c #C9C5C7",
"k@	c #D3CFD0",
"l@	c #DEDADF",
"m@	c #878A8F",
"n@	c #C3C3C8",
"o@	c #B3B2B7",
"p@	c #AFACB1",
"q@	c #BAB6B7",
"r@	c #D0CCD2",
"s@	c #DCD9DE",
"t@	c #DDD8DE",
"u@	c #E2DEE3",
"v@	c #B7B6BB",
"w@	c #DFDCE2",
"x@	c #C7C3C8",
"y@	c #C5C2C5",
"z@	c #CDC8CE",
"A@	c #D6D4D9",
"B@	c #908F95",
"C@	c #CECDD3",
"D@	c #C2C1C6",
"E@	c #C7C5CB",
"F@	c #C7C3C6",
"G@	c #C9C7CB",
"H@	c #D7D3D9",
"I@	c #D9D4DA",
"J@	c #DEDADC",
"K@	c #CFCCD1",
"L@	c #86858A",
"M@	c #8F8E93",
"N@	c #D7D2D7",
"O@	c #D9D4D6",
"P@	c #C6C3C6",
"Q@	c #C2BEC3",
"R@	c #C7C4CA",
"S@	c #D8D7DC",
"T@	c #D5D3D8",
"U@	c #CCC8CB",
"V@	c #D2CFD4",
"W@	c #DBD7DC",
"X@	c #78777C",
"Y@	c #C1BEC3",
"Z@	c #C3C2C7",
"`@	c #ACABB0",
" #	c #BAB9BF",
".#	c #D0CCCE",
"+#	c #D2CED1",
"@#	c #D0CED3",
"##	c #A4A3A8",
"$#	c #5487C5",
"%#	c #B4B3B8",
"&#	c #CBC8CD",
"*#	c #D3CFD4",
"=#	c #D5D0D4",
"-#	c #C6C3C9",
";#	c #D5D2D7",
">#	c #D9D7DD",
",#	c #DCD8DE",
"'#	c #D7D3D7",
")#	c #C9C6CB",
"!#	c #C5C3C9",
"~#	c #DAD5DA",
"{#	c #B3B2B6",
"]#	c #767579",
"^#	c #B0AFB5",
"/#	c #C7C2C8",
"(#	c #C8C3C9",
"_#	c #CCC7CC",
":#	c #CFCBD0",
"<#	c #CCC9CF",
"[#	c #9F9EA4",
"}#	c #DEDBE0",
"|#	c #CCC9CE",
"1#	c #CDC9CB",
"2#	c #E3DEE4",
"3#	c #CBC7C9",
"4#	c #D7D2D8",
"5#	c #D8D3D9",
"6#	c #AEADB3",
"7#	c #CCCBD1",
"8#	c #D4CFD5",
"9#	c #D5D1D5",
"0#	c #D8D4D5",
"a#	c #DAD5D7",
"b#	c #E2DEE1",
"c#	c #ACAAAF",
"d#	c #CDCAD0",
"e#	c #CAC5C9",
"f#	c #D8D3D7",
"g#	c #DEDAE0",
"h#	c #E1DDE2",
"i#	c #939297",
"j#	c #DEDCE2",
"k#	c #DCDADF",
"l#	c #D8D3D6",
"m#	c #DDD9DC",
"n#	c #B1B0B5",
"o#	c #A1A0A5",
"p#	c #D4D0D2",
"q#	c #D8D4D9",
"r#	c #A6A5AB",
"s#	c #B9B8BD",
"t#	c #C7C4C9",
"u#	c #D8D4D6",
"v#	c #E3DFE2",
"w#	c #DFDBDF",
"x#	c #D2CED0",
"y#	c #CBC7CA",
"z#	c #D5D1D6",
"A#	c #ABAAAF",
"B#	c #CBC7C8",
"C#	c #E4DFE4",
"D#	c #E3DEE1",
"E#	c #E3DFE3",
"F#	c #C8C6CB",
"G#	c #9B9A9F",
"H#	c #D3D0D5",
"I#	c #CFCBCD",
"J#	c #C6C2C4",
"K#	c #BFBBBD",
"L#	c #CECCD0",
"M#	c #8A8B90",
"N#	c #C0BFC4",
"O#	c #AFAEB3",
"P#	c #BCB8BD",
"Q#	c #CAC7CB",
"R#	c #D7D4DA",
"S#	c #E7E2E8",
"T#	c #87868B",
"U#	c #D5D1D4",
"V#	c #C4C1C3",
"W#	c #E1DEE4",
"X#	c #7B7A7F",
"Y#	c #ADACB2",
"Z#	c #C0BCBF",
"`#	c #C3BFC1",
" $	c #DCD8DD",
".$	c #959499",
"+$	c #DAD5D9",
"@$	c #CAC6C9",
"#$	c #DFDBE1",
"$$	c #E0DFE4",
"%$	c #A7A6AB",
"&$	c #BDB9BF",
"*$	c #CFCAD0",
"=$	c #B9B7BC",
"-$	c #D6D3D7",
";$	c #E1DDE0",
">$	c #C6C2C5",
",$	c #CFCACD",
"'$	c #D8D4D8",
")$	c #CECACB",
"!$	c #C5C1C2",
"~$	c #B8B5BA",
"{$	c #808186",
"]$	c #DAD5DB",
"^$	c #D0CCD0",
"/$	c #C6C1C6",
"($	c #DEDBE1",
"_$	c #97979C",
":$	c #DEDADB",
"<$	c #C1BEC1",
"[$	c #DEDADE",
"}$	c #D5D0D5",
"|$	c #A6A3A8",
"1$	c #727277",
"2$	c #DCD7DB",
"3$	c #C2BDC2",
"4$	c #B1B0B4",
"5$	c #DDD9DA",
"6$	c #B8B5B7",
"7$	c #E5E1E2",
"8$	c #E5E0E5",
"9$	c #88878B",
"0$	c #C0BCBE",
"a$	c #C3BFC5",
"b$	c #96989D",
"c$	c #CBCAD0",
"d$	c #DAD8DC",
"e$	c #D4D0D3",
"f$	c #D0CCCF",
"g$	c #E1DDE3",
"h$	c #E2DDE0",
"i$	c #A9A7AC",
"j$	c #8E8E93",
"k$	c #C5C2C7",
"l$	c #BEBABD",
"m$	c #C8C4C8",
"n$	c #929398",
"o$	c #E2DDE2",
"p$	c #97959A",
"q$	c #C3C0C3",
"r$	c #C8C3C8",
"s$	c #D5D2D8",
"t$	c #A8A6AB",
"u$	c #C5C0C6",
"v$	c #A7A7AD",
"w$	c #E2DEE2",
"x$	c #949397",
"y$	c #CDCBCF",
"z$	c #CAC5CA",
"A$	c #C5C1C3",
"B$	c #5588C6",
"C$	c #A4A3A9",
"D$	c #D9D4D7",
"E$	c #E0DCE1",
"F$	c #98969B",
"G$	c #D9D6DC",
"H$	c #D8D3D8",
"I$	c #77767B",
"J$	c #858489",
"K$	c #9B9A9E",
"L$	c #DBD7D8",
"M$	c #DED9DB",
"N$	c #ABA8AD",
"O$	c #CBC6CC",
"P$	c #C6C3C8",
"Q$	c #D6D1D6",
"R$	c #E5E1E4",
"S$	c #949297",
"T$	c #D1CED4",
"U$	c #CCC7CB",
"V$	c #CBC8CE",
"W$	c #CCCBCF",
"X$	c #E0DCDF",
"Y$	c #E4E0E4",
"Z$	c #E6E1E7",
"`$	c #E0DCE0",
" %	c #C0BDC1",
".%	c #B8B3B9",
"+%	c #BAB8BD",
"@%	c #DBD8DC",
"#%	c #DAD6D7",
"$%	c #DFDADE",
"%%	c #BBB9BE",
"&%	c #D2D1D5",
"*%	c #CEC9CE",
"=%	c #BAB7BC",
"-%	c #C0BFC5",
";%	c #C0BEC3",
">%	c #C2BEC2",
",%	c #D3CFD1",
"'%	c #D3CED0",
")%	c #BEBBC1",
"!%	c #929196",
"~%	c #D2CECF",
"{%	c #B8B6B9",
"]%	c #818186",
"^%	c #C8C5CA",
"/%	c #BEBCBE",
"(%	c #D4CFD2",
"_%	c #D7D3D5",
":%	c #CDC9CA",
"<%	c #DDD9DB",
"[%	c #C4C1C7",
"}%	c #CECBD1",
"|%	c #CAC6CA",
"1%	c #D0CDD2",
"2%	c #DBD6D9",
"3%	c #DAD7D8",
"4%	c #DCD7DA",
"5%	c #DBD7DA",
"6%	c #D6D1D5",
"7%	c #D4CFD3",
"8%	c #D4D1D7",
"9%	c #D7D3D6",
"0%	c #D9D4D8",
"a%	c #DFDDE2",
"b%	c #9C9CA0",
"c%	c #D6D2D4",
"d%	c #DBD6DA",
"e%	c #E2DFE5",
"f%	c #CEC9CF",
"g%	c #CCC8CA",
"h%	c #CDC9CC",
"i%	c #D8D5D8",
"j%	c #C2C1C7",
"k%	c #CEC9CC",
"l%	c #CCC7CA",
"m%	c #CCC8C9",
"n%	c #CDCACC",
"o%	c #9E9DA2",
"p%	c #9C9BA0",
"q%	c #C7C3C7",
"r%	c #C5C0C4",
"s%	c #CCC8CE",
"t%	c #CECACE",
"u%	c #CCC7C9",
"v%	c #8E8D91",
"w%	c #B6B3B7",
"x%	c #D6D2D5",
"y%	c #C3BEC4",
"z%	c #C4BFC4",
"A%	c #E0DCDE",
"B%	c #DFDBE0",
"C%	c #C5C1C6",
"D%	c #CAC7C9",
"E%	c #CBC9CF",
"F%	c #C2BFC4",
"G%	c #B8B6BB",
"H%	c #D8D6DC",
"I%	c #8A898D",
"J%	c #A8A7AC",
"K%	c #7C7B80",
"L%	c #737277",
"M%	c #C6C4C9",
"N%	c #908F94",
"O%	c #8B8A8F",
"P%	c #9A999E",
"Q%	c #6F6E72",
"R%	c #99989D",
"S%	c #828186",
"                                                                                        ",
"                                    . + @ #                                             ",
"                                    $ % & * = - ; >   ,                                 ",
"                                ' ) ! ~ { ] ^ / ( _ : < [ } |                           ",
"                    1 2 3 4 5 6 7 8 9 0 a b c d e d f g $ h i j k                       ",
"                    l % m f 0 l n o p l q r s t m u v w x u y z A                       ",
"                1 1 B C D E m % F G H I J K L t { M N O s P { d % Q                     ",
"                1 m R S T U V W a X u Y Z Z `  .E f ..+.s @.C ..#.$.Q Q %.              ",
"                1 &.*.=.-.` ;.>.,.'.).!.~.{.].^.Z /./.(._.0 C t :.<.[.}.|.              ",
"              1.2.3.4.0 9 0 5.6.7.8.9.0.{.a.b.c.d.r /.s e.f.` g.f h.4.&.|.              ",
"            i.j.k.l.z I m.G n.o.p.q.r.s.a.t.u.v.w.x.y.z._.A.Z B.C.D.E.h.k.|.            ",
"          F.G.n.H.^ f I.J.*.K.L.M.N.O.P.Q.R.S.T.U.w.V.W.X.O Y.Z.`. +X .+@.m |.          ",
"          ++{ @+#+4.D.q s $+].%+&+9 *+=+-+;+>+D.&+,+'+)+!+~+M {+]+a #.n.^+X /+          ",
"          (+_+:+<+[+}+|+1+2+3+,.X.#.$ 4+5+6+7+4+8+9+0+a+b+c+ .d+e+f+.+@.x m g+          ",
"          h+! D.i+j+m.k+l+m+n+o+_.2+p+q+        r+s+t+u+;+v+s w+!.b x+U y+d 4.          ",
"          ) 0 g M t I z+A+B+C+D+E+F+G+            H+I+J+&.K+a+L+Z.M+Z N+W.O+_+          ",
"          P+m.n.f C.P ,.7.Q+].T.x 4.R+            S+T+F / U+V+W+X+Y+` N Z+`+/           ",
"           @3.p ^ .@s ^.+@@@#@$@%@&@              *@=@-@0 ! ;@>@,@^.'@)@!@I._+*         ",
"        ~@{@]@^@$ G W./@(@_@:@<@[@}@                k |@}+! =.1@2@3@4@5@6@7@% 0         ",
"        8@9@|@^@< 0@a@b@c@d@T.4@e@f@                  $ G p l g@h@i@j@k@l@% % #.        ",
"        m@n@G $ o@p@q@r@s@x+t@u@9.                    6+v@0 w@t x@y@z@U.A@_+I ]@        ",
"      B@C@~ 0 D@E@F@G@H@I@t@Y+J@K@L@                  M@< a@N@O@Y+@+P@Q@R@] g <         ",
"        l S@T@a@U@w.V@K@1+,.L+W@$.X@                  6+h+Y@f.z.W@W@G v@o 4.Z@`@        ",
"         #4.] A..#+#@#4.a@,@V.T.##                  $#7+%#&#Q+P.*#=#-#v@=+;#Z@^@        ",
"        j g >#,#'#m+)#!#:@w.~#,#{#                  ]#^#3.m.Q./#(#_#:#<#I@(..+m.        ",
"      [#m.@.}#u@I@|#[+<@1#y.u@2#%@                  F.o@D@k.m.$@k+3#4#5#4#{+x S@6#      ",
"      7#F C :+s N@c+8#9#0#a#b#U c#                     @9 d#1+o+e#v._.4#f#g#h#t &@      ",
"      i#^@! @#9.:#E+6@j#k#l#m#U 5.n#                  o#Z@e.z.p#e.6.v.8#q#,#E C r#      ",
"        &@s#G i+t#P.u#x.{.{.6@v#w#/+                  6+p <.q#x#b+y#a+r@z#z.k#C A#      ",
"        - 4 n p s#[+B#w.f#;.C#D#E#F#                  G#n H#N@A.I#J#K#L#..f u Z@i#      ",
"        M#N#3.o@O#P#Q#R#x+2#S#/.'.N#                  T#9 M y+s U#V#d#z.L W#d =.X#      ",
"        Y#4.4.F#9 Z#`#9.5.E+r  $8 q+                  .$$ M w@P +$n+@$$+5##$$$n.%$      ",
"      i.}+0 5.I S@`#q@&$=.k.5#*$=$                    .$k -@-$;$W@>$`#J#,$` k#k#%#      ",
"      $ #.:.O  $'$)$!$-+D@9 r@z@~$                  {$|@-+S ^.q ]$^$/$l+o+,#($0 7       ",
"      _$4.% E+L+:$!$<$H.m.<.I@[$}$|$                1$o ! )#e.>.2$X+3$(#9.~+S@4$        ",
"        < 4./ z.5$s.6$L#>#w J@7$8$8#9$                &@m.}+0$C+8#n.a$[+1+M t k.        ",
"        b$c$I d$]+e$f${+g$!.h$v#x+i$                  j$o k$l$_#m$N#0@&.X _+u 9         ",
"        n$l.F x ,#_.N H@{+/.o$/.g#p$                  &@Z@q$r$4#s$=@t$u$Q+:.I 3.        ",
"          v$3.C ! k.l d#4#e+J@w$` o#                x$#.W.y$z$4#T *+A$4#s 2#`+4.        ",
"        B$C$< p n s#3.l s$Y+D$5$E$F$                %$g G$h.z@]$H$J#)$K U  +t 8         ",
"        I$J$R+K$%$&@s#}+9.t@N@L$M$N$q+              M@3.T@! O$z.U.B#z.t@t u 3.          ",
"              i#s#k.k$P$Q$x+q Y.R$` %@S$            k 3.] T$Q+U$l+P.R#.@M 0             ",
"            X@%#F V$P$W$.+E$X$]+Y$Z$`$ %          P+n#N#C '.o+.%+%a@X S@S@              ",
"            4+H.n.-#m+-._+@%#%L$K !.R$$%%%      ) s#Z@N#&%z#*%=%D@l G u !               ",
"             @-%n ;%}+>%r@H@2$,%'%E$Z$~.+.)%k !%G ! N :.w ~%s.{%n#k.g I o@              ",
"            ]%G }+^%/%F+(%O g$_%:%+$u@<%<%,.[%o@n }%H@c ` V.B#|%j+0 S@S@n               ",
"              -+/ 1%@+x 2%s e+3%,+,+4%5%).s@b+0@A#Z@c+x+o$6%x#7%L+s '@! o               ",
"              G#! 8%.@U O O >.9%w.~%0.+$h# $Z+-@8+)%z@t@W#u#t@0%O a%E+n.b%              ",
"                < k.0 4.F ]$d.x.c%x.x.d%e%(.4#f%P$x@U$g%:%h%i%+.E 0 -@ @                ",
"                j%n H.D@9 5#}$O@#%,+k%5#C.Y+_._#}%<#l%m%n%n%V.C.e 4.##                  ",
"                o%o =@p%o B+]$+.>.y#q%^ ~++.a+r%s%t%{.u%X G$J.m m.v%                    ",
"                  X#X#X#n#^  +w#s |#w%}+@+x%/@y%z%Q$A%B%H##.g M `@                      ",
"                      X# @^ u a%{+(#C%D%I#z.E%F%G%%@H%f k.m.m.n#I%                      ",
"                      X#J%|@$ ]@|@Q.}$'+H$M 4.-+8  @v@^ 7+3.$ K%                        ",
"                        5+7 H+L%4+v@#+&#M%0 n#N%O%q+R+P%5+P+Q%                          ",
"                                I$R%A#k  @S%                                            ",
"                                                                                        ",
"                                                                                        "};
