/* XPM */
static char * 1_xpm[] = {
"44 58 458 2",
"  	c #009AFE",
". 	c #878A8F",
"+ 	c #A9ACB1",
"@ 	c #A8AAB0",
"# 	c #86878C",
"$ 	c #96979C",
"% 	c #A4A4A9",
"& 	c #ABACB1",
"* 	c #C2C2C7",
"= 	c #DEDDE3",
"- 	c #DDDCE2",
"; 	c #CFCED4",
"> 	c #CDCCD1",
", 	c #D6D5DA",
"' 	c #D7D6DC",
") 	c #CACBD0",
"! 	c #C6C6CC",
"~ 	c #97989D",
"{ 	c #85868A",
"] 	c #D6D6DB",
"^ 	c #E3E2E8",
"/ 	c #E0DFE5",
"( 	c #DBDADF",
"_ 	c #D4D3D8",
": 	c #D8D7DC",
"< 	c #E3E1E7",
"[ 	c #E5E4E9",
"} 	c #E4E3E8",
"| 	c #DAD9DF",
"1 	c #ACACB2",
"2 	c #79797D",
"3 	c #D9D8DD",
"4 	c #E2E1E6",
"5 	c #D3D0D6",
"6 	c #D6D2D7",
"7 	c #DFDBE1",
"8 	c #E5E1E7",
"9 	c #E1E0E6",
"0 	c #CBCAD0",
"a 	c #96959B",
"b 	c #D7D6DB",
"c 	c #DEDDE2",
"d 	c #CAC9CE",
"e 	c #D1CCD2",
"f 	c #DCD7DD",
"g 	c #E1DEE4",
"h 	c #E1E0E5",
"i 	c #C0BFC5",
"j 	c #A7A6AC",
"k 	c #C8C7CD",
"l 	c #DDDCE1",
"m 	c #CDCBD0",
"n 	c #D4CFD5",
"o 	c #DAD5DB",
"p 	c #D4D1D7",
"q 	c #D3D2D7",
"r 	c #DAD9DE",
"s 	c #B9B8BE",
"t 	c #A6A5AA",
"u 	c #CCCBD0",
"v 	c #CFCED3",
"w 	c #D5D3D8",
"x 	c #DFDDE2",
"y 	c #DDD8DE",
"z 	c #DBD6DC",
"A 	c #D3CFD5",
"B 	c #D1D0D5",
"C 	c #87868B",
"D 	c #96969B",
"E 	c #9D9CA1",
"F 	c #AFAEB3",
"G 	c #BAB9BE",
"H 	c #C5C4C9",
"I 	c #CECACE",
"J 	c #DCD8DB",
"K 	c #E5E0E6",
"L 	c #E3DEE4",
"M 	c #CCC9CF",
"N 	c #C8C7CC",
"O 	c #DFDEE3",
"P 	c #A09FA4",
"Q 	c #909196",
"R 	c #9D9EA3",
"S 	c #7F8084",
"T 	c #7C7B80",
"U 	c #C2C1C7",
"V 	c #BBBABF",
"W 	c #CAC7CD",
"X 	c #CECACD",
"Y 	c #D3CFD0",
"Z 	c #DCD7DB",
"` 	c #DBD7DC",
" .	c #D3CFD4",
"..	c #CDC8CD",
"+.	c #D0CCD1",
"@.	c #E1DDE3",
"#.	c #E7E6EB",
"$.	c #E5E4EA",
"%.	c #ACABB1",
"&.	c #BEBDC3",
"*.	c #E6E5EA",
"=.	c #CDCCD2",
"-.	c #C4C3C8",
";.	c #D0CFD5",
">.	c #AFAFB3",
",.	c #9C9BA0",
"'.	c #CBCACF",
").	c #CCCBD1",
"!.	c #C7C6CB",
"~.	c #C1C0C5",
"{.	c #D3D1D6",
"].	c #CFCBCE",
"^.	c #D2CED0",
"/.	c #D3CFD3",
"(.	c #D6D1D7",
"_.	c #E3DFE5",
":.	c #C0BFC4",
"<.	c #727277",
"[.	c #C4C3C9",
"}.	c #E3E2E7",
"|.	c #E5E3E8",
"1.	c #E0DFE4",
"2.	c #C9C8CD",
"3.	c #D2D1D6",
"4.	c #D5D4D9",
"5.	c #DCDBE0",
"6.	c #D8D4DA",
"7.	c #D2CDD1",
"8.	c #D1CCD0",
"9.	c #D0CBCF",
"0.	c #D2CED3",
"a.	c #D7D2D8",
"b.	c #D7D3D9",
"c.	c #D8D6DB",
"d.	c #E0DEE3",
"e.	c #B9B8BD",
"f.	c #D3D2D8",
"g.	c #DFDCE1",
"h.	c #E4E0E6",
"i.	c #E2DFE5",
"j.	c #E0DEE4",
"k.	c #CCCACF",
"l.	c #D1CED3",
"m.	c #D5D1D6",
"n.	c #D3CED4",
"o.	c #D1CDCF",
"p.	c #CBC6C8",
"q.	c #CEC9CE",
"r.	c #CDC8CE",
"s.	c #D0CDD3",
"t.	c #E1DFE5",
"u.	c #A9A8AD",
"v.	c #858489",
"w.	c #AEADB3",
"x.	c #DDDBE0",
"y.	c #E2DDE3",
"z.	c #DCD8DE",
"A.	c #D6D4DA",
"B.	c #D2CED4",
"C.	c #D0CED3",
"D.	c #C2BDC3",
"E.	c #C3BEC4",
"F.	c #C6C1C5",
"G.	c #C0BBBF",
"H.	c #CAC5CA",
"I.	c #CAC6C8",
"J.	c #C2BEBF",
"K.	c #C4BFC5",
"L.	c #CCC8CE",
"M.	c #E1DEE3",
"N.	c #E7E5EA",
"O.	c #E4E2E7",
"P.	c #D0CFD4",
"Q.	c #CECDD2",
"R.	c #DAD6DB",
"S.	c #DAD8DD",
"T.	c #CECCD1",
"U.	c #C4C1C6",
"V.	c #B4B1B5",
"W.	c #B1ADB0",
"X.	c #AEAAAD",
"Y.	c #B9B5B7",
"Z.	c #BDB9BA",
"`.	c #B0ACAD",
" +	c #BDBABE",
".+	c #BEBDC2",
"++	c #C5C1C7",
"@+	c #D7D3D8",
"#+	c #E7E2E8",
"$+	c #E6E3E8",
"%+	c #949398",
"&+	c #9A999E",
"*+	c #D8D8DD",
"=+	c #D7D4D9",
"-+	c #DCDADF",
";+	c #C3BFC4",
">+	c #B8B3B6",
",+	c #BDB9BC",
"'+	c #B7B4B7",
")+	c #B6B1B6",
"!+	c #B9B5BB",
"~+	c #BCB7B9",
"{+	c #C0BBBD",
"]+	c #D0CDD0",
"^+	c #D3CED3",
"/+	c #DCD7DC",
"(+	c #B0AFB4",
"_+	c #A9A8AE",
":+	c #D0CFD3",
"<+	c #C8C4CA",
"[+	c #B9B4B9",
"}+	c #C6C1C6",
"|+	c #CBC7CC",
"1+	c #CFCCD2",
"2+	c #C6C2C5",
"3+	c #CFCACE",
"4+	c #D2CFD3",
"5+	c #C6C1C7",
"6+	c #717276",
"7+	c #AAA9AE",
"8+	c #BDBCC1",
"9+	c #CBC9CF",
"0+	c #C9C4CA",
"a+	c #D9D7DC",
"b+	c #DFDAE0",
"c+	c #E0DBE1",
"d+	c #D9D4D8",
"e+	c #D5D0D4",
"f+	c #BFBDC2",
"g+	c #B3B2B7",
"h+	c #A3A4A9",
"i+	c #C9C8CE",
"j+	c #B7B6BB",
"k+	c #ADACB1",
"l+	c #A8A7AC",
"m+	c #A2A1A6",
"n+	c #CDC9CF",
"o+	c #DBD6DA",
"p+	c #DCD8DA",
"q+	c #D6D2D4",
"r+	c #CFCBD1",
"s+	c #CFCDD2",
"t+	c #B5B4B9",
"u+	c #6D6F74",
"v+	c #919095",
"w+	c #8C8B90",
"x+	c #B1B0B5",
"y+	c #807F84",
"z+	c #78787C",
"A+	c #B4B3B7",
"B+	c #B7B6BA",
"C+	c #CFCDD0",
"D+	c #CFCBCF",
"E+	c #C9C5C9",
"F+	c #C6C3C9",
"G+	c #CBC8CD",
"H+	c #C9C4C9",
"I+	c #D9D4DA",
"J+	c #828185",
"K+	c #86858A",
"L+	c #D2D0D5",
"M+	c #CAC8CD",
"N+	c #D0CDD2",
"O+	c #C5C0C5",
"P+	c #C8C4C8",
"Q+	c #DAD6D9",
"R+	c #E0DDE1",
"S+	c #E6E4E9",
"T+	c #9E9DA2",
"U+	c #D5D0D6",
"V+	c #DAD6DC",
"W+	c #D2CDD2",
"X+	c #C9C4C6",
"Y+	c #E2DEE3",
"Z+	c #A4A3A9",
"`+	c #CCC8CC",
" @	c #BEBABD",
".@	c #C9C5CA",
"+@	c #D4D0D5",
"@@	c #DBD9DE",
"#@	c #DEDCE2",
"$@	c #BBBAC0",
"%@	c #D4D4D8",
"&@	c #D2CDD3",
"*@	c #D8D3D8",
"=@	c #C7C2C5",
"-@	c #C3BFC3",
";@	c #CAC6CC",
">@	c #D0CBD1",
",@	c #9F9EA2",
"'@	c #9A9A9F",
")@	c #C7C2C4",
"!@	c #D1CDD0",
"~@	c #C5C1C5",
"{@	c #C0BBC0",
"]@	c #C7C3C9",
"^@	c #CBC9CE",
"/@	c #B6B5BA",
"(@	c #C4C1C7",
"_@	c #C3BFC0",
":@	c #BFBBBF",
"<@	c #C5C0C6",
"[@	c #DAD7DC",
"}@	c #DEDCE1",
"|@	c #B5B5BA",
"1@	c #CBC6CC",
"2@	c #C2BEC1",
"3@	c #BDB8BA",
"4@	c #C7C2C8",
"5@	c #CEC9CF",
"6@	c #DDD9DF",
"7@	c #9F9EA3",
"8@	c #A2A3A8",
"9@	c #C3C2C7",
"0@	c #CFCCD1",
"a@	c #D9D4D9",
"b@	c #C8C3C9",
"c@	c #BCB7BC",
"d@	c #C6C2C7",
"e@	c #DCD8DD",
"f@	c #8B8C91",
"g@	c #D4D1D6",
"h@	c #C4C0C6",
"i@	c #BBB7BD",
"j@	c #C9C7CD",
"k@	c #D4D0D6",
"l@	c #B2B1B6",
"m@	c #C8C6CB",
"n@	c #C0BCC2",
"o@	c #BAB5BB",
"p@	c #D7D4DA",
"q@	c #DBD7DD",
"r@	c #DDDADF",
"s@	c #BCBBC0",
"t@	c #A5A4A9",
"u@	c #C7C4CA",
"v@	c #BFBDC1",
"w@	c #B8B4B7",
"x@	c #CECBD0",
"y@	c #B4B0B2",
"z@	c #BCB8BB",
"A@	c #DAD7DD",
"B@	c #608DCA",
"C@	c #97969B",
"D@	c #E0DCE1",
"E@	c #D8D3D9",
"F@	c #BAB6B8",
"G@	c #B5B4BA",
"H@	c #D7D5DA",
"I@	c #E1DFE4",
"J@	c #D6D2D5",
"K@	c #CCC7CC",
"L@	c #C7C3C6",
"M@	c #CAC6CB",
"N@	c #E1DCE2",
"O@	c #E4E1E7",
"P@	c #AEADB2",
"Q@	c #85868B",
"R@	c #C7C6CC",
"S@	c #D5D1D4",
"T@	c #C8C5C8",
"U@	c #D6D1D6",
"V@	c #94959A",
"W@	c #C9C4C7",
"X@	c #CAC6C9",
"Y@	c #CAC8CC",
"Z@	c #D0CBD0",
"`@	c #B7B6BC",
" #	c #888A8F",
".#	c #C3C2C8",
"+#	c #D3D3D8",
"@#	c #CFCACF",
"##	c #C3BFC2",
"$#	c #C9C5C8",
"%#	c #D1CCD1",
"&#	c #8C8B8F",
"*#	c #B8B7BD",
"=#	c #D0D0D5",
"-#	c #D7D2D7",
";#	c #D2CDD0",
">#	c #D4D0D3",
",#	c #D4CFD2",
"'#	c #CECAD0",
")#	c #7D7D81",
"!#	c #B7B7BC",
"~#	c #CDC9CD",
"{#	c #DED9DF",
"]#	c #D5D1D7",
"^#	c #8D8C91",
"/#	c #E0DDE3",
"(#	c #CCC7CA",
"_#	c #D9D5DB",
":#	c #DAD5DA",
"<#	c #E5E3E9",
"[#	c #A5A5AA",
"}#	c #CDCACB",
"|#	c #E2DEE4",
"1#	c #E0DCE2",
"2#	c #E3E0E5",
"3#	c #7F7F84",
"4#	c #BABABF",
"5#	c #D8D5DA",
"6#	c #CAC5CB",
"7#	c #D5D2D7",
"8#	c #D2D1D5",
"9#	c #A9AAB0",
"0#	c #C4C1C4",
"a#	c #CECACF",
"b#	c #C2C1C5",
"c#	c #848388",
"d#	c #8C8D93",
"e#	c #C6C5CB",
"f#	c #D8D4D8",
"g#	c #96959A",
"h#	c #77797E",
"i#	c #DCD9DE",
"j#	c #D5D2D4",
"k#	c #DDD8DD",
"l#	c #A3A2A7",
"m#	c #AFAFB5",
"n#	c #D1CDD3",
"o#	c #D8D5D9",
"p#	c #DED9DE",
"q#	c #E5E2E7",
"r#	c #7F8186",
"s#	c #DFDADE",
"t#	c #B5B6BB",
"u#	c #C4C4C9",
"v#	c #C6C5CA",
"w#	c #D4D2D7",
"x#	c #DDD9DE",
"y#	c #E5E1E6",
"z#	c #C2C1C6",
"A#	c #1899FC",
"B#	c #B0B0B5",
"C#	c #C9C6CA",
"D#	c #CBC7C8",
"E#	c #D4D0D4",
"F#	c #E2E0E5",
"G#	c #4B94F0",
"H#	c #C1C0C6",
"I#	c #C8C3C5",
"J#	c #CDC8CC",
"K#	c #E6E4EA",
"L#	c #939298",
"M#	c #A8A8AD",
"N#	c #E3DFE4",
"O#	c #89888C",
"P#	c #A1A0A6",
"Q#	c #9B9A9F",
"R#	c #C6C4C9",
"S#	c #8E8D92",
"T#	c #959499",
"U#	c #939297",
"V#	c #6D6C71",
"W#	c #B4B3B8",
"X#	c #A1A0A5",
"Y#	c #8B8B8F",
"                                                                                        ",
"                                                                                        ",
"                                              . + @ # $ % &                             ",
"                                              * = - ; > , ' ) ! ~                       ",
"                                            { ] ^ / ( _ : < [ } | 1                     ",
"                                            2 3 4 ( 5 6 7 8 [ 4 9 0                     ",
"                                            a b c _ d e f g c h 4 i                     ",
"                                        j k , 3 l _ m n o p q r r s                     ",
"                                        t u v w x x y z A d B 3 ; C                     ",
"                                    D E F G H I J K L o M N ( 4 O P                     ",
"                  Q & R ~ S { T     U N V V W X Y Z `  ...+.@.#.$.%.                    ",
"                  &.*.| =.-.;.d >.,.'.).!.~.{. .].^. .5 /.(._.*.*.:.                    ",
"                <.[.}.|.4 l 1.h ( v 2.3.b 4.5.6.7.8.9.0.a.b.c.d.}.e.                    ",
"                :.f.3 g.h.7 i.8 j.4.k._ v l.m.n. .o.p.q.r.s.3 t.O u.                    ",
"                v.w.v , x.z f y.z.A.B.C.D.E.F.G.H.I.J.E.K.L.M.N.O.e.                    ",
"                  D P.Q.'.0.6 R.S.r 3.T.U.V.W.X.Y.Z.`. +.+++@+#+$+( %+                  ",
"                &+*+5.B P.=+@+-+d.w ;+>+,+'+)+!+~+{+]+4._ m H.^+/+-+(+                  ",
"                _+l l :+T.d k.k.q m <+[+}+|+C.1+2+3+4+r 3.M 5+5+p 2.u.                  ",
"                6+).b !..+.+V F 7+8+9+0+(.a+b+c+d+e+ .C.u P.V f+B g+                    ",
"                  h+i+j+k+V j+l+m+7+.+n+ .1+o+p+q+|+5 k.r+s+2.!.q t+                    ",
"                  u+v+w+D u.x+t y+  z+P A+B+C+D+E+F+N G+H+I+x.l O i                     ",
"                            D J+      K+v.k+3.L+M+k.N+O+P+Q+R+S+[ i+                    ",
"                                          T+> C.l.U+V+W+J.X+^+Y+|._ Z+                  ",
"                                          u.4.=+6 a.I+`+ @.@+@@@#@1.$@                  ",
"                                          (+'.%@&@*@a.=@-@;@>@P.5.h ,@                  ",
"                                          '@v _ G+)@!@~@{@]@^@3.3 3.                    ",
"                                          /@3 : (@_@J.:@<@0+N+3.[@}@_+                  ",
"                                          |@u u 1@o.2@3@4@5@(.b.6@j.7@                  ",
"                                          8@9@0@U+a@b@c@d@r+I+e@b 2.%+                  ",
"                                          f@V N P.g@h@i@j@k@R.b.L+l@                    ",
"                                            j+N 2.m@n@o@^@p@q@r@3 s@                    ",
"                                          t@!.L+3.u@v@w@x@l 1.4 O.B                     ",
"                                          t+4.p@6@p W y@z@_ A@} |..+B@                  ",
"                                          C@v y y.D@E@F@ @d z @.[ q t                   ",
"                                          G@> H@6@I@J@K@L@M@V+N@O@O P@                  ",
"                                        Q@R@u s+, x S@^+3 T@U@@.}.0                     ",
"                                        V@i Q.2.G+A W@X@b Y@Z@V+O `@                    ",
"                                         #.#: +#n @#I ##+.$#%#S.l &#                    ",
"                                          *#d =#-#;#>#,#&@H.'#( q )#                    ",
"                                          !#d 4.-#~#[@{#z e ]#I@3 ^#                    ",
"                                        D 0 b /#E@(#_#E@:#(.=+O.<#, ,.                  ",
"                                        [#3.H@1.@@}#=+D+*@g@a+|#1#2#2.                  ",
"                                        3#4#m : 5#].C.6#k@7#c.P.8#M+T+                  ",
"                                          9#-._ {.K@0#a#: V+7#b#g+c#                    ",
"                                          d#e#P.v $#X@+.3 f#]#u 2.g#                    ",
"                                          h#R@, b >@o f i#j#k#i#v l#                    ",
"                                            m#'.N n#f |#i#o#p#q#} s@                    ",
"                                          r#G@s@s@'.b.g I@z s#8 |.B                     ",
"                                          t#u#v#:.-.w#i#x x#y.y#S+z#            A#      ",
"                                          B#> P.d v#C#D#&@E#y F#*.m+            G#      ",
"                                          $@H#P.> M+I#J#g@/.7#K##.V           A#        ",
"                                        L#M#e.2.> r+>#~#b 3 w }.l 7+                    ",
"                                          D *#G z#a.N#{#{.b _ c q O#                    ",
"                                          y+P#Q#u.R#: r R#_ d q > Q#                    ",
"                                              g#S#l+:.'.F 9@e.> u (+                    ",
"                                                    P T#c#U#V#W#X#                      ",
"                                                              Y#O#                      ",
"                                                                                        "};
