/* XPM */
static char * 2_xpm[] = {
"44 58 473 2",
"  	c #009AFE",
". 	c #388FE3",
"+ 	c #A1A1A6",
"@ 	c #ACACB1",
"# 	c #A4A4A9",
"$ 	c #BFBEC4",
"% 	c #D4D4D9",
"& 	c #D3D2D8",
"* 	c #7C7C81",
"= 	c #797A7E",
"- 	c #2B81CE",
"; 	c #7A7A7E",
"> 	c #B1B0B5",
", 	c #DAD9DE",
"' 	c #DDDCE2",
") 	c #DCDBE0",
"! 	c #B2B1B6",
"~ 	c #AFAEB3",
"{ 	c #C5C4CA",
"] 	c #CBCBD0",
"^ 	c #B9B9BE",
"/ 	c #99999D",
"( 	c #A6A6AC",
"_ 	c #BCBCC1",
": 	c #BAB9BF",
"< 	c #A0A0A5",
"[ 	c #8E8E92",
"} 	c #949498",
"| 	c #98979C",
"1 	c #939297",
"2 	c #BFBEC3",
"3 	c #D0CFD4",
"4 	c #D4D4D8",
"5 	c #E0DFE3",
"6 	c #D9D8DC",
"7 	c #D9D8DD",
"8 	c #DEDDE2",
"9 	c #E4E3E8",
"0 	c #E2E1E6",
"a 	c #D2D1D6",
"b 	c #B3B2B7",
"c 	c #919095",
"d 	c #B2B2B6",
"e 	c #B6B7BC",
"f 	c #B8B8BD",
"g 	c #B7B6BB",
"h 	c #DBDADF",
"i 	c #E1E0E5",
"j 	c #D4D3D8",
"k 	c #C8C7CC",
"l 	c #BAB9BE",
"m 	c #B8B7BC",
"n 	c #B6B5BA",
"o 	c #C5C4C8",
"p 	c #D3D3D5",
"q 	c #E2E0E3",
"r 	c #E1DFE2",
"s 	c #DFDEE1",
"t 	c #E0DFE4",
"u 	c #DEDDE1",
"v 	c #D8D7DA",
"w 	c #D1D1D4",
"x 	c #D6D5DA",
"y 	c #D8D7DC",
"z 	c #D5D4D9",
"A 	c #B9B8BD",
"B 	c #ACABB0",
"C 	c #D7D6DB",
"D 	c #E3E2E7",
"E 	c #E1E1E4",
"F 	c #DFDEE3",
"G 	c #CECDD2",
"H 	c #C0BFC4",
"I 	c #BBBABF",
"J 	c #CCCCD0",
"K 	c #D3D1D4",
"L 	c #DBD9DC",
"M 	c #D9D8DA",
"N 	c #DDDCE0",
"O 	c #DEDEE0",
"P 	c #D1D1D3",
"Q 	c #D4D3D5",
"R 	c #DBDADD",
"S 	c #E2E2E6",
"T 	c #D4D3D9",
"U 	c #88878C",
"V 	c #C3C2C7",
"W 	c #DAD9DC",
"X 	c #E0DFE1",
"Y 	c #DDDCE1",
"Z 	c #D0CFD3",
"` 	c #DEDCDF",
" .	c #DCDADD",
"..	c #DCDADE",
"+.	c #DEDDDF",
"@.	c #D4D4D6",
"#.	c #D6D5D8",
"$.	c #DAD8DB",
"%.	c #DDDBDE",
"&.	c #DAD8DC",
"*.	c #DCDBDF",
"=.	c #DFDEE2",
"-.	c #8C8C90",
";.	c #A5A4A9",
">.	c #C9C8CB",
",.	c #DBDADC",
"'.	c #DFDDE0",
").	c #D7D6D8",
"!.	c #DAD9DB",
"~.	c #E2E1E4",
"{.	c #D9D7DA",
"].	c #D5D3D6",
"^.	c #E0DEE1",
"/.	c #DFDEE0",
"(.	c #D2D0D3",
"_.	c #D0D0D2",
":.	c #D6D6D8",
"<.	c #D3D2D7",
"[.	c #A3A2A7",
"}.	c #8C8B91",
"|.	c #9F9EA4",
"1.	c #ABAAAF",
"2.	c #B5B4B9",
"3.	c #C6C6C9",
"4.	c #D2D1D4",
"5.	c #D6D4D7",
"6.	c #D3D1D3",
"7.	c #D0CED1",
"8.	c #D0CED0",
"9.	c #C6C4C6",
"0.	c #CAC8CB",
"a.	c #E4E2E5",
"b.	c #C8C6C9",
"c.	c #DCDCDE",
"d.	c #E0DFE2",
"e.	c #BEBDC2",
"f.	c #C5C4C9",
"g.	c #D1D0D5",
"h.	c #CACACD",
"i.	c #C4C4C6",
"j.	c #D0CFD1",
"k.	c #CFCED0",
"l.	c #C2C0C2",
"m.	c #B6B4B7",
"n.	c #BDBBBE",
"o.	c #D1CFD2",
"p.	c #B8B6B9",
"q.	c #C9C7CA",
"r.	c #CFCDCF",
"s.	c #D4D2D3",
"t.	c #DEDCDE",
"u.	c #CCCACD",
"v.	c #D4D2D5",
"w.	c #E5E4E9",
"x.	c #DBDAE0",
"y.	c #CFCED2",
"z.	c #CDCCD0",
"A.	c #D8D6DB",
"B.	c #E2E1E5",
"C.	c #D7D6D9",
"D.	c #C8C7CA",
"E.	c #CBCACD",
"F.	c #BAB8BB",
"G.	c #A8A7A9",
"H.	c #B4B2B5",
"I.	c #BDBBBD",
"J.	c #BEBCBF",
"K.	c #CECCCE",
"L.	c #CAC8CA",
"M.	c #D1CFD0",
"N.	c #D8D6D9",
"O.	c #E2E0E4",
"P.	c #E6E5E8",
"Q.	c #E4E3E6",
"R.	c #D7D5D8",
"S.	c #D5D4D7",
"T.	c #CCCBD0",
"U.	c #A3A2A6",
"V.	c #D5D4D8",
"W.	c #CECDD0",
"X.	c #CDCCCF",
"Y.	c #D5D4D6",
"Z.	c #E1E0E2",
"`.	c #C5C3C6",
" +	c #B8B8BA",
".+	c #CDCCCE",
"++	c #CBCACC",
"@+	c #C4C2C5",
"#+	c #D6D5D7",
"$+	c #CECCCF",
"%+	c #CFCDCE",
"&+	c #DDDCDF",
"*+	c #CFCDD0",
"=+	c #CECED0",
"-+	c #CDCBCE",
";+	c #D2D2D4",
">+	c #C5C5C7",
",+	c #BAB9BB",
"'+	c #BFBEC1",
")+	c #C0BFC2",
"!+	c #CCCACC",
"~+	c #CBC9CC",
"{+	c #D9D9DB",
"]+	c #D1D0D1",
"^+	c #CBC9CD",
"/+	c #E3E2E6",
"(+	c #ADADB3",
"_+	c #CDCDD0",
":+	c #BDBCBF",
"<+	c #C2C1C4",
"[+	c #CBC9CB",
"}+	c #C6C6C8",
"|+	c #C1C0C1",
"1+	c #C7C5C8",
"2+	c #D8D8DA",
"3+	c #A8A7AC",
"4+	c #CDCCD1",
"5+	c #C5C4C7",
"6+	c #BBB9BB",
"7+	c #C0BEC1",
"8+	c #BFBDC0",
"9+	c #C5C3C5",
"0+	c #C9C8CA",
"a+	c #A3A6B0",
"b+	c #B2B0B3",
"c+	c #BCBABD",
"d+	c #D9D8DB",
"e+	c #E1E0E4",
"f+	c #DADADE",
"g+	c #959499",
"h+	c #D5D5D7",
"i+	c #D5D5D8",
"j+	c #E0DEE2",
"k+	c #CAC9CB",
"l+	c #ADACAE",
"m+	c #BCBCBF",
"n+	c #E1DFE3",
"o+	c #C6C4C7",
"p+	c #DEDDE0",
"q+	c #98979B",
"r+	c #C2C1C6",
"s+	c #CBCBCD",
"t+	c #D4D3D7",
"u+	c #DDDBDF",
"v+	c #D4D3D6",
"w+	c #BDBCC0",
"x+	c #BCBCC0",
"y+	c #BBBABC",
"z+	c #B7B5B8",
"A+	c #939397",
"B+	c #BDBCC1",
"C+	c #BDBDBF",
"D+	c #C3C3C5",
"E+	c #BBBABD",
"F+	c #B2B2B4",
"G+	c #BABABD",
"H+	c #B6B6B8",
"I+	c #AAA9AB",
"J+	c #B3B1B3",
"K+	c #E5E3E6",
"L+	c #DBD9DE",
"M+	c #6F98D2",
"N+	c #AAADB8",
"O+	c #B1B3BD",
"P+	c #B5B4B7",
"Q+	c #CECDCF",
"R+	c #B9B7BA",
"S+	c #C3C2C4",
"T+	c #5299E9",
"U+	c #AAA9AC",
"V+	c #BBBBBD",
"W+	c #C2C2C4",
"X+	c #B3B1B2",
"Y+	c #B9B7B9",
"Z+	c #E4E2E6",
"`+	c #4C99EB",
" @	c #ADACB1",
".@	c #A7ACBD",
"+@	c #ACABAF",
"@@	c #C2C1C3",
"#@	c #C7C6C9",
"$@	c #BAB9BD",
"%@	c #C2C2C3",
"&@	c #D3D2D5",
"*@	c #BFBDBF",
"=@	c #AEACAE",
"-@	c #BBB9BC",
";@	c #C9C7C9",
">@	c #DCDBDD",
",@	c #019AFE",
"'@	c #2C9CFC",
")@	c #A9B4CE",
"!@	c #ADAEB2",
"~@	c #ADADAF",
"{@	c #109BFE",
"]@	c #A0A0A4",
"^@	c #BCBCBE",
"/@	c #CAC9CC",
"(@	c #CFCED3",
"_@	c #A9A8AC",
":@	c #2D9CFB",
"<@	c #A6ACBB",
"[@	c #A2A2A4",
"}@	c #BFBFC1",
"|@	c #259CFD",
"1@	c #B9B9BA",
"2@	c #BEBDBF",
"3@	c #C4C3C6",
"4@	c #519FF3",
"5@	c #249CFD",
"6@	c #9AA9C7",
"7@	c #A3A6AE",
"8@	c #B4B4B6",
"9@	c #C6C5C9",
"0@	c #C1C5D3",
"a@	c #CFCED4",
"b@	c #C1C0C3",
"c@	c #C1C1C3",
"d@	c #BABABC",
"e@	c #C7C7CA",
"f@	c #C4C3C7",
"g@	c #C7C6C8",
"h@	c #D2D1D3",
"i@	c #D7D7D9",
"j@	c #C9C9CD",
"k@	c #B8B8BC",
"l@	c #C0C0C2",
"m@	c #C2C0C3",
"n@	c #C3C1C3",
"o@	c #D2D0D2",
"p@	c #BCBBC0",
"q@	c #C6C5CA",
"r@	c #C9C9CC",
"s@	c #CFCED1",
"t@	c #3F97ED",
"u@	c #D2D1D5",
"v@	c #D0D0D3",
"w@	c #D0CFD2",
"x@	c #C1BFC2",
"y@	c #C8C7CB",
"z@	c #CCCBCE",
"A@	c #C9C9CB",
"B@	c #C5C5C8",
"C@	c #C4C3C8",
"D@	c #D2D2D5",
"E@	c #CDCDCF",
"F@	c #BCBBBE",
"G@	c #B5B3B6",
"H@	c #C6C5C8",
"I@	c #DBD9DD",
"J@	c #C7C7C9",
"K@	c #C8C8CA",
"L@	c #B6B4B6",
"M@	c #D9D9DC",
"N@	c #C2C1C5",
"O@	c #AFADAF",
"P@	c #CFCFD1",
"Q@	c #D3D2D4",
"R@	c #ADABAC",
"S@	c #D3D2D6",
"T@	c #C8C7C9",
"U@	c #CACACC",
"V@	c #D1D0D3",
"W@	c #5E9FED",
"X@	c #DDDCDE",
"Y@	c #DDDBDD",
"Z@	c #BEBEC0",
"`@	c #CBCBCF",
" #	c #B4B3B7",
".#	c #CBCACF",
"+#	c #E4E3E7",
"@#	c #D8D7D9",
"##	c #C6C5C7",
"$#	c #B2B1B4",
"%#	c #A4A4A7",
"&#	c #CFCFD2",
"*#	c #AEAEB0",
"=#	c #529AE9",
"-#	c #D0CFD5",
";#	c #C6C4C5",
">#	c #B4B3B8",
",#	c #C4C2C4",
"'#	c #C5C4C6",
")#	c #3B9DFC",
"!#	c #C7C6CB",
"~#	c #C1C1C4",
"{#	c #CDCBCC",
"]#	c #C8C6C7",
"^#	c #D1D0D2",
"/#	c #A7A7AA",
"(#	c #C9C8CD",
"_#	c #2098FB",
":#	c #B0AFB2",
"<#	c #A8A8AA",
"[#	c #9A999E",
"}#	c #9D9CA0",
"|#	c #ABABAD",
"1#	c #DFDDE1",
"2#	c #E3E3E6",
"3#	c #BCBBBD",
"4#	c #DFDFE1",
"5#	c #C2C2C5",
"6#	c #D0D0D4",
"7#	c #E5E4E8",
"8#	c #E6E5EA",
"9#	c #E1E0E3",
"0#	c #C6C5CB",
"a#	c #C1C0C5",
"b#	c #E3E2E5",
"c#	c #E4E2E7",
"d#	c #DCDBDE",
"e#	c #BFBFC4",
"f#	c #B5B3B5",
"g#	c #C1BFC1",
"h#	c #D5D4D5",
"i#	c #D9D7D9",
"j#	c #E3E1E4",
"k#	c #BFBFC3",
"l#	c #BDBEC3",
"m#	c #D7D7DB",
"n#	c #DBDADE",
"o#	c #BAB8BA",
"p#	c #CAC8C9",
"q#	c #E0DEE0",
"r#	c #D6D5D9",
"s#	c #D6D4D8",
"t#	c #D8D6D8",
"u#	c #D1CFD1",
"v#	c #C4C2C3",
"w#	c #BAB8B9",
"x#	c #D5D3D5",
"y#	c #C0BEC0",
"z#	c #DEDCE1",
"A#	c #CECDD1",
"B#	c #C1BFC0",
"C#	c #DBD9DB",
"D#	c #BCBBBF",
"E#	c #C9C8CC",
"F#	c #C4C3C5",
"G#	c #C8C6C8",
"H#	c #CBC9CA",
"I#	c #99AFD5",
"J#	c #CCCBCF",
"K#	c #B7B6B8",
"L#	c #B1B0B1",
"M#	c #D6D4D6",
"N#	c #CDCBCD",
"O#	c #CECCCD",
"P#	c #C3C1C4",
"Q#	c #DADADC",
"R#	c #469EF6",
"S#	c #C2C2C6",
"T#	c #B7B5B7",
"U#	c #DAD8DA",
"V#	c #65A2EE",
"W#	c #D1D0D4",
"X#	c #D7D6DA",
"Y#	c #D8D7DB",
"Z#	c #D0CDD0",
"`#	c #DEDEE1",
" $	c #ACACAE",
".$	c #D0CED2",
"+$	c #B8BAC4",
"@$	c #CAC9CD",
"#$	c #CAC9CE",
"$$	c #BAB9BC",
"%$	c #C0C0C3",
"&$	c #D3D1D5",
"*$	c #B8BCC5",
"=$	c #B7B7BA",
"-$	c #BBBBBE",
";$	c #C0BFC3",
">$	c #AFB9D2",
"                                                                                        ",
"                                  .   + @                                               ",
"                                  # $ % & *   =                                         ",
"                              - ; > , ' ) ! ~ { ] ^ / (                                 ",
"                  _ : < [ } | 1 | 2 3 4 5 6 7 8 9 0 a b c d e f                         ",
"                  g h i j k l m ~ n o p q r s t 0 u v w x y x z A                       ",
"                  B C D E F , G H I J K L L M N O P Q R s S 0 t T                       ",
"                  U V W X q t Y Z 3 Y `  . ...O +.@.#.$.%.&.*.=.y ~                     ",
"                  -.;.>.,.'.` L ).!.~.r  .{.].L ^./.%.{.(._.:. .C <.[.                  ",
"            c }.|.1.2.3.4.5.5.6.7.(.'.` 8.9.0.6.'.a.'.5.b._.c.q d.7 e.2 m               ",
"          3 <.f.g g.z h.i.j.k.l.m.n.o.7.l.p.q.r.s.t.%.7.u.v.~.w.0 ) z 7 )               ",
"          x.<.y.z.A.B.C.D.E._.F.G.H.b.9.I.J.o.K.L.M.(.(.K N.O.P.Q.R.S.8 i T.            ",
"        U.t V.W.X.Y.Z.'.(.u.j.`. +F.`..+++@+#+K $+%+o.(.{.$.W '. .v.(.N.u ) G           ",
"        B &+M *+++=+K R.v.-+o.v.;+>+`.,+i.'+)+W.*+$+!+~+(.#.{+N.]+S.^+o.%./+Y           ",
"        (+_+v.0.:+<+@+[+$+`.~+5.5.}+            ,+|+9.@+1+K q ` %.2+(.5.%./+)           ",
"        3+4+p E.W.j 5+6+7+8+9+(.-+0+                a+b+c+u.` q a.` ].(.d+e+f+          ",
"        g+<.h+i+N j+v 8+b.-+*+).k+                    l+m+7+`.v.n+'.v.o+#+p+g.          ",
"        q+r+s+t+u+r ` [+[+~+*+v+k+                    w+x+y+z+c+K N.W Z {.a.g.          ",
"        A+n B+C+D+:.5.8+z+p.<+E+                      F+G+H+I+J+q.o.L v ` K+L+A         ",
"        M+N+O+! P+W.Q+R+P+S+b.8+T+                    U+V+W+ +X+Y+7+r.].r Z+5 4+        ",
"        `+ @.@ @+@ +@@#@) ) ) )                       $@%@++&@*@=@-@;@s.$.>@) 4+        ",
"        ,@'@ @)@!@~@i.) ) ) ) {@                      ]@^@S.Z.K /@4.X.[+4.#.(@_@        ",
"          ,@:@ @<@[@}@) ) ) |@                        < 1@k+o.{.%.v.>+2@3@4.f.          ",
"                    [@) 4@5@,@                      6@7@ +k+o.v+R.].<+8@^@9@b           ",
"                                                  0@a@b@S+-+b./@7.(.c@d@}+e@            ",
"                                                  f@P c@`.@@@+g@`.-+-+h@i@j@            ",
"                                                k@l@>+S+m@#@E.1+n@o@].].S.2             ",
"                                            p@q@r@~+7+8+q.s@v.-+!+(.v.R.N x t@          ",
"                                          2.u@v@w@o.x@c+o+j.#+7.Q+-+7.h@h+9@            ",
"                                          y@z@A@=+w@x@R+0+*+o.u.g@D+B@z@C@              ",
"                                    7 z D@l@c@@+W.E@F@G@D.K *+(.H@'+                    ",
"                                C@I@e+R h@J@K@-+-+b@G@L@E.M@$.{.~+N@                    ",
"                                4+2+c.L %.).(.v.R.q.c+O@<+d+&+a.P@                      ",
"                              I G Z W.s@W Q@K $.'.{.~+R@m.A@#+'.S@                      ",
"                            e.4+j v+s@T@P@`.8.{.'.'.*+7+m@U@p V@a                       ",
"                        W@r+4+C y K q.5+@+T@!+R.X@Y@K.u.j.Z@`@ #                        ",
"                    l C 8 t+U@E@s@=+T@-+~+q.-+0.K (.x@J@j  @                            ",
"                  .#i 9 +#@#E.##m@,+-@~+~+S.d+K ].1+$#%#e.                              ",
"                  7 *.!.s $.(.*+o+@+-@L@R+>+&#4.5.*#=#                                  ",
"                  -#g.;+R ].7.o.;#s@++8+R+R+`._.}@                                      ",
",@              l C@4+&#M K [+;#!+ .v 0.x@o+K P@                                        ",
",@              >#A k /@K (.,#;#o@!.M b.1+Q+++'#                                        ",
")#            b { !#~#5+W R.{#]#^#N.(.m@d@G+i./#        @+T@      (#f.H                 ",
"_#          g a@G }+}+#.O '.K.T@_.i@L.:#<#[#}#[@|#0+v.1#2#$.3#  H+4#B., T.              ",
"          $ 4+3 5#>+q.6#{+v.x@y+=+N.6.1+'#K@4.7.(.%.q 7#8#9#v+E+X.d+D D 8 r+            ",
"          0#!#a#)+S+<+i.^#(.8+=@o+{.L %.$.'.` L '.^.a.b#c#r ^.v+R.d#B.D Y ) x           ",
"          e#3 y@D.J.:+-+(.N.-+f#g##.].{.{.` %.h#i#$.` +#e+` j#q i e+D 9 0 0 0 k#        ",
"          l#C m#*+-+n#C.N.$.(.1+o#@+x@-+N.N.].;@p#o.N.j#~.%.^.q#r d.'.q i i i y         ",
"          _ 3 r#S.s#&+%.{.t#u#v#w#m@,#8.R.x#u#;#y#1+v.^./+` ` i#` %.{.` r z#C 3         ",
"          m r+w U@A#^#Q C.o.K.9.B#,#L.R.%.C#o.[+1+`.L.8.8.6. .L L K o.{.'.&+D@9@        ",
"      B e.D#r+&#l@A@E#F#$+*+7.r.p#G#u.L Z.$.*+*+u.b.H#K.r.p#K ^.6 *+K ].R.M z 3 I#      ",
"      3 j }+J#Z U@>+K#L#x@v.N.M#K.@+T@Q@R K g#0.u.N#O#u#v 5.N.>@~+P#7.#+Q#>@Y Y R#      ",
"      j Y s@(@S#D.i.T#8+0.$. . .&@n.-@Z v.$+2@-@1+i#U#K ^#Q {.C.V#  W#X#:.Y#, (#        ",
"        2 a#G V+3@u.$+(.Z#{.`#u+;+n.-@#@u.U@ $  8@++X#P@}@=+b..$+$  @$G 6#f.H           ",
"          >#e.I r+o 5#i.Z@5+#$$$d@A@q.7.(.%$        H a#  ^@<+&$*$                      ",
"                                    =$-$;$                    >$                        ",
"                                                                                        ",
"                                                                                        "};
