/* XPM */
static char * 3_xpm[] = {
"44 58 392 2",
"  	c #009AFE",
". 	c #AAAAAC",
"+ 	c #99999B",
"@ 	c #2E9AF7",
"# 	c #7E7E80",
"$ 	c #BABABC",
"% 	c #D3D3D5",
"& 	c #B8B8BA",
"* 	c #ABAEB8",
"= 	c #AFB2B8",
"- 	c #B4B7C0",
"; 	c #ADB0B8",
"> 	c #A7ABB5",
", 	c #319AF7",
"' 	c #6C6C6E",
") 	c #7F7F81",
"! 	c #8C8C8E",
"~ 	c #D4D4D6",
"{ 	c #DCDCDE",
"] 	c #C6C6C8",
"^ 	c #CBCBCC",
"/ 	c #CDCDCF",
"( 	c #CECECF",
"_ 	c #CFCFD1",
": 	c #BCBCBE",
"< 	c #9D9D9F",
"[ 	c #A3A3A6",
"} 	c #BBBBBC",
"| 	c #BDBDC0",
"1 	c #A6A5AA",
"2 	c #8E8D92",
"3 	c #99989D",
"4 	c #A6A6AB",
"5 	c #8C8D8F",
"6 	c #B7B8B9",
"7 	c #C2C2C4",
"8 	c #D4D5D7",
"9 	c #D5D5D7",
"0 	c #DBDBDD",
"a 	c #D9D9DB",
"b 	c #D8D8DA",
"c 	c #AFAEB3",
"d 	c #959499",
"e 	c #ACABB0",
"f 	c #A9A8AD",
"g 	c #ADACB1",
"h 	c #B5B5B6",
"i 	c #DEDDE1",
"j 	c #E1E0E7",
"k 	c #D4D3D9",
"l 	c #C7C6CC",
"m 	c #BCBBC1",
"n 	c #BCBCC1",
"o 	c #CDCECF",
"p 	c #D8D9DB",
"q 	c #D1D2D4",
"r 	c #DFE0E2",
"s 	c #E0E0E2",
"t 	c #DDDDDF",
"u 	c #E1E1E3",
"v 	c #DCDBDE",
"w 	c #D4D3D7",
"x 	c #D4D3DA",
"y 	c #D6D5DC",
"z 	c #D3D2D8",
"A 	c #D0CFD4",
"B 	c #969698",
"C 	c #9499A5",
"D 	c #89A4D0",
"E 	c #B1B1B3",
"F 	c #D8D7DB",
"G 	c #E4E3E9",
"H 	c #E1E0E5",
"I 	c #DFDEE3",
"J 	c #DAD9DE",
"K 	c #D0D0D3",
"L 	c #CFD0D1",
"M 	c #D7D7D9",
"N 	c #D9DADC",
"O 	c #DBD9DC",
"P 	c #DEDDDF",
"Q 	c #D9D8DA",
"R 	c #D2D0D3",
"S 	c #D9D7DB",
"T 	c #DDDCE1",
"U 	c #DFDEE4",
"V 	c #E2E1E6",
"W 	c #C4C4C6",
"X 	c #9BA6BD",
"Y 	c #C5C6CF",
"Z 	c #C9CDDB",
"` 	c #C3C2C7",
" .	c #C1C1C3",
"..	c #D9D9DC",
"+.	c #DFDFE1",
"@.	c #E3E3E5",
"#.	c #DCDCDD",
"$.	c #DEDEE0",
"%.	c #DDD9DD",
"&.	c #E0DFE2",
"*.	c #DCDADD",
"=.	c #D8D6D9",
"-.	c #C7C7C9",
";.	c #848486",
">.	c #A0A0A2",
",.	c #CED1DC",
"'.	c #E1E0E6",
").	c #C7C6CB",
"!.	c #ACACAE",
"~.	c #C9C9CB",
"{.	c #D8D8D9",
"].	c #E2E2E4",
"^.	c #D3D1D4",
"/.	c #DEDCDF",
"(.	c #E2E0E3",
"_.	c #E1DFE2",
":.	c #D6D6D8",
"<.	c #D0D0D2",
"[.	c #D7D7D8",
"}.	c #A9A9AB",
"|.	c #B2B2B4",
"1.	c #C8C7CC",
"2.	c #CBCACE",
"3.	c #B9B9BB",
"4.	c #D2D2D4",
"5.	c #D1D1D3",
"6.	c #DADADC",
"7.	c #CBCBCD",
"8.	c #C6C4C7",
"9.	c #CBC9CC",
"0.	c #D7D5D8",
"a.	c #DFDDE0",
"b.	c #E5E3E6",
"c.	c #CACACC",
"d.	c #C0C0C2",
"e.	c #A6A6A8",
"f.	c #939395",
"g.	c #BEBEC0",
"h.	c #C8C8CA",
"i.	c #CCCCCE",
"j.	c #BBBBBD",
"k.	c #B3B3B5",
"l.	c #C3C1C4",
"m.	c #CFCDD0",
"n.	c #D1CFD2",
"o.	c #D5D3D6",
"p.	c #D9D7DA",
"q.	c #CECED0",
"r.	c #E6E6E8",
"s.	c #E7E7E9",
"t.	c #8E8E90",
"u.	c #8A8A8C",
"v.	c #D7D8DA",
"w.	c #D6D5D8",
"x.	c #D3D2D4",
"y.	c #BBB9BC",
"z.	c #ABAAAD",
"A.	c #C5C3C6",
"B.	c #CCCACD",
"C.	c #E4E4E6",
"D.	c #E6E4E7",
"E.	c #DDDCDE",
"F.	c #BDBDBF",
"G.	c #DFDEE1",
"H.	c #E0DFE1",
"I.	c #CECCCF",
"J.	c #C3C3C5",
"K.	c #CAC9CC",
"L.	c #CFCED1",
"M.	c #DAD8DB",
"N.	c #DBDADD",
"O.	c #C2C1C7",
"P.	c #DAD9DD",
"Q.	c #D5D1D5",
"R.	c #D4D2D5",
"S.	c #D6D4D7",
"T.	c #A3A3A5",
"U.	c #929294",
"V.	c #AEAEB0",
"W.	c #979797",
"X.	c #B0AFB5",
"Y.	c #CBCBCE",
"Z.	c #D4D4D5",
"`.	c #C5C5C7",
" +	c #C4C2C5",
".+	c #CAC8CB",
"++	c #CDCBCE",
"@+	c #C1BFC2",
"#+	c #B5B5B7",
"$+	c #79797B",
"%+	c #7A7A7C",
"&+	c #8D8D8F",
"*+	c #B4B4B6",
"=+	c #BFBEC1",
"-+	c #C7C5C8",
";+	c #929292",
">+	c #A7A6AC",
",+	c #CFCED2",
"'+	c #D0D0D1",
")+	c #C8C6C9",
"!+	c #B9B7BA",
"~+	c #C0BEC1",
"{+	c #C2C0C3",
"]+	c #BFBFC1",
"^+	c #909092",
"/+	c #ABAAAC",
"(+	c #B6B4B7",
"_+	c #BDBBBE",
":+	c #E4E3E5",
"<+	c #8E8E8E",
"[+	c #D2D2D5",
"}+	c #E3E2E4",
"|+	c #DDDBDE",
"1+	c #D0CFD2",
"2+	c #D2D1D5",
"3+	c #949496",
"4+	c #858587",
"5+	c #99989A",
"6+	c #B8B7BA",
"7+	c #BFBDC0",
"8+	c #D6D5D7",
"9+	c #D8D8D8",
"0+	c #7A7A7A",
"a+	c #8F8F92",
"b+	c #E2E1E3",
"c+	c #DAD9DB",
"d+	c #C5C4C6",
"e+	c #C6C5C7",
"f+	c #C5C4C7",
"g+	c #CBCACD",
"h+	c #CCCCCF",
"i+	c #89898B",
"j+	c #828284",
"k+	c #CCCBCD",
"l+	c #C3C2C4",
"m+	c #B7B6B9",
"n+	c #B4B2B5",
"o+	c #D3D3D4",
"p+	c #7E7E7F",
"q+	c #8D8D8D",
"r+	c #B6B6B8",
"s+	c #818181",
"t+	c #868688",
"u+	c #A2A2A4",
"v+	c #B0B0B2",
"w+	c #ABABAD",
"x+	c #777777",
"y+	c #979799",
"z+	c #B7B7B9",
"A+	c #E3E3E4",
"B+	c #DDDDE0",
"C+	c #ADADB0",
"D+	c #9E9EA0",
"E+	c #9C9C9E",
"F+	c #D6D6D7",
"G+	c #D0CFD3",
"H+	c #AFAFB1",
"I+	c #5A8AC7",
"J+	c #919193",
"K+	c #8F8F91",
"L+	c #D1D1D2",
"M+	c #B3B3B6",
"N+	c #8B8A8D",
"O+	c #747B87",
"P+	c #919191",
"Q+	c #A6A7A9",
"R+	c #A5A5A7",
"S+	c #C6C6C9",
"T+	c #ADACB0",
"U+	c #848484",
"V+	c #B3B3B4",
"W+	c #D1D0D2",
"X+	c #BAB8BB",
"Y+	c #D8D7D9",
"Z+	c #ACACAC",
"`+	c #D0CDD0",
" @	c #C9C7CA",
".@	c #909090",
"+@	c #E5E5E7",
"@@	c #A9A9AA",
"#@	c #E0DEE1",
"$@	c #BEBCBF",
"%@	c #CDCCCF",
"&@	c #A7A7A7",
"*@	c #CFCED0",
"=@	c #3469A3",
"-@	c #909091",
";@	c #919195",
">@	c #B7B6BB",
",@	c #D7D7DA",
"'@	c #D0CED1",
")@	c #97979A",
"!@	c #CACACE",
"~@	c #DADADB",
"{@	c #BCBABD",
"]@	c #B5B3B6",
"^@	c #D4D3D5",
"/@	c #939296",
"(@	c #B2B0B3",
"_@	c #E3E1E4",
":@	c #757579",
"<@	c #AEAEAF",
"[@	c #AEACAF",
"}@	c #DADADE",
"|@	c #BBBAC0",
"1@	c #808082",
"2@	c #A6A4A7",
"3@	c #B8B6B9",
"4@	c #DEDDE2",
"5@	c #CAC9CE",
"6@	c #8A898C",
"7@	c #C9C8CA",
"8@	c #D7D7DC",
"9@	c #989899",
"0@	c #E3E3E6",
"a@	c #9F9FA1",
"b@	c #A8A8AA",
"c@	c #DFDFE4",
"d@	c #BEBDC2",
"e@	c #89888D",
"f@	c #CCCCCD",
"g@	c #E8E8EA",
"h@	c #E5E4E9",
"i@	c #D7D6DC",
"j@	c #C2C1C6",
"k@	c #C8C8C9",
"l@	c #DCDBE0",
"m@	c #D6D5DB",
"n@	c #AEADB2",
"o@	c #B6B6B7",
"p@	c #D3D4D6",
"q@	c #D5D4D6",
"r@	c #9E9D9E",
"s@	c #DDDDE1",
"t@	c #DBDADF",
"u@	c #CECDD3",
"v@	c #BDBDBD",
"w@	c #C8C8C8",
"x@	c #B0AEB0",
"y@	c #D5D5D8",
"z@	c #8A898D",
"A@	c #B7B7B7",
"B@	c #C5C5C6",
"C@	c #D3CFD3",
"D@	c #A7A7A9",
"E@	c #C1C0C2",
"F@	c #CDCDCE",
"G@	c #C4C3C5",
"H@	c #9D9D9D",
"I@	c #DCDBDD",
"J@	c #8C8C8D",
"K@	c #DBDADC",
"L@	c #A3A1A4",
"M@	c #A5A4A6",
"N@	c #C9C8CB",
"O@	c #B9B8BA",
"P@	c #B3B1B4",
"Q@	c #C2C1C4",
"R@	c #DCD9DC",
"S@	c #818183",
"T@	c #DDDCDF",
"U@	c #E1DEE2",
"V@	c #D7D6D8",
"W@	c #98989A",
"X@	c #D8D7DA",
"Y@	c #959597",
"Z@	c #5889C6",
"`@	c #D4D3D6",
" #	c #CAC9CB",
".#	c #DEDDE0",
"+#	c #D2D1D4",
"@#	c #BBBABD",
"##	c #B5B4B6",
"$#	c #C7C6C8",
"%#	c #D7D6D9",
"&#	c #D2D1D3",
"*#	c #C7C6C9",
"=#	c #D0CFD1",
"-#	c #D3D2D5",
";#	c #C4C4C5",
">#	c #AFAFAF",
",#	c #A8A8A9",
"'#	c #838384",
")#	c #7B7B7D",
"!#	c #6B6B6D",
"~#	c #9B9B9D",
"{#	c #838385",
"]#	c #8B8B8D",
"^#	c #78787A",
"/#	c #8A8A8A",
"(#	c #747474",
"_#	c #7E7E7E",
"                                                                                        ",
"                                      . +             @                                 ",
"                                  # $ % & * = - ; >   ,                                 ",
"                              ' ) ! ~ { ] ^ / ( _ : < [                                 ",
"                  } | 1 2 3 4 5 6 7 8 9 0 a b b a ~ 7 c d e f g                         ",
"                  h i j k l m n o p q ~ r s t s u v w x y k z A B                       ",
"              C D E F G H I J K L L 8 M N b O P Q R S T I U V I W                       ",
"            X Y Z `  ...+.@.+.#._ % $.t 0 O %.&.*.=.=.{ 0 M a 0 -.;.                    ",
"            >.,.'.).!.~.b t { a {.0 ].+.a =.^./.(._.*.:.<.~ [.a % }.                    ",
"          B |.1.A 2.3.] <.:.4.5._ % t 6.7.8.9.0.a.b.a._ c.:.t s t d.e.f.                ",
"          t 0 c.g.4.a h.h.5.i.j.k. .5.~.: l.m.n.o.*.p.<.q.6.r.s.].4.5.M t.              ",
"        u.0 M i.7.v.@.w.h.7.x.y.z.& ~.g.y.A.R B.9.R n.4.8 6.C.D.E.<.{ ].F.              ",
"        ` G.:./ / 4.H./.^.I.n.A.j.& 7 J.7 K.b L./ L._ ~ M.=.O a.N.:.4.M / k.            ",
"        O.P.{./ ] i.n.Q.R 9.R.S.9 j.T.U.V.7 & -./ q.h.B.n.=.M.p.Q ~ 5.M b ~ W.          ",
"        X.Y.Z.c. .`. +.+++@+9.0.<.#+;.$+  %+  &+*+7 =+ +-+*._.a.P 0 b +.].a ;+          ",
"        >+,+'+/ 9 M )+!+~+{+8.n.~.]+            ^+!./+(+_+m.M.b.:+{ :.9 u a <+          ",
"        d [+~ M $.}+|+l.9.n.1+2+. 3+            4+5+6+l.8.7+{+8+u 6.5.7.{ 9+0+          ",
"        a+d.~._ b b+c+d+e+f+g+h+i+              j+3+~+k+l+m+n+`.9 b 6.4.s o+p+          ",
"        q+k.: $ J.~ M $ |.r+J.r+s+              t+u+$ ] d.$ }.d.h.5.a :.u 6.+           ",
"        p+k.r+v+#+7./ !.w+h./ d.x+                y+#+d.`.] & k.z+`.4.M A+B+C+          ",
"          B + D+T.z+|.E+. c.~ z+                  y+j. .`.9 M g.*+~.q.% F+G+H+          ",
"                  I+J+    K+-.y+            u+W #+h.7 3.~.b 6.L.<.q.`.c.L+M+N+          ",
"                                  O+  P+Q+R+~ a b M 5.]+F.i.9 p.N.7.g.7 S+T+            ",
"                              U+V+o+H+*+5.W+*.*.=.=.++X+{+++n.R.Y+/ F.& E+              ",
"                              Z+4.C.:._ a m.`+p.m.S..+y.-+ @8.9.1+q.W R+                ",
"                            .@'+u +@0 4.c.9.n.n.8.m..+@+ +l.8. +c.% q.                  ",
"                              @@{ s M 5.~.R #@n.7+$@_+~+)+++B.-+%@b i.                  ",
"                              &@{ +.4./ 7.)+++)+B..+_+~+9.o.R ++*@b 7.                  ",
"                            =@-@9 :.c.]+g. @ @-+n.I.y.~+.+R R ++%@a 4.>.                ",
"                            ;@>@,@t 5.7 3.X+$@-+'@ @X+7+++n.I..+1+:.{ _ T.              ",
"                            )@!@9 ~@_ h.]+{@ + @.+~+]@_+n.0.o.n.^@~ $.$.b g             ",
"                              /@i.~ <.% 4.9.I.n.++l.(@y.0.#@_@*.w.9 $.0 s ).            ",
"                              :@k.<@& c.} .+^.p.R.{+(+[@{+o./._.8+<.~ M s }@|@          ",
"                                1@    t+    2@.+++ @ +3@l.R *.0 9 i.i.5.{ 4@5@          ",
"                                              ! 6@!.W -.7@q.0 a b -.c.<.6.8@>+          ",
"        9@<.0@s E   a@                            b@j.:.~ W 5.~ M W `._ 0 c@d@e@        ",
"        f@r.g@C.6./ t { 6.J.z+                    # D+h.<.& ~./  .F.h.:.s h@i@j@        ",
"        k@s C.+@u $.u $.C.s ~ }.                    u.z+W g.5.9 #+R+]+<.6.l@m@n@        ",
"        o@<.s { b p@% 9 s t q@r@                     .<.~.`.4.6.F.#+/ { s s@t@u@        ",
"      v@w@-.9 q.7.J.7.^.v 0.O x@                    ~.a / -.9 :.] -.b t { $.y@z@        ",
"      A@B@h.`.$ $ $ 9.C@=.M.o.)+                    D@] / -.M _ `.% M 0 b 9 w@          ",
"      U+@@!.*+*+: J.E@I.|+|+|+S.E                   b@7.5./ / c.c.9 0 b :.F@            ",
"          D+|.c./ -.G@'@(.#@a.|+_ R+              w+$ <.M q.g.$ ~.% a a 9  .H@          ",
"          d.7.:.i.] %@M.*.|+|+I@{ :.r+J@      t+w+d.: / 9 q.j.$ i.~.% t /               ",
"          7 7.] g.J.A..+0.O M.M K@].4.4.L@M@i+w+c.i.% q@1+N@O@P@=+] M a R+              ",
"          b@c.7 J.g.Q@++=.#@/.0.S._.=.M.n.e+k.] / % t R@R )+l.{+N@5.b 5.<               ",
"          S@/ :.h.h.S.p.M.(._.0.^.|+=._.O *@F.!.W _ T@U@0.9.m.S.V@0 +.6.W@              ",
"            E / :.9 _./.O |+M.R.^.M.0.a./.W+c.#+$ h.X@_@M.p.o.R.v b % t Y@              ",
"            Z@~.q.<.`@=.p.p.S.R.R.o.S._./.w./  .J.] L.'@++0.=.O 8+_ 7._ u+              ",
"              h.d. #9.-+^.R.S.0.R m.^._..#b q./ i.7@%@)+9.B.O H +#`.-.z+                ",
"              _ -.K.@###$#q@%#Q &#*#%@%#6./ g.i.c.=# #+#Y+-#T@y@;#>#,#'#                ",
"              B : $ e.#+-.b 6.t q.j.7 5.M q.g.7 q.a % h.<.:.{ h..@                      ",
"                Y@)#!#< c.6.$.+.q.F.J._ 9 <.d.z+~.5.0 ] ]+q.g.&                         ",
"                      D@: q._ 7 7 / 7.5.6.% d.}.D@|.i.z+V.7 E+                          ",
"                      u.H+~#{#a@r+~.i.h.9 ~.< W@]#)#y+^#&+K+                            ",
"                              ;.u+v+V+E }.)#                                            ",
"                                  /#(#_#                                                ",
"                                                                                        "};
