/* XPM */
static char * 4_xpm[] = {
"44 58 558 2",
"  	c #019AFE",
". 	c #9F9EA5",
"+ 	c #ABAAAF",
"@ 	c #919096",
"# 	c #828186",
"$ 	c #AAA9AF",
"% 	c #A6A5AA",
"& 	c #8C8B90",
"* 	c #A2A2A4",
"= 	c #C6C5CA",
"- 	c #D8D7DD",
"; 	c #DEDDE3",
"> 	c #D1D0D6",
", 	c #C7C6CC",
"' 	c #CECDD3",
") 	c #D7D6DC",
"! 	c #CFCED4",
"~ 	c #C9C8CD",
"{ 	c #BFBEC4",
"] 	c #959499",
"^ 	c #C3C2C7",
"/ 	c #DCDBE1",
"( 	c #DFDEE3",
"_ 	c #E4E3E9",
": 	c #E0DFE5",
"< 	c #D5D4DA",
"[ 	c #E2E1E7",
"} 	c #D7D6DD",
"| 	c #989899",
"1 	c #8F8E94",
"2 	c #DBDAE1",
"3 	c #DCDBE2",
"4 	c #DFDEE4",
"5 	c #E1E0E6",
"6 	c #DDDCE2",
"7 	c #D4D3D9",
"8 	c #D0CFD5",
"9 	c #D9D8DE",
"0 	c #DFDEE5",
"a 	c #D2D1D7",
"b 	c #628FCA",
"c 	c #99989E",
"d 	c #D6D5DD",
"e 	c #CFCED6",
"f 	c #D1D0D8",
"g 	c #DEDCE3",
"h 	c #DAD9DF",
"i 	c #D4D3D8",
"j 	c #D9D7DD",
"k 	c #C1C0C6",
"l 	c #E7E6EC",
"m 	c #DBDAE0",
"n 	c #DDDBE1",
"o 	c #E3DEE4",
"p 	c #DEDBE0",
"q 	c #D4D0D6",
"r 	c #D3CFD5",
"s 	c #D6D2D8",
"t 	c #D2D0D6",
"u 	c #DDDCE1",
"v 	c #929293",
"w 	c #E8E7ED",
"x 	c #D4D1D7",
"y 	c #DDD6DD",
"z 	c #E2DDE3",
"A 	c #E0DAE1",
"B 	c #DBD5DC",
"C 	c #D4CED4",
"D 	c #CCC9CF",
"E 	c #CAC9CF",
"F 	c #CBCAD0",
"G 	c #D6D5DB",
"H 	c #D8D7DE",
"I 	c #CAC9CE",
"J 	c #C0BFC5",
"K 	c #CDCCD2",
"L 	c #C4C3C9",
"M 	c #CCCAD0",
"N 	c #D7D1D7",
"O 	c #E7E2E8",
"P 	c #DFDAE0",
"Q 	c #D1CBD1",
"R 	c #C6C4CA",
"S 	c #A7A6AB",
"T 	c #97969C",
"U 	c #CCCBD2",
"V 	c #BBBAC0",
"W 	c #D0CED4",
"X 	c #D0CAD1",
"Y 	c #D5D0D6",
"Z 	c #DCD7DD",
"` 	c #D3CED4",
" .	c #E3E2E9",
"..	c #B6B5BB",
"+.	c #A2A1A7",
"@.	c #BCBBC1",
"#.	c #C9C8CE",
"$.	c #D3D1D7",
"%.	c #CEC9CF",
"&.	c #D4CFD5",
"*.	c #D5CFD5",
"=.	c #D7D2D8",
"-.	c #E5E4EA",
";.	c #E1E0E7",
">.	c #C4C3C8",
",.	c #009AFE",
"'.	c #AFAEB2",
").	c #C2C0C6",
"!.	c #C7C5CB",
"~.	c #D2D0D7",
"{.	c #D1CFD6",
"].	c #D8D6DC",
"^.	c #DBD8DE",
"/.	c #D1CCD2",
"(.	c #CFCAD0",
"_.	c #D8D6DB",
":.	c #D9D7DC",
"<.	c #DAD8DE",
"[.	c #DCDBE0",
"}.	c #E1E0E5",
"|.	c #99989D",
"1.	c #D5D4D9",
"2.	c #D1CFD5",
"3.	c #CFCAD2",
"4.	c #D1CCD3",
"5.	c #C9C5CC",
"6.	c #D4D0D7",
"7.	c #D3CED5",
"8.	c #D2CDD3",
"9.	c #CBC6CC",
"0.	c #CCC7CD",
"a.	c #DAD6DC",
"b.	c #DDD9DF",
"c.	c #DFDBE0",
"d.	c #A5A0A6",
"e.	c #C8C7CD",
"f.	c #D3D2D8",
"g.	c #D7D4DB",
"h.	c #D5D0D7",
"i.	c #D9D3DA",
"j.	c #CDC7CF",
"k.	c #C3BDC4",
"l.	c #C8C3CA",
"m.	c #C4BFC5",
"n.	c #C1BCC2",
"o.	c #C6C1C7",
"p.	c #C0BBC1",
"q.	c #C2BDC3",
"r.	c #D8D2D8",
"s.	c #E6E1E7",
"t.	c #E7E0E7",
"u.	c #B4AFB5",
"v.	c #88878D",
"w.	c #DDDBE2",
"x.	c #D6D2D9",
"y.	c #D7D2D9",
"z.	c #CDC8CF",
"A.	c #BEB9C0",
"B.	c #B4AFB6",
"C.	c #A49FA6",
"D.	c #A49FA5",
"E.	c #BBB6BC",
"F.	c #BAB5BB",
"G.	c #E1DCE2",
"H.	c #E9E4EA",
"I.	c #E8E2E9",
"J.	c #DAD5DB",
"K.	c #8B898F",
"L.	c #838288",
"M.	c #8F8E95",
"N.	c #DFDDE3",
"O.	c #D4CFD6",
"P.	c #C5BFC7",
"Q.	c #BBB6BD",
"R.	c #BAB5BC",
"S.	c #B0ABB2",
"T.	c #99949B",
"U.	c #A8A3A9",
"V.	c #BDB8BE",
"W.	c #C8C3C9",
"X.	c #DBD6DC",
"Y.	c #D6D1D7",
"Z.	c #BEB9BF",
"`.	c #CAC5CB",
" +	c #E4DEE5",
".+	c #A9A7AD",
"++	c #9A999F",
"@+	c #D6D4DB",
"#+	c #C4BEC5",
"$+	c #BDB8BF",
"%+	c #C3BEC5",
"&+	c #9A959B",
"*+	c #D8D3D9",
"=+	c #CDC8CE",
"-+	c #C9C4CA",
";+	c #DED8DE",
">+	c #D8D4DA",
",+	c #C5C3C9",
"'+	c #A7A6AC",
")+	c #C3C2C8",
"!+	c #B5B4BA",
"~+	c #B4B2B9",
"{+	c #D0CBD2",
"]+	c #B1ACB2",
"^+	c #DED9DF",
"/+	c #D0CBD1",
"(+	c #C9C4CB",
"_+	c #CBC6CD",
":+	c #D4CED5",
"<+	c #D0CCD2",
"[+	c #A2A0A5",
"}+	c #3F91E5",
"|+	c #AEADB2",
"1+	c #C0BEC4",
"2+	c #AAA5AB",
"3+	c #C4BFC6",
"4+	c #D7D1D9",
"5+	c #CCC8CE",
"6+	c #8D8C8D",
"7+	c #C5C0C6",
"8+	c #9B969C",
"9+	c #AEA9AF",
"0+	c #C7C2C8",
"a+	c #CCC7CE",
"b+	c #E0DBE2",
"c+	c #DFDAE1",
"d+	c #DAD5DC",
"e+	c #DCD6DF",
"f+	c #D1CDD3",
"g+	c #8C8B91",
"h+	c #CFCED3",
"i+	c #D8D2D9",
"j+	c #8F8A90",
"k+	c #DED9E0",
"l+	c #E3DEE5",
"m+	c #E6E0E9",
"n+	c #C4C0C6",
"o+	c #B9B8BE",
"p+	c #C5C4CA",
"q+	c #BBB9BF",
"r+	c #DDD8DE",
"s+	c #B7B2B8",
"t+	c #A39EA4",
"u+	c #D9D4DA",
"v+	c #C1BCC3",
"w+	c #DCD7DE",
"x+	c #E5E0E7",
"y+	c #E8E2EB",
"z+	c #D9D5DC",
"A+	c #969597",
"B+	c #9E9EA3",
"C+	c #D0CFD7",
"D+	c #CECDD5",
"E+	c #B8B7BD",
"F+	c #BEBDC3",
"G+	c #CDCCD1",
"H+	c #BEBCC1",
"I+	c #B3AEB4",
"J+	c #9E999F",
"K+	c #AFAAB0",
"L+	c #D9D4DB",
"M+	c #C4C3C5",
"N+	c #858489",
"O+	c #C1BEC4",
"P+	c #B8B5BB",
"Q+	c #C3C0C5",
"R+	c #C5C2C8",
"S+	c #D4D1D6",
"T+	c #D7D5DA",
"U+	c #97959A",
"V+	c #959498",
"W+	c #CBC7CC",
"X+	c #E9E3E9",
"Y+	c #E4DFE5",
"Z+	c #D7D5DB",
"`+	c #9E9DA2",
" @	c #A9A8AE",
".@	c #C6C5CB",
"+@	c #C4BFC4",
"@@	c #D4CED3",
"#@	c #D6D0D7",
"$@	c #E3E0E5",
"%@	c #C2C1C6",
"&@	c #C9C7CD",
"*@	c #E1DCE1",
"=@	c #E5E1E6",
"-@	c #E2E0E8",
";@	c #8E8D94",
">@	c #D5D4DB",
",@	c #CCCBD1",
"'@	c #CFCBD1",
")@	c #D2CCD3",
"!@	c #DCD9DE",
"~@	c #D7D6DB",
"{@	c #9F9EA3",
"]@	c #CCCACF",
"^@	c #D1CBD2",
"/@	c #C3BEC4",
"(@	c #DAD4DA",
"_@	c #E6E2E8",
":@	c #A8A7AC",
"<@	c #D1D0D7",
"[@	c #DAD8DF",
"}@	c #DCD8DE",
"|@	c #C6C0C7",
"1@	c #D0CDD2",
"2@	c #D1D0D5",
"3@	c #AEACB1",
"4@	c #BCB7BD",
"5@	c #E2E0E6",
"6@	c #8D8C92",
"7@	c #949398",
"8@	c #D6D3D8",
"9@	c #CCC6CD",
"0@	c #C8C2C8",
"a@	c #CBC8CD",
"b@	c #BCBABF",
"c@	c #BFBAC0",
"d@	c #DBD7DC",
"e@	c #C7C5CC",
"f@	c #A2A1A5",
"g@	c #CDCBD0",
"h@	c #CCCBD0",
"i@	c #D2CFD4",
"j@	c #D3CDD3",
"k@	c #C9C6CB",
"l@	c #A4A2A7",
"m@	c #BFBBC1",
"n@	c #7C7A7F",
"o@	c #AEABB0",
"p@	c #C0BDC2",
"q@	c #CBC7CD",
"r@	c #D2CED4",
"s@	c #C6C2C7",
"t@	c #B0AEB3",
"u@	c #C7C1C7",
"v@	c #B9B4BA",
"w@	c #C5C1C6",
"x@	c #B1AFB6",
"y@	c #C1BDC3",
"z@	c #BEB8BF",
"A@	c #A6A3A8",
"B@	c #97969A",
"C@	c #BDBBC0",
"D@	c #E0DBE1",
"E@	c #DDD9DE",
"F@	c #B1B0B6",
"G@	c #D7D3D9",
"H@	c #D7D1D8",
"I@	c #CFCBD0",
"J@	c #B6B1B7",
"K@	c #9C969C",
"L@	c #A3A0A5",
"M@	c #88878C",
"N@	c #BCBBC0",
"O@	c #C4C0C5",
"P@	c #ADA8AE",
"Q@	c #E2DCE2",
"R@	c #C2C1C5",
"S@	c #C0C0C3",
"T@	c #D1D0D4",
"U@	c #DDD7DE",
"V@	c #ABA6AC",
"W@	c #C9C5CB",
"X@	c #B9B8BD",
"Y@	c #9B9A9F",
"Z@	c #A3A2A7",
"`@	c #9A999E",
" #	c #C1C0C5",
".#	c #D4D2D7",
"+#	c #E0DAE0",
"@#	c #B5B0B6",
"##	c #E5E1E7",
"$#	c #E0DEE4",
"%#	c #DAD9DE",
"&#	c #AAA9AE",
"*#	c #C6C5C9",
"=#	c #D9D6DC",
"-#	c #DBD8DD",
";#	c #CBCACF",
">#	c #CBCBCF",
",#	c #DCD6DC",
"'#	c #DFD9E0",
")#	c #E6E0E7",
"!#	c #DEDDE4",
"~#	c #E4E3EA",
"{#	c #DFDDE4",
"]#	c #E2E1E8",
"^#	c #CECED3",
"/#	c #B9B8BC",
"(#	c #DDD8DD",
"_#	c #DFDBDF",
":#	c #DDDBE0",
"<#	c #C0BFC4",
"[#	c #CDCACF",
"}#	c #D7D3DA",
"|#	c #E0DCE4",
"1#	c #DFDCE5",
"2#	c #838386",
"3#	c #BAB9BF",
"4#	c #DCD9DF",
"5#	c #E4DEE7",
"6#	c #E2DCE5",
"7#	c #D8D3D7",
"8#	c #DDD9DA",
"9#	c #DAD5D7",
"0#	c #D1CDD2",
"a#	c #E0D9E1",
"b#	c #DDD7DF",
"c#	c #DDDAE1",
"d#	c #848488",
"e#	c #C2C1C7",
"f#	c #DFDAE2",
"g#	c #E9E4EC",
"h#	c #D8D3D6",
"i#	c #D8D4D4",
"j#	c #D1CDCE",
"k#	c #C4BEC4",
"l#	c #C2BCC2",
"m#	c #CAC2CA",
"n#	c #D7D0D8",
"o#	c #B0AFB5",
"p#	c #CAC7CD",
"q#	c #DAD4DB",
"r#	c #D6D1D8",
"s#	c #E4DFE6",
"t#	c #DBD7D9",
"u#	c #D9D5D5",
"v#	c #CBC7C8",
"w#	c #CCC7CC",
"x#	c #CBC4CC",
"y#	c #AAA9AD",
"z#	c #B6B3B9",
"A#	c #D0CAD0",
"B#	c #CFCACD",
"C#	c #CFCBCC",
"D#	c #C9C5C6",
"E#	c #D4CDD5",
"F#	c #DBD4DC",
"G#	c #D9D7DE",
"H#	c #BDBCC2",
"I#	c #B6B5BA",
"J#	c #C8C8CE",
"K#	c #BBB8BE",
"L#	c #B2ACB2",
"M#	c #B6B1B6",
"N#	c #BDB8BD",
"O#	c #D5D0D8",
"P#	c #DFDAE3",
"Q#	c #C5C0C4",
"R#	c #CAC6C6",
"S#	c #D2CDCF",
"T#	c #8A898E",
"U#	c #BDBCC1",
"V#	c #B0AEB4",
"W#	c #A5A2A8",
"X#	c #A4A1A9",
"Y#	c #B5B2BA",
"Z#	c #C0BDC5",
"`#	c #CDCAD0",
" $	c #DDDAE0",
".$	c #C6C4C8",
"+$	c #CDCBCD",
"@$	c #D2CFD3",
"#$	c #D9D6DB",
"$$	c #C4C2C7",
"%$	c #C9C6CC",
"&$	c #D6D3D9",
"*$	c #D8D5DA",
"=$	c #DEDDE2",
"-$	c #A9A8AD",
";$	c #87868D",
">$	c #BCBCC2",
",$	c #CACAD0",
"'$	c #C5C5CB",
")$	c #D2D2D7",
"!$	c #BFBFC4",
"~$	c #C5C5C9",
"{$	c #CDCDD2",
"]$	c #CFCFD3",
"^$	c #B8B8BC",
"/$	c #B3B3B7",
"($	c #B7B7BB",
"_$	c #C8C6CB",
":$	c #CECDD2",
"<$	c #C3C1C6",
"[$	c #B7B6BB",
"}$	c #D3D2D6",
"|$	c #A5A4A9",
"1$	c #BCBCC1",
"2$	c #C7C7CB",
"3$	c #C4C4C8",
"4$	c #909094",
"5$	c #C1C1C5",
"6$	c #8F8F93",
"7$	c #C9C5CA",
"8$	c #C8C7CC",
"9$	c #B4B3B8",
"0$	c #767678",
"a$	c #858488",
"b$	c #7B7A7F",
"c$	c #838286",
"d$	c #A1A0A5",
"e$	c #98979C",
"f$	c #C7C5CA",
"g$	c #D3CDD4",
"h$	c #B8B3B9",
"i$	c #CCC6CC",
"j$	c #B9B5BB",
"k$	c #C9C7CC",
"l$	c #B7B1B8",
"m$	c #9F9DA2",
"n$	c #A3A1A5",
"o$	c #BFBABE",
"p$	c #8F8E93",
"q$	c #817F84",
"r$	c #AEA8AE",
"s$	c #D9D5DB",
"t$	c #A6A4AA",
"u$	c #E4DEE4",
"v$	c #CCC8CD",
"w$	c #EAE5EB",
"x$	c #C0BCC1",
"y$	c #7C7B80",
"z$	c #BDBAC0",
"A$	c #D7D3D8",
"B$	c #BCBAC0",
"C$	c #D9D4D9",
"D$	c #CFCACF",
"E$	c #D2CDD2",
"F$	c #E3DEE3",
"G$	c #DED8DF",
"H$	c #9D9BA1",
"I$	c #B1ACB4",
"J$	c #CAC5CC",
"K$	c #E1DCE3",
"L$	c #D0CAD2",
"M$	c #ADA9B0",
"N$	c #97959E",
"O$	c #A9A7AF",
"P$	c #BDBBC3",
"Q$	c #C1C0C8",
"R$	c #CFCDD5",
"S$	c #CBCAD2",
"T$	c #DCDAE2",
"U$	c #BBB9C1",
"V$	c #87868C",
"W$	c #85848A",
"X$	c #A4A3A9",
"Y$	c #BBBBC0",
"Z$	c #A6A6AB",
"`$	c #B1B1B7",
" %	c #C1C1C6",
".%	c #BFBFC5",
"+%	c #D0D0D5",
"@%	c #ADACB2",
"#%	c #88888C",
"$%	c #B3B2B6",
"                                                                                        ",
"                                                                                        ",
"                                              . + @ # $ % &                             ",
"                                          * = - ; > , ' ) ! ~ { . ]                     ",
"                                        ^ / ( _ : / ) < ; [ _ [ } ! |                   ",
"                                      1 2 3 4 5 6 7 8 9 5 [ _ : 0 a b                   ",
"                                  c d e f d 3 g h > ' i j 9 h ; 2 8                     ",
"                                  k l 4 m 2 n o p q r s t 8 8 ! 3 u v                   ",
"                                  > w : 9 > x y z A B C D E F G H I                     ",
"                                  J m h K L M N o O P Q R F ) 4 0 S                     ",
"                                  T U , V , W X Y P Z ` M 7 5 _  ...                    ",
"                                  +.E , @.#.$.%.%.&.*.=.$.9 _ -.;.>.                  ,.",
"                                '.).!.~.{.].^.&./.(./.=._.:.<.[.}.|.                  ,.",
"                            L 1.2.3.4.4.5.6.7.(.8.9.0.%./.a.b.c.P d.                  ,.",
"                            e.f.g.h.i.j.k.l.m.n.(.o.p.q.o.r.o s.t.u.                  ,.",
"                          v.> G w.x.y.z.A.B.C.D.E.F.E.n.n.9.G.H.I.J.K.L.              ,.",
"                        M.#.f.4 N.O.P.Q.R.S.T.U.V.W.=.X.Y.Z.`.J. +c..+                ,.",
"                        ++k , ' @+h.#+$+%+Q.&+V.W.*+Z =.=+0.Z.-+;+>+,+                ,.",
"                        '+)+!+'+~+-+-+=+{+]+F.^+8.&.8./+&.(+F._+:+<+[+                ,.",
"                      }+|+! k V 1+o./.&.p.2+9.*+W.`.` &./+7.3+_+4+5+6+                ,.",
"                    @ #.) 9 a ' $.8.*.%.7+8+9+W.o.W.`.0+a+b+c+d+e+f+                  ,.",
"                  g+h+) ) / K F W Y i+*+7+j+`.(.%./.`.n.8.k+l+c+m+n+                    ",
"                  o+' 8 7 K p+, q+0+N r+s+t+Y.8./.u+Z m.v+4.w+x+y+z+A+                  ",
"                B+C+D+)+@.E+F+G+H+5+V.I+J+K+J.=.Y.u+&.Z.0+&.L+b+x+b+M+                  ",
"              N+.., , O+P+Q+R+S+T+_.H+U+  V+W+/.` J.8.V.%.(.0.=.X+Y+Z+`+                ",
"            $  @J .@,++@@@#@r.^+$@}.%@      &@(.q.(./+n.0+0.` Y.*@=@-@;@                ",
"            >@a ,@E &@'@Y Y Y )@!@~@{@      ]@^@n./@V.m.-+=+` /.(@_@N.                  ",
"          :@<@E 7 h [@}@C 8.=+|@1@2@|.      3@m.=+0.4@q.%.Y &.` #@c.5@6@                ",
"          7@p+.@a - ].8@9@9.`.0@a@]         b@%.*+Y c@Z.%.=.*+&.%.d@e@                  ",
"          f@g@)+e.K h@i@` u+/.j@k@          l@7+J.(.4@q.8.J.J.=.9@m@                    ",
"          n@V.o@p@q@r@P G.z Z &.s@          t@u@/.o.v@Z.u+X.Z X.B w@                    ",
"        x@y@k.F.4@-+Z Z G.s.^+z@A@        B@C@X 0.n.F.c@X.D@G.D@z E@                    ",
"      F@' G@H@*+9.s+W.-+I@X.J@K@L@      M@N@g@B X.&.O@P@0+*+o s.Q@Y R@S@                ",
"    T@7 7 >+U@Z -+4@s+s+E.E.V@v@W@X@Y@Z@`@ #.#+#o ^+/+@#q.Y.^+z  +##$#-.%#>.,@&#        ",
"    *#6 4 =#B Z -+E.`.-+-+n.` Z -#h@;#h+N@>#.#,#'#r+/.9.(.%.Z P )#P N.!#~#{#]#^#        ",
"    /#7 7 G@u+Z o.c@`.c+u+J.(#*@_#_.u :#<#h@[#/.&.X.9.Z J.n.=.o s.Y.}#|#1#1#0 <         ",
"    2#3#< 4#B Y+%.o.*+5#6#r+7#8#9#0#>+a.f+I@(.9./.o.V./+J./@%.*+u+C #@a#b#c#4 h         ",
"    d#F@e#r Z G.X.` Y.f#g#G.h#i#j#=+k#q.o.(.X.u+%.&.=+o.0.q.Y J.0.l#m#n#L+[@6 G         ",
"      o#o+p#q#` `.=+&.r#s#^+t#u#v#w#Z.I+p.Z./+&.X.(.8.` /+m./+P W.E.x#n#y.c#/ h         ",
"    y#k { z#A#0.c@n.=+O.w+8.B#C#D#Z *+0+-+0+/+Z 0.=.X.P J.`.&.^+-+7+E#F#4+G#/ H#        ",
"    I#J#L K#L#M#J@N#=+O#P#Y.Q#R#S#P X.-+/+&.D@^+&.(.Y.*+*+-+Y *+`./+Y.U@q#~.5           ",
"    T#%@U#V#W#X#Y#Z#p#`# $x .$+$@$#$^.$$%$&$b.P Z /+=.8.Y 0.Y.=+-+&.p *$-#m =$          ",
"      -$#   ;$>$,$'$J K )$2@!$~${$]$<#^$/$($_$u+&.0./+` Y.%.7+q.=+r _.:$<$[$}$          ",
"              |$1$^ U#2$2@3$4$Y@5$~ Z@7@  6$$$r.%.o./@=.*+/.p.]+9@7$8$9$                ",
"                  0$    a$b$    c$d$      e$f$g$o.-+%.*+Y.8.n.h$i$j$l@                  ",
"                                            k$:+9.*+P ^+&.0.q.J@l$n+m$                  ",
"                                            n$o$0+` D@G.J./+(.Y.i+0#p$                  ",
"                                            q$r$V.=+Z o ^+Y &.X.D@s$                    ",
"                                            t$Z.n.=+Y.Z =.r+^+z u$v$                    ",
"                                            ).9@9.`.o.0+0./.D@w$)#x$                    ",
"                                          y$z$j@%.`.W./+Y 8.X.w$A A$                    ",
"                                            B$A#&.C$D$E$X.Y.r+F$G$7$                    ",
"                                            H$I$J$b+K$4.O.7.r@L+L$M$                    ",
"                                            c$N$O$C+d P$Q$R$S$T$U$                      ",
",.                                            V$W$X$Y$Z$`$ %.%+%@%                      ",
",.                                                  #%        $%                        ",
",.                                                                                      ",
",.                                                                                      "};
