/* XPM */
static char * 5_xpm[] = {
"44 58 371 2",
"  	c #009AFE",
". 	c #519EF1",
"+ 	c #BBBBBD",
"@ 	c #979799",
"# 	c #2A99F7",
"$ 	c #BDBDC0",
"% 	c #D4D3D8",
"& 	c #C2C1C6",
"* 	c #7DA3DA",
"= 	c #96A7C5",
"- 	c #969697",
"; 	c #82A4D7",
"> 	c #92A6CA",
", 	c #71A1E2",
"' 	c #ADADAF",
") 	c #D1D1D3",
"! 	c #D7D7D9",
"~ 	c #A1A1A3",
"{ 	c #8190AB",
"] 	c #8E8E90",
"^ 	c #9D9D9F",
"/ 	c #A4A4A6",
"( 	c #BCBBC0",
"_ 	c #B8B7BD",
": 	c #D5D5D8",
"< 	c #E2E0E6",
"[ 	c #DDDCE2",
"} 	c #BFBFC1",
"| 	c #B5B5B7",
"1 	c #C4C4C6",
"2 	c #ABABAD",
"3 	c #A9A9AB",
"4 	c #A6A6A8",
"5 	c #CECED0",
"6 	c #D2D2D4",
"7 	c #D9D9DB",
"8 	c #B8B8BA",
"9 	c #A2A2A4",
"0 	c #B0B0B2",
"a 	c #D4D4D6",
"b 	c #E0E0E2",
"c 	c #C1C1C3",
"d 	c #CBCBCD",
"e 	c #D8D8DA",
"f 	c #C5C5C7",
"g 	c #BBBBBE",
"h 	c #CFCED3",
"i 	c #DFDEE3",
"j 	c #E0DFE4",
"k 	c #CBCACF",
"l 	c #4694E6",
"m 	c #C6C6C9",
"n 	c #E0DFE5",
"o 	c #E5E4EA",
"p 	c #DADADC",
"q 	c #DDDDDF",
"r 	c #C2C2C4",
"s 	c #AFAFB1",
"t 	c #C3C3C5",
"u 	c #CDCDCF",
"v 	c #DBDBDD",
"w 	c #DEDEE0",
"x 	c #D5D5D7",
"y 	c #E2E2E4",
"z 	c #E1E1E3",
"A 	c #D9D9DC",
"B 	c #E2E1E6",
"C 	c #E6E5EA",
"D 	c #E4E3E8",
"E 	c #DAD9DD",
"F 	c #B9B8BC",
"G 	c #D2D1D6",
"H 	c #DBDADF",
"I 	c #E7E7E9",
"J 	c #E5E5E7",
"K 	c #D6D6D8",
"L 	c #BFBEC1",
"M 	c #BEBDC0",
"N 	c #D1D0D2",
"O 	c #DBDADD",
"P 	c #DEDDE0",
"Q 	c #D9D8DB",
"R 	c #DDDCDE",
"S 	c #E0DFE2",
"T 	c #DBDADC",
"U 	c #D1D0D3",
"V 	c #D4D3D6",
"W 	c #E1E0E2",
"X 	c #E0DFE1",
"Y 	c #D6D6D9",
"Z 	c #E3E3E6",
"` 	c #E6E5E9",
" .	c #E4E4E7",
"..	c #AEAEB0",
"+.	c #C8C7CD",
"@.	c #CCCBD1",
"#.	c #CAC8CB",
"$.	c #D3D1D4",
"%.	c #DDDBDE",
"&.	c #DCDADD",
"*.	c #DBD9DC",
"=.	c #E1DFE2",
"-.	c #D9D7DA",
";.	c #CFCDD0",
">.	c #D1CFD2",
",.	c #D6D4D7",
"'.	c #D7D5D8",
").	c #D5D4D6",
"!.	c #EAEAEC",
"~.	c #BABABC",
"{.	c #B5B4BA",
"].	c #DCDBDD",
"^.	c #D8D6D9",
"/.	c #DFDDE0",
"(.	c #E5E3E6",
"_.	c #DAD8DB",
":.	c #DEDCDF",
"<.	c #D5D3D6",
"[.	c #CECCCF",
"}.	c #CDCBCE",
"|.	c #CBC9CC",
"1.	c #D2D1D4",
"2.	c #B9B9BB",
"3.	c #AEADB3",
"4.	c #BDBDBF",
"5.	c #CCCCCE",
"6.	c #E3E1E4",
"7.	c #D2D0D3",
"8.	c #E2E0E3",
"9.	c #C8C6C9",
"0.	c #D0CED1",
"a.	c #D0D0D2",
"b.	c #DCDCDE",
"c.	c #CFCFD1",
"d.	c #C0BEC1",
"e.	c #BDBBBE",
"f.	c #C3C1C4",
"g.	c #E0DEE1",
"h.	c #C5C3C6",
"i.	c #CFCED0",
"j.	c #CACACC",
"k.	c #A3A3A3",
"l.	c #BCBBC1",
"m.	c #DCDBE1",
"n.	c #C9C9CB",
"o.	c #B1B0B2",
"p.	c #AEACAF",
"q.	c #C6C4C7",
"r.	c #BEBCBF",
"s.	c #BAB8BB",
"t.	c #E6E4E7",
"u.	c #D7D6D9",
"v.	c #E3E3E5",
"w.	c #D3D3D5",
"x.	c #C9C9CC",
"y.	c #E4E3E6",
"z.	c #CBCACC",
"A.	c #BBB9BC",
"B.	c #C0C0C2",
"C.	c #C6C6C8",
"D.	c #E4E4E6",
"E.	c #999999",
"F.	c #C7C7C9",
"G.	c #BCBCBE",
"H.	c #C3C3C4",
"I.	c #D4D2D5",
"J.	c #99999B",
"K.	c #A8A8AA",
"L.	c #BEBEC0",
"M.	c #B6B6B8",
"N.	c #C4C2C5",
"O.	c #C2C0C3",
"P.	c #B4B4B6",
"Q.	c #939395",
"R.	c #ACACAE",
"S.	c #CECDD0",
"T.	c #BCBABD",
"U.	c #C9C7CA",
"V.	c #9B9B9D",
"W.	c #D3D2D4",
"X.	c #C1BFC2",
"Y.	c #C1C0C3",
"Z.	c #A7A7A9",
"`.	c #A3A3A5",
" +	c #C9C8CB",
".+	c #BFBDC0",
"++	c #9E9EA0",
"@+	c #549BE9",
"#+	c #9C9C9E",
"$+	c #CAC9CB",
"%+	c #CCCACD",
"&+	c #858587",
"*+	c #D3D2D5",
"=+	c #A5A5A7",
"-+	c #D2D1D3",
";+	c #DFDFE1",
">+	c #C1C1C1",
",+	c #989898",
"'+	c #CCCACB",
")+	c #CFCDCE",
"!+	c #D0CECF",
"~+	c #D2D0D1",
"{+	c #D4D3D4",
"]+	c #D7D5D7",
"^+	c #D8D7D9",
"/+	c #B7B7B8",
"(+	c #CDCCCE",
"_+	c #D5D3D4",
":+	c #C6C4C5",
"<+	c #CAC8C9",
"[+	c #CFCDCF",
"}+	c #DBD9DB",
"|+	c #DCDADB",
"1+	c #DDDBDC",
"2+	c #C9C7C8",
"3+	c #C9C7C9",
"4+	c #BCBBBE",
"5+	c #D5D3D5",
"6+	c #DBD9DA",
"7+	c #CDCBCC",
"8+	c #C8C6C7",
"9+	c #D4D2D4",
"0+	c #D9D8DA",
"a+	c #C5C5C5",
"b+	c #C7C5C8",
"c+	c #D3D1D2",
"d+	c #D7D5D6",
"e+	c #D1CFD0",
"f+	c #D9D7D9",
"g+	c #D6D5D6",
"h+	c #C6C5C6",
"i+	c #C9C8C9",
"j+	c #C8C7C9",
"k+	c #E5E4E6",
"l+	c #E6E6E8",
"m+	c #C5C4C7",
"n+	c #C8C8CA",
"o+	c #B7B7B9",
"p+	c #E2E0E2",
"q+	c #BBB9BE",
"r+	c #C7C6C9",
"s+	c #91A8CE",
"t+	c #E0DEE0",
"u+	c #E8E6E9",
"v+	c #D2D0D5",
"w+	c #9D9CA2",
"x+	c #9A9A9C",
"y+	c #B2B2B4",
"z+	c #949496",
"A+	c #E3E1E3",
"B+	c #E2E0E5",
"C+	c #AFAEB4",
"D+	c #CFCED1",
"E+	c #ABAAAC",
"F+	c #B9B7BA",
"G+	c #E1DFE0",
"H+	c #E3E0E6",
"I+	c #D0CFD5",
"J+	c #B1B0B5",
"K+	c #A6A5A8",
"L+	c #B1AFB2",
"M+	c #A4A3A5",
"N+	c #A8A6A9",
"O+	c #D2D0D2",
"P+	c #E0DEE3",
"Q+	c #D8D7DD",
"R+	c #C2C1C5",
"S+	c #B9B9BA",
"T+	c #C6C5C8",
"U+	c #D8D8D8",
"V+	c #DDDCE0",
"W+	c #D6D5DB",
"X+	c #AFAEB2",
"Y+	c #BFBFBF",
"Z+	c #CACACB",
"`+	c #D4D4D4",
" @	c #DAD9DE",
".@	c #D5D4DA",
"+@	c #99989D",
"@@	c #979797",
"#@	c #D5D5D5",
"$@	c #D9D8DD",
"%@	c #DAD9DF",
"&@	c #BAB9BE",
"*@	c #98979C",
"=@	c #CDCDCE",
"-@	c #C5C4C9",
";@	c #BDBCC1",
">@	c #BFBEC3",
",@	c #A1A0A5",
"'@	c #98979D",
")@	c #B4B3B8",
"!@	c #BDBCBF",
"~@	c #A2A2A2",
"{@	c #A0A0A2",
"]@	c #DDDCE1",
"^@	c #BBBABF",
"/@	c #B7B6B9",
"(@	c #C9C8CE",
"_@	c #D1D0D6",
":@	c #B5B4B9",
"<@	c #ADACB2",
"[@	c #DAD9DC",
"}@	c #DCDBDE",
"|@	c #E3E2E5",
"1@	c #D6D6D7",
"2@	c #DDDDDE",
"3@	c #E1E0E4",
"4@	c #D3D2D7",
"5@	c #CACACA",
"6@	c #CFCFD0",
"7@	c #C8C7CB",
"8@	c #C3C2C6",
"9@	c #BCBCC0",
"0@	c #C9C8CC",
"a@	c #D0D0D4",
"b@	c #D2D0D4",
"c@	c #B8B7BA",
"d@	c #D8D8D9",
"e@	c #2797F9",
"f@	c #C4C4C4",
"g@	c #CECECF",
"h@	c #D4D3D5",
"i@	c #B1B1B0",
"j@	c #039AFE",
"k@	c #A6A6A6",
"l@	c #ACACAD",
"m@	c #CBCBCC",
"n@	c #C8C8C9",
"o@	c #C6C5C7",
"p@	c #919193",
"q@	c #919FB9",
"r@	c #129AFE",
"s@	c #9F9F9F",
"t@	c #B1B1B3",
"u@	c #7EAFF3",
"v@	c #229CFD",
"w@	c #1199FD",
"x@	c #99999A",
"y@	c #929294",
"z@	c #5B94DA",
"A@	c #8091AE",
"B@	c #269CFD",
"C@	c #9C9C9D",
"D@	c #C4C3C5",
"E@	c #E2E1E4",
"F@	c #BEBDBF",
"G@	c #D7D6D8",
"H@	c #BCBBBD",
"I@	c #B4B3B5",
"J@	c #CECDCF",
"K@	c #8A8A8C",
"L@	c #DFDEE0",
"M@	c #D0CFD1",
"N@	c #C2C1C4",
"O@	c #D6D5D7",
"P@	c #D5D4D7",
"Q@	c #CBCACD",
"R@	c #CDCCCF",
"S@	c #CCCBCE",
"T@	c #89898B",
"U@	c #98989A",
"V@	c #818183",
"W@	c #B1B1B2",
"X@	c #7390BD",
"Y@	c #969698",
"Z@	c #898989",
"`@	c #A9A9A9",
" #	c #B4B4B4",
".#	c #B5B5B5",
"+#	c #909090",
"    . . . . . . . . . . . . . . . . . . . . . . . . . . . . . . . . . . . . . . . .     ",
"    . . . . . . . . . . . . . . . . . + @ . . # . . . . . . . . . . . . . . . . . .     ",
"    . . . . . $ % & * = * - ; > , ' ) ! ~ { ] ^ ^ . . / ~ . . . . . ( _ . . . . . .     ",
"    . . . . . : < [ } | 1 ) 2 3 4 5 6 7 8 9 0 a b a c d ! e e f g h i j k l . . . .     ",
"    . . . . . m n o p e e q 6 r s t u v ! 6 e w b q x x b y z q A B C D E . . . . .     ",
"    . . . . . F G H w I J z b K L M N O P Q R S T U V O W X W O Y E Z `  .... . . .     ",
"    . . . . . . +.@.6 y y z z 7 #.$.%.&.*.&.*.=.-.;.>.-.*.,.'.-.).7 b I !.~.. . . .     ",
"    . . . . . . {.{.1 x q w q ].^./.(.=.&.*._.:.-.'.<.$.[.;.}.|.1.e w J I 2.. . . .     ",
"    . . . . . . . 3.4.5.e 7 p e '.:.6.%.$.$.7._.8.6.'.|.9.0.0.9.u a.x b.z r . . . .     ",
"    . . . . . . . h 5.r d ) c.1 d.[.^.;.e.f.|.$.:.g.,.#.h.$.&.^.i.j.a.v y K k.. . .     ",
"    . . . . . . l.m.p n.d u u o.p.d.q.r.s.d.}.[.0.<.<.>.>.-.(.t.u.5.e v v.w.. . . .     ",
"    . . . . . | x.b.y.-.z.;.7.A.0 B.a.1 } d ! u 5.i.6 e p 7 z b.6 C.w.p D.y E.. . .     ",
"    . . . . 4.r d x )._.$.[.$.i.F.G.r u C.5.K ) ) n.n.a.a.! K w.4.2.4.5.b.H.. . . .     ",
"    . . . . d t 1 f #.$.;.q.I.$.) ~.3 J.K.s ..c r ~.8 G.C.u e L.. . . c a.. . . . .     ",
"    . . . . M.t j.j.f.N.O.e.#.).5 P.. . . . . . Q.@ . . . ' 4.. . . . . . . . . . .     ",
"    . . . . R.a.v b.S.T.N.U.$._.6 3 . . . . . . . . . . . . . . . . . . . . . . . .     ",
"    . . . . s 7 y v.^.U.;.|.0.].5 V.. . . . . . . . . . . . . . . . . . . . . . . .     ",
"    . . . . ..c.K v W.q.e.e.X.Y.Z.. . . . . . . . . . . . . . . . . . . . . . . . .     ",
"    . . . . `.| f a  +.+r.N..+s.++. . . @+. . @+. . . . . . . . . . . . . . . . . .     ",
"    . . . . #+R.M.n.$+;.>.I.$.%+++&+f n.w.) 6 n.j.d 9 . . . . . . . . . . . . . . .     ",
"    . . . . 0 2.s L.*+&.%./.*.,.j.d v v b.x a w.e v c.} d w c =+. . . . . . . . . .     ",
"    . . . / t j.C.c.W.,.:./._.-+d w.;+b.7 x 7 b.q ;+q e p ;+b v >+,+. . . . . . . .     ",
"    . . . c n.5 5 a.0.[.7.I.,.,.'+)+!+~+{+]+&.g./.6.6.I.^+:.:.&.q a./+. . . . . . .     ",
"    . . . L.a.5 5.5 (+q.X.[.[.,._+_+:+<+~+[+I.^._./._.[.-.^.;.,.y q 5.. . . . . . .     ",
"    . . . t ! 6 1 C.M e.%+>.}.}+|+1+2+:+<+3+0.$.I.-.'.;.>.%+|.<.S v.q j.. . . . . .     ",
"    . . . p ;+6 n.c 4+#.^.<.$.5+|+6+7+:+8+9+&.I.q.>.0.#.U.|.;.$.0+J y ! ~.. . . . .     ",
"    . . a+x v a w.) *+'.I.$.%+b+c+d+~+!+e+f+_.%+#.9.h.f.%+$.$.7.).;+z y w 8 . . . .     ",
"    . . . u w.) a q /./.;.#.9.#.g+).$+h+i+j+S. +U N d.O.U.,.'.$.1.! X k+l+m+. . . .     ",
"    . . . + n.t r w.>.[.q.[.#.}.! a f G.M.n+F.F.6 5.o+X.}.7.;.|.#.[._.p+8.q+. . . .     ",
"    . . . 2 + | c F.r+>.$.%.I.<.7 e n.. . s+. . 5.t 0 .+0.7.[.#.N.q.$.t+u+v+w+. . .     ",
"    . . . x+y+y+~.1 0.-.^./.<.i.w.6 s . . . . . z+' ' r.$._.^.>.q.U.,.}+A+B+C+. . .     ",
"    . . . + 2...~.1 D+>.$.&.}.E+| P.. . . . . . . ~ R.F+<./.6.%.9.|.'.*.G+H+I+J+. .     ",
"    . . . . . . . ^ K+L+T.U.. . . . . . . . . . . . M+N+h.$.&.*.}.U.[.O+|+P+Q+R+. .     ",
"    . . . . . . . . . . . . . . . . . . . . . . . . S+8 c w.7 p w.T+F.u U+V+W+X+. .     ",
"    . . . . . . . . . . . . . . . . . . . . . . . . Y+5.} n.7 e v n+t Z+`+ @.@+@. .     ",
"    . . . . . . . . . . . . . . . . . . . . . . . . @@d u L.a.a.6 C.} d #@$@%@&@. .     ",
"    . . . . *@. . . . 3 ' . . . . . . . . . . . . . . P.n.G.5 w.L.8 L.=@#@H %@-@. .     ",
"    . . . ;@>@,@'@)@!@p ;+1 . . . . . . . . . . . . ~@B.t t w.v M.{@4.Z+#@]@.@^@. .     ",
"    . . /@(@_@:@<@+.[@}@|@q N . . . . . . . . . . . 1@x n.t c.p L.+ ) v 2@3@Q+4@. .     ",
"    . 5@6@7@8@9@0@a@b@-.6.%.*.c@. . . . . . . . . . j.e n.f K w.t n.! q v w d@. . . e@  ",
"    . f@g@a.G.2.5.5 h@'.8.&.*.[.] . . . . . . . . . y+c.u n.w.5 n.w.v b.! w.i@. . . j@  ",
"    . k@l@Z.y+m@m@n@o@>.g.%.g.&.F.p@. . . . . . . q@8 u c.u 5 n.F.a ! K 5.| . . . .     ",
"r@  . . s@t@n.! a.n+%+-.8.=.g.g.7 a.B.. . . . . / | ~.w.a u r } 5.a ! K j.u@. v@. .     ",
"w@  . . x@j.) a n+n.N *.&.:.%./.v b.! r y@z@. A@L.1 o+u K 5 G.G.u 5.a q M.. B@. . .     ",
"    . . C@j.C.t 4.f D@;.^.-.,.'./.k+:.E@W.F@x+o+C.u c.G@7.b+H@I@c 5.p f i@. . . . .     ",
"    . . . + F.B.1 t  +I.-.g.&.I.^.8.*.=.^.J@L.r j.a v &.[.h.9.|.d a x ) i@. . . . .     ",
"    . . . K@f K u 7 %.-.%.g.*.0.>.-.,.=.&.c.4.+ 1 6 L@=.I.}.>.'.Q ! c.5 i@. . . . .     ",
"    . . . . | w.w.e =.:._.-.<.;.[.<.I.g.&.M@n+8 G.n.e =._.^.^.,.R 7 ) 7 . . . . . .     ",
"    . . . . #+F.f d D+-.*.'.<.7.}.>.<.g.&.x 5 1 B.f 5 ;.%+I.&.%.1.j.B.. . . . . . .     ",
"    . . . . / n+f j.N@$+'.I.O@P@i.Q@*+g.O K 5 5 F.r f }.R@S@/.|@u . . . . . . . . .     ",
"    . . . . V.j.j.t o+~.n.K ! 7 5.F.5 v p d L.t n+5.5 6 x a.b.) . . . . . . . . . .     ",
"    . . . . . T@s U@V@W@c.7 p b.n+2.C.e w.j.L.+ 5 v x j.j.a.5 2 . . . . . . . . . .     ",
"    . . . . . . . . . =+x q w p n+} f n.6 n++ s } 5 ) 4.t c.Z.. . . . . . . . . . .     ",
"    . . . . . . . . . s f 5.1 | B.5.n+a.x t V.z+@ 9 B.~ =+2.. . . . . . . . . . . .     ",
"    . . . . . . . . . K@Z.X@. Y@0 n.6 5.F.y@. . . . Y@. . . . . . . . . . . . . . .     ",
"    . . . . . . . . . . . . . . Z@`@ #.#+#. . . . . . . . . . . . . . . . . . . . .     ",
"    . . . . . . . . . . . . . . . . . . . . . . . . . . . . . . . . . . . . . . . .     ",
"    . . . . . . . . . . . . . . . . . . . . . . . . . . . . . . . . . . . . . . . .     "};
