/* XPM */
static char * 6_xpm[] = {
"44 58 585 2",
"  	c #009AFE",
". 	c #A3A2A9",
"+ 	c #C3C2C7",
"@ 	c #BDBCC2",
"# 	c #CAC9CF",
"$ 	c #DAD9DF",
"% 	c #D4D3D9",
"& 	c #A1A0A6",
"* 	c #949399",
"= 	c #D1D0D6",
"- 	c #C5C5CA",
"; 	c #86858B",
"> 	c #A09FA5",
", 	c #9C9C9D",
"' 	c #A5A4A9",
") 	c #D5D4DA",
"! 	c #D2D1D7",
"~ 	c #DBDAE0",
"{ 	c #D7D6DC",
"] 	c #DCDBE1",
"^ 	c #E5E4EA",
"/ 	c #E4E3E9",
"( 	c #D6D5DB",
"_ 	c #B7B6BC",
": 	c #9E9DA3",
"< 	c #A3A2A7",
"[ 	c #C4C3C9",
"} 	c #A4A3A9",
"| 	c #929198",
"1 	c #C2C1C7",
"2 	c #CECDD3",
"3 	c #E2E1E7",
"4 	c #DFDEE4",
"5 	c #DDDCE2",
"6 	c #CBCAD0",
"7 	c #D3D2D8",
"8 	c #CFCED4",
"9 	c #C5C4CA",
"0 	c #848389",
"a 	c #A8A7AF",
"b 	c #C4C3CB",
"c 	c #C8C7CF",
"d 	c #C7C6CC",
"e 	c #D3D2D7",
"f 	c #D9D8DE",
"g 	c #D8D7DD",
"h 	c #DCDBE0",
"i 	c #DCDAE0",
"j 	c #D7D6DB",
"k 	c #DCDAE1",
"l 	c #D6D4DB",
"m 	c #919095",
"n 	c #B9B8BD",
"o 	c #D6D5DC",
"p 	c #D2D0D6",
"q 	c #DFDBE0",
"r 	c #E1DDE3",
"s 	c #DCD8DE",
"t 	c #D8D5DA",
"u 	c #DFDBE1",
"v 	c #E0DCE2",
"w 	c #D7D3D9",
"x 	c #DDDADF",
"y 	c #DBD7DD",
"z 	c #D8D4DA",
"A 	c #DAD7DD",
"B 	c #DFDCE2",
"C 	c #DBD8DD",
"D 	c #D9D5DB",
"E 	c #D7D4D9",
"F 	c #87868A",
"G 	c #9D9CA1",
"H 	c #B4B3B8",
"I 	c #E3E2E8",
"J 	c #CDCCD2",
"K 	c #CCCBD1",
"L 	c #E2DDE2",
"M 	c #E4DEE5",
"N 	c #DCD7DD",
"O 	c #D5CFD6",
"P 	c #D6D0D7",
"Q 	c #DCD6DC",
"R 	c #E5DFE5",
"S 	c #E2DDE3",
"T 	c #DFDAE0",
"U 	c #D0CBD1",
"V 	c #D0CAD1",
"W 	c #D8D2D9",
"X 	c #DED9DF",
"Y 	c #DDD7DE",
"Z 	c #E6E0E6",
"` 	c #DAD6DC",
" .	c #B4B3B9",
"..	c #8C8C90",
"+.	c #C5C4C9",
"@.	c #DEDDE3",
"#.	c #C8C7CD",
"$.	c #CDC9CF",
"%.	c #D7D2D8",
"&.	c #DDD8DE",
"*.	c #D2CDD3",
"=.	c #C6C1C7",
"-.	c #C7C2C8",
";.	c #DBD6DC",
">.	c #E4DFE5",
",.	c #E1DCE2",
"'.	c #CCC7CD",
").	c #D1CCD2",
"!.	c #E3DEE4",
"~.	c #DCD9DF",
"{.	c #CBCBD0",
"].	c #C9C8CD",
"^.	c #9A999E",
"/.	c #D5D4D9",
"(.	c #C9C8CE",
"_.	c #BBBBC1",
":.	c #B8B4BA",
"<.	c #C9C4CA",
"[.	c #C0BBC1",
"}.	c #CDC8CE",
"|.	c #DAD5DB",
"1.	c #D4CFD5",
"2.	c #CEC9CF",
"3.	c #E8E3E9",
"4.	c #E1DEE3",
"5.	c #DDDCE1",
"6.	c #D6D5DA",
"7.	c #7586A7",
"8.	c #BDBCC1",
"9.	c #ACABB0",
"0.	c #D9D8DD",
"a.	c #DEDDE2",
"b.	c #C3C2C8",
"c.	c #B8B8BE",
"d.	c #BBB7BD",
"e.	c #CAC5CB",
"f.	c #C4BFC5",
"g.	c #D5D0D6",
"h.	c #CFCAD0",
"i.	c #E6E1E7",
"j.	c #D7D4DA",
"k.	c #DADADE",
"l.	c #D7D7DC",
"m.	c #ABAAAF",
"n.	c #D5D3D8",
"o.	c #D7D5DB",
"p.	c #D8D7DC",
"q.	c #DDDBE2",
"r.	c #D5D3D9",
"s.	c #CCCAD1",
"t.	c #CFCDD4",
"u.	c #C6C4CA",
"v.	c #C4C2C8",
"w.	c #C1BEC4",
"x.	c #C5C2C8",
"y.	c #BFBBC1",
"z.	c #C3BFC5",
"A.	c #C6C3C9",
"B.	c #D2CFD4",
"C.	c #CCC8CE",
"D.	c #BCB8BE",
"E.	c #C3C0C5",
"F.	c #CFCCD1",
"G.	c #CECBD0",
"H.	c #D5D1D7",
"I.	c #D9D4DA",
"J.	c #D0CDD2",
"K.	c #CFCED3",
"L.	c #D2D2D6",
"M.	c #CECDD2",
"N.	c #D1D0D5",
"O.	c #D6D3D9",
"P.	c #DED8DF",
"Q.	c #D8D3DA",
"R.	c #D2CDD4",
"S.	c #D5D0D7",
"T.	c #D6D1D8",
"U.	c #D7D2D9",
"V.	c #D0CBD2",
"W.	c #CCC7CE",
"X.	c #D1CDD4",
"Y.	c #DAD5DC",
"Z.	c #D1CED4",
"`.	c #C2C0C5",
" +	c #A09FA4",
".+	c #AEADB2",
"++	c #99989D",
"@+	c #B5B4B9",
"#+	c #C4C3C8",
"$+	c #D1CED3",
"%+	c #D4D3D8",
"&+	c #DDDDE1",
"*+	c #D2D1D6",
"=+	c #C6C2C8",
"-+	c #D2CCD4",
";+	c #CAC4CB",
">+	c #D0CAD2",
",+	c #C9C3CB",
"'+	c #C1BBC3",
")+	c #D2CCD3",
"!+	c #D5D2D8",
"~+	c #97979B",
"{+	c #C0BFC4",
"]+	c #BEBEC2",
"^+	c #D3CED4",
"/+	c #D9D9DE",
"(+	c #DFDEE3",
"_+	c #BEBDC2",
":+	c #C8C3C9",
"<+	c #CEC9D0",
"[+	c #C9C4CB",
"}+	c #CBC6CD",
"|+	c #CDC8CF",
"1+	c #C7C2C9",
"2+	c #C4BFC6",
"3+	c #C6C1C8",
"4+	c #D4CFD6",
"5+	c #CFCCD2",
"6+	c #B2B1B6",
"7+	c #9C9BA0",
"8+	c #B6B5BA",
"9+	c #C4C1C7",
"0+	c #D7D7DB",
"a+	c #E1E0E5",
"b+	c #A4A3A7",
"c+	c #DDD8DF",
"d+	c #CFCAD1",
"e+	c #CAC5CC",
"f+	c #E0DBE2",
"g+	c #BFBFC4",
"h+	c #CCCACF",
"i+	c #C5C5C9",
"j+	c #C3BEC5",
"k+	c #E3DEE5",
"l+	c #DFD9E2",
"m+	c #CDC8D0",
"n+	c #BDB8BF",
"o+	c #BFBAC1",
"p+	c #A4A2A7",
"q+	c #ACACB1",
"r+	c #C1BEC3",
"s+	c #B0ABB1",
"t+	c #B5B0B6",
"u+	c #D3CDD4",
"v+	c #CECAD0",
"w+	c #939297",
"x+	c #B5B0B7",
"y+	c #DBD6DD",
"z+	c #C1BCC2",
"A+	c #BDB8BE",
"B+	c #BEB9BF",
"C+	c #B9B4BA",
"D+	c #9D989E",
"E+	c #9E9CA1",
"F+	c #AFAAB1",
"G+	c #BAB5BB",
"H+	c #C1BCC1",
"I+	c #BCB7BD",
"J+	c #C0BBC3",
"K+	c #C0BBC2",
"L+	c #9F9DA2",
"M+	c #CDCCD1",
"N+	c #B4B2B7",
"O+	c #BDBBC0",
"P+	c #B9B7BC",
"Q+	c #BAB8BD",
"R+	c #9F9EA3",
"S+	c #8D8C90",
"T+	c #97979D",
"U+	c #C6C4CD",
"V+	c #CEC8D0",
"W+	c #D3CED5",
"X+	c #D6D1D7",
"Y+	c #B4AFB5",
"Z+	c #DBD5DC",
"`+	c #E2DCE2",
" @	c #CCC6CC",
".@	c #C5C1C6",
"+@	c #CDCDD1",
"@@	c #ABAAAE",
"#@	c #C1C1C7",
"$@	c #D4D2DA",
"%@	c #CFCAD2",
"&@	c #D8D3D9",
"*@	c #E2DBE2",
"=@	c #E3DCE3",
"-@	c #E0D9E0",
";@	c #DFD8DF",
">@	c #DCD5DC",
",@	c #E1DAE1",
"'@	c #D8D1D8",
")@	c #D0CAD0",
"!@	c #BFBEC3",
"~@	c #8D8D91",
"{@	c #A9A8AF",
"]@	c #D0CED7",
"^@	c #D0CBD3",
"/@	c #D1CCD3",
"(@	c #D4D1D7",
"_@	c #D4D1D6",
":@	c #CBC6CC",
"<@	c #E0DAE0",
"[@	c #D9D2D9",
"}@	c #CFC8CF",
"|@	c #D7D0D7",
"1@	c #DBD4DB",
"2@	c #D2CBD2",
"3@	c #D3CCD3",
"4@	c #DDD6DD",
"5@	c #D5CED5",
"6@	c #CFC9CF",
"7@	c #D4D2D7",
"8@	c #DBDADF",
"9@	c #DAD9DE",
"0@	c #8C8C8F",
"a@	c #A7A6AD",
"b@	c #CDCBD2",
"c@	c #C9C3C9",
"d@	c #D4CDD4",
"e@	c #D6CFD6",
"f@	c #DAD3DA",
"g@	c #CEC8CE",
"h@	c #D5D2D7",
"i@	c #DCD9DE",
"j@	c #DEDBE0",
"k@	c #D6D4D9",
"l@	c #A1A1A4",
"m@	c #C6C5CB",
"n@	c #E6DFE6",
"o@	c #DED7DE",
"p@	c #D5CFD5",
"q@	c #D7D1D7",
"r@	c #D9D3D9",
"s@	c #E6E0E7",
"t@	c #E7E3E9",
"u@	c #CCCBD0",
"v@	c #579CEB",
"w@	c #BFBEC4",
"x@	c #CECCD2",
"y@	c #D1CAD1",
"z@	c #DDD7DD",
"A@	c #E6E3E9",
"B@	c #B5B5BA",
"C@	c #95A2BE",
"D@	c #D3D1D7",
"E@	c #E0DBE1",
"F@	c #D0C9D0",
"G@	c #D9D3DA",
"H@	c #E5E1E7",
"I@	c #E3E3E7",
"J@	c #B6B5BB",
"K@	c #BCBBC1",
"L@	c #C2BDC3",
"M@	c #D8D2D8",
"N@	c #D3CED3",
"O@	c #CFCACF",
"P@	c #CBC6CB",
"Q@	c #C5C0C6",
"R@	c #CEC9CE",
"S@	c #D4CFD4",
"T@	c #E4E3E8",
"U@	c #BCBBC0",
"V@	c #A7A6AC",
"W@	c #BAB8BF",
"X@	c #D1CBD2",
"Y@	c #DDD9E0",
"Z@	c #D7D3DB",
"`@	c #CDC9D1",
" #	c #A4A0A7",
".#	c #A8A4AC",
"+#	c #BFBBBE",
"@#	c #C9C5C9",
"##	c #D0CCD1",
"$#	c #C7C3C9",
"%#	c #BDB9BF",
"&#	c #E0DDE3",
"*#	c #E8E6EB",
"=#	c #BEBCC5",
"-#	c #BEB9C0",
";#	c #BCB7BE",
">#	c #C2BDC4",
",#	c #DCD8DF",
"'#	c #DEDBE3",
")#	c #D2D1D9",
"!#	c #9B9AA2",
"~#	c #BABABC",
"{#	c #BDBDC3",
"]#	c #CBC9D0",
"^#	c #D4D0D6",
"/#	c #E4DCE5",
"(#	c #E7E0E8",
"_#	c #E6E2E9",
":#	c #CECCD4",
"<#	c #D2CFD5",
"[#	c #D2D2D8",
"}#	c #A6A6AB",
"|#	c #BDBDC2",
"1#	c #AFAFB6",
"2#	c #C5C3CA",
"3#	c #C8C3CA",
"4#	c #DBD3DB",
"5#	c #DFD5DF",
"6#	c #E2DCE4",
"7#	c #E3DFE6",
"8#	c #CECDD5",
"9#	c #D8D3DB",
"0#	c #C3BEC4",
"a#	c #B2ADB3",
"b#	c #979499",
"c#	c #B7B4BB",
"d#	c #CECACF",
"e#	c #D1C9D1",
"f#	c #D2C9D1",
"g#	c #DAD4DC",
"h#	c #B2B3B8",
"i#	c #D8D6DF",
"j#	c #DAD5DD",
"k#	c #AAA5AB",
"l#	c #A6A1A7",
"m#	c #B9B9BF",
"n#	c #C9C6CD",
"o#	c #D3CAD2",
"p#	c #D0C8D0",
"q#	c #D5CFD7",
"r#	c #DFDBE2",
"s#	c #D5D6DB",
"t#	c #CECDD4",
"u#	c #DDDBE4",
"v#	c #DCD6DE",
"w#	c #B8B3B9",
"x#	c #A9A8AE",
"y#	c #DBD8DF",
"z#	c #D4CED5",
"A#	c #CDC6CD",
"B#	c #CEC7CF",
"C#	c #D5CED6",
"D#	c #D5D5DA",
"E#	c #B1B0B6",
"F#	c #D6D4DC",
"G#	c #D9D4DC",
"H#	c #948F94",
"I#	c #A0A0A6",
"J#	c #D9D6DD",
"K#	c #CEC8CF",
"L#	c #D1CBD3",
"M#	c #DEDAE1",
"N#	c #D0CDD4",
"O#	c #D2CED3",
"P#	c #ACA7AD",
"Q#	c #918E94",
"R#	c #BBB6BC",
"S#	c #E0DAE2",
"T#	c #A8A7AD",
"U#	c #8E8B8F",
"V#	c #A6A3A9",
"W#	c #B9B4BB",
"X#	c #DED9E0",
"Y#	c #C1BFC5",
"Z#	c #B3AFB4",
"`#	c #C0C0C6",
" $	c #D9D4DB",
".$	c #E2DDE4",
"+$	c #A8A6AC",
"@$	c #C9C9CF",
"#$	c #DEDBE1",
"$$	c #DCD7DE",
"%$	c #9F9CA2",
"&$	c #D0CCD2",
"*$	c #DBD5DB",
"=$	c #BABABF",
"-$	c #D3D1D6",
";$	c #D1CDD3",
">$	c #9F9DA3",
",$	c #CCCAD0",
"'$	c #CAC7CD",
")$	c #E0DAE1",
"!$	c #DBD9DE",
"~$	c #D9D7DC",
"{$	c #2D9CFD",
"]$	c #279CFD",
"^$	c #B2B2B8",
"/$	c #D4D4DA",
"($	c #D0D0D6",
"_$	c #D3D0D6",
":$	c #DBD4DA",
"<$	c #E0D8DF",
"[$	c #EAE3EA",
"}$	c #E4DDE4",
"|$	c #97969B",
"1$	c #DAD8DD",
"2$	c #B4B4B9",
"3$	c #4094F3",
"4$	c #3296F5",
"5$	c #D0CFD5",
"6$	c #C9C5CC",
"7$	c #E7E0E7",
"8$	c #A3A1A6",
"9$	c #A9A7AC",
"0$	c #B7B6BB",
"a$	c #C7C6CB",
"b$	c #C3C3C7",
"c$	c #D8D5DB",
"d$	c #B6B1B7",
"e$	c #CDCAD0",
"f$	c #ACABAF",
"g$	c #C7C3CA",
"h$	c #CEC7CE",
"i$	c #E8E2E8",
"j$	c #E7E2E8",
"k$	c #9D979E",
"l$	c #A8A2A8",
"m$	c #9D9BA0",
"n$	c #CECED2",
"o$	c #D0D0D5",
"p$	c #D2D0D5",
"q$	c #BFBAC0",
"r$	c #CDCACF",
"s$	c #DED8DE",
"t$	c #E5DEE5",
"u$	c #B9B1B8",
"v$	c #BBB8BE",
"w$	c #C3C3C8",
"x$	c #D0CFD4",
"y$	c #DCDCE0",
"z$	c #D9D6DC",
"A$	c #A9A8AD",
"B$	c #D6D3D8",
"C$	c #E1DBE1",
"D$	c #E8E1E8",
"E$	c #AFABB1",
"F$	c #BBBABF",
"G$	c #D1CFD4",
"H$	c #9B9A9E",
"I$	c #CAC9CE",
"J$	c #DADADF",
"K$	c #DBD8DE",
"L$	c #A5A5A9",
"M$	c #CECED3",
"N$	c #CDCBD0",
"O$	c #CDC7CE",
"P$	c #D2CCD2",
"Q$	c #D1CBD1",
"R$	c #939296",
"S$	c #C6C6CB",
"T$	c #C0BDC2",
"U$	c #A4A1A7",
"V$	c #96959A",
"W$	c #ACACB0",
"X$	c #98959B",
"Y$	c #B7B2B8",
"Z$	c #969298",
"`$	c #DED9DE",
" %	c #DCD7DC",
".%	c #C7C2C7",
"+%	c #C2BFC8",
"@%	c #DDD9E1",
"#%	c #DBD8E0",
"$%	c #D6D3DA",
"%%	c #CCC9CF",
"&%	c #C6C3C8",
"*%	c #C8C4CB",
"=%	c #D2CED6",
"-%	c #D5D1DA",
";%	c #D6D3D6",
">%	c #C5C2C6",
",%	c #AFACB0",
"'%	c #9D9CA3",
")%	c #C4C3CA",
"!%	c #BDBCC3",
"~%	c #C5C4CB",
"{%	c #BBBAC2",
"]%	c #C3C2C9",
"^%	c #CCCBD2",
"/%	c #C1C1C8",
"(%	c #B0B0B4",
"_%	c #B0B1B0",
":%	c #A2A1A7",
"<%	c #ADADB2",
"[%	c #D1D1D6",
"}%	c #CBCACF",
"|%	c #A1A1A6",
"1%	c #A6A5AA",
"2%	c #919196",
"3%	c #A4A3A8",
"4%	c #2E96F2",
"                                                                                        ",
"                                                                                        ",
"                                    . + @                                               ",
"                                    # $ % & * = % - ; >       ,                         ",
"                                  ' ) ! ~ { ! ] ^ / ( _ :   < [ }                       ",
"                                | 1 2 { 3 4 ] 4 / 5 ( ) 3 6 7 8 9 0                     ",
"                            a b c d e $ f { g h i ! j 5 ] $ k 3 l m                     ",
"                      n f ! $ o 2 p q r s t u r v w w x y z A B C D E F                 ",
"                    G H ) I 4 J K D L M N O P Q R S T Q U V W X Y Z `  ...              ",
"                    n +.7 @.7 K #.$.%.&.*.=.-.U ;.>.,.%.'.).N !.,.S ~.{.].              ",
"                  ^././.(.! = 9 _.:.<.'.=.[.}.*.*.;.|.1.2.*.,.3.S ,.4.5.6.7.            ",
"              8.9.j 0.a.J (.6 b.c.d.2.e.=.f.%.g.h.}.g.1.*.g.,.i.i.T j.k.l.+ m.          ",
"              n.h o.p.q.r.s.t.u.v.w.x.y.z.A.B.C.D.E.F.G.H.X I.N ;.I.J.K.L.M.N.          ",
"            O.P.Q.R.S.T.U.V.W.X.Y.Z.`. +  .+++    @+#+M.M.w 1.N %.;.$+%+&+5.*+          ",
"            =+W -+;+W.V.>+,+'+)+T.!+#+            ~+{+]+8.'.^+T I.X A /+j (+_+          ",
"          :+:+Y.<+[+}+|+1+2+3+4+U.5+6+              7+8+9+:+1.X ,.S z *+0+a+b+          ",
"          :+:+Y.S.c+c+d+2+e+W.T.f+Z.                .+g+h+U e.:+N >.j.i+/.p.            ",
"          :+j+>+4+k+l+m+3+n+o+}+2.p+                  q+8+r+s+t+U u+v+w+w+G             ",
"            x+1+<+d+y+[+z+A+B+C+D+                              E+                      ",
"            F+[+1+1+Q.:+G+H+*.I+                                                        ",
"            J+|+K+n+<+|+e.).;.I.          L+M+N+O+P+Q+    R+S+                          ",
"        T+U+V+W+W.1+V.Y.%.X+T |.    Y+X ,.Z+`+S |.I.O  @.@N.+@@@                        ",
"        #@$@%@W+V.W+Q.` ^+).&@*.G+P *@=@*@-@-@;@>@,@,@'@)@e a.0.!@~@                    ",
"        {@]@^@4+/@4+(@_@}.:@1.A+U <@[@}@|@1@|@2@3@4@4@5@6@7@8@9@N.+ 0@                  ",
"        a@b@Q.S.^+h.^+*.c@d@Y e@f@,@|.V U ).'.'.g@|.P.^+1.I.H.h@i@j@k@l@                ",
"        m@! T ;.h.:@2.)+e@-@n@o@o@`+N ).<.h.:@U =.:+&@X+^+p@q@r@&.s@t@u@                ",
"      v@w@x@g.|.2.^+%.I.>@f@1@5@y@z@|.*.'.g.^+U :+e.'.U 2.).%.I.X+X A@8@B@              ",
"      C@_ D@*.g.-.^+E@&.1@d@5@F@2@G@^+).).h.=.:@U g.2.<.h.).&@1.1.N H@I@(+m             ",
"        J@K@<.2.L@:@Y W 5@F@3@F@M@N 1.N@O@P@Q@R@1.I.h.L@}.2.g.^+).S@C a+T@U@            ",
"        V@W@<.Q@I+}.X@X@6@)+O y@|.S Y@Z@`@ #.#+#@###$#%#C.2.).^+h.R@1.&#*#a+.+          ",
"          =#2+-#;#>#<+U |.&.;.<.I.,#'#)#!#        ~#8.{#]#^#U *.2.X@1@/#(#_#2           ",
"          :#%@[+2+1+<+^+%.E@N B+f.<#[#}#            |#1#2#3#h.I.^+U 4#5#6#7#6           ",
"          8#9#T.W+j+j+3+0#h.%.t+a#b#                  } c#f.*.|.g.d#e#f#g#_#~ h#        ",
"        # i#j#Q.T.W.<+n+z+=.Q@k#l#                    m#n#g.X+X+&@^#o#p#q#r#] s#        ",
"        t#u#v#Y.T.d+W.e.0#:+:+w#                      x#y#V.U *.%.z#A#B#C#,#~ D#        ",
"        E#F#G#&.I.2.:@^+:@f.'.:+H#                    I#J#:@e.e.:@K#-.L#O M#B N#        ",
"        * o.|.&@X O#*.E@X ;.X+%.P#                      Q#R#Q@U f.B+L@W+U.S#M V.        ",
"        T#2#e.g.I.1.|.%.I.;.;.g.U#                      V#<.}.&@z+k#W#<+4+X#f+V.        ",
"          Y#:+^+:@e.&@U N ;.N Z#                      `#N#}.U E@*.[.<. $f+.$X# $        ",
"          +$[.f.Q@f.2.2.X+%.X :+                      @$#$g.^+X h.<./@$$f+.$f+          ",
"            %$s+f.=.&$W.<.*$E@X                       =$-$).'.1.2.U Y.M#X#y+;$          ",
"              >$u.,$J '$3@-@)$Z K#                  ' +.(@}.U =.e.2.(@!$!$~$E+          ",
"{$]$          ^$/$($2 _$:$<$*@[$}$                |$' M.1$U -.Y+B+).7@k.k.2$            ",
"3$4$          9 5$J 2 6$}@Q o@*@7$L@8$9$        0$a$!@b$c$).'.d$I+<.e$0.9@f$            ",
"              n m@8 J g$h$G@=@o@*@i$j$Z+u+k$l$m$n$M.N.o$p$^+<.I+Y+q$r$a.p.m.            ",
"              > #.7 2 X.'@s$t$>@1@*@7$;@'@2@u$v$w$x$p.y$n.h.2.h.0#=.z$5.N.{+            ",
"              A$K = ~ B$5@*$C$G@d@o@}$*@D$>@;+E$F$u@6.a.G$h.*.&@g.1.j@p.M.^.            ",
"              H$I$e J$K$;.N |.%.*.|.X T `+%.:@A+I+r$z >.Y &@%.%.N N t I$L$              ",
"                n ].M$N$).g.%.&@&@I.;.;.,.;.^+}.e.O$P$u+Q$g.;.X X %.y.R$                ",
"                8+K.S$T$U I.I.I.|.X+X+%.&@X+U 1.).2.}.^+%.U I.S N :@U$                  ",
"                V$!@W$X$G+*.I.I.&@*.<.U X |.:@}.U ^+1.^+g.I.%.X 1.Y$                    ",
"                        Z$O@`$ % $).-.}.;.%..%Q@W.S@E@ %%.N@^+1.I+                      ",
"                          +%@%#%$%<#_@%%J.5+&%9+*%=%#%-%e$;%>%,%                        ",
"                          '%)%!%m@%+0.x$p.M+9 ~%{%]%^%/%(%_%                            ",
"                                :%<%[%*+%+}%|%1%}#2%3%                                  ",
"                                    1%m.m.4%                                            ",
"                                                                                        ",
"                                                                                        "};
