/* XPM */
static char * 7_xpm[] = {
"44 58 468 2",
"  	c #009AFE",
". 	c #6687B7",
"+ 	c #A7A8AD",
"@ 	c #9D9CA2",
"# 	c #79797E",
"$ 	c #7F7F83",
"% 	c #818186",
"& 	c #919195",
"* 	c #B8B7BC",
"= 	c #D1D0D6",
"- 	c #AFAFB4",
"; 	c #2795F1",
"> 	c #9E9DA2",
", 	c #C5C4CA",
"' 	c #D0CFD5",
") 	c #C1C0C6",
"! 	c #A0A0A5",
"~ 	c #78787C",
"{ 	c #CFCED3",
"] 	c #DCDBE0",
"^ 	c #DAD9DE",
"/ 	c #DFDEE3",
"( 	c #D8D7DC",
"_ 	c #C5C4C9",
": 	c #C4C4C9",
"< 	c #CECED3",
"[ 	c #C1C1C6",
"} 	c #96959A",
"| 	c #97969B",
"1 	c #BBBABF",
"2 	c #DBDADF",
"3 	c #D2D1D6",
"4 	c #ADACB1",
"5 	c #B1B1B6",
"6 	c #C9C8CE",
"7 	c #D3D2D7",
"8 	c #D1D0D5",
"9 	c #B3B2B7",
"0 	c #BBBAC0",
"a 	c #CAC9CE",
"b 	c #C7C7CC",
"c 	c #BBBBC0",
"d 	c #B8B8BD",
"e 	c #B3B3B8",
"f 	c #CAC9CF",
"g 	c #D7D6DC",
"h 	c #C6C6CB",
"i 	c #B3B3B9",
"j 	c #96979C",
"k 	c #7C7C80",
"l 	c #CECDD2",
"m 	c #DEDDE2",
"n 	c #DBDADE",
"o 	c #D6D5D9",
"p 	c #E1DFE3",
"q 	c #E4E4E7",
"r 	c #E3E3E6",
"s 	c #E4E3E8",
"t 	c #C2C1C6",
"u 	c #A9A8AD",
"v 	c #C6C5CA",
"w 	c #D2D1D5",
"x 	c #DBD9DD",
"y 	c #DCDBDF",
"z 	c #D3D3D6",
"A 	c #D7D6DA",
"B 	c #E0DFE4",
"C 	c #CBCACE",
"D 	c #E2E1E6",
"E 	c #D4D3D8",
"F 	c #E5E4E9",
"G 	c #E3E2E7",
"H 	c #DBDAE0",
"I 	c #CCCCD2",
"J 	c #ADAEB3",
"K 	c #77767B",
"L 	c #CBCACF",
"M 	c #D1D0D3",
"N 	c #D0D0D2",
"O 	c #DBD9DC",
"P 	c #DFDEE0",
"Q 	c #E2E0E3",
"R 	c #E6E4E8",
"S 	c #E3E2E5",
"T 	c #E2E1E4",
"U 	c #D0D0D4",
"V 	c #C1C0C5",
"W 	c #C0BFC4",
"X 	c #CCCCCF",
"Y 	c #DEDCDF",
"Z 	c #DCDCE0",
"` 	c #DEDDE0",
" .	c #D9D8DC",
"..	c #D4D2D6",
"+.	c #D8D7DA",
"@.	c #E0DEE1",
"#.	c #E3E3E7",
"$.	c #DEDDE1",
"%.	c #DDDCDF",
"&.	c #DBDADD",
"*.	c #DFDFE2",
"=.	c #AAAAAF",
"-.	c #C4C3C8",
";.	c #C7C6CB",
">.	c #CDCCD1",
",.	c #D5D4D9",
"'.	c #CFCFD2",
").	c #CECCCF",
"!.	c #D4D2D5",
"~.	c #D6D5D8",
"{.	c #E4E3E7",
"].	c #E3E1E4",
"^.	c #E3E2E6",
"/.	c #E1E0E5",
"(.	c #CAC9CC",
"_.	c #C8C7CB",
":.	c #D7D6DB",
"<.	c #D9D7DA",
"[.	c #DDDBDE",
"}.	c #DBDADC",
"|.	c #D1D1D4",
"1.	c #D1CFD2",
"2.	c #D5D3D6",
"3.	c #DBDBDE",
"4.	c #D9D8DA",
"5.	c #D3D1D4",
"6.	c #DFDEE1",
"7.	c #E6E5EA",
"8.	c #AFAEB3",
"9.	c #7B7A7F",
"0.	c #B7B6BB",
"a.	c #BBBABE",
"b.	c #C6C4C7",
"c.	c #C2C0C3",
"d.	c #C9C7CA",
"e.	c #D8D6D8",
"f.	c #E1DFE2",
"g.	c #DCDCDF",
"h.	c #D3D2D6",
"i.	c #E1E0E4",
"j.	c #DFDDE0",
"k.	c #DEDCE0",
"l.	c #DFDEE2",
"m.	c #DDDDE0",
"n.	c #D2D1D3",
"o.	c #D7D5D8",
"p.	c #D8D6D9",
"q.	c #D2D1D4",
"r.	c #D0CED1",
"s.	c #DDDBDF",
"t.	c #E4E3E5",
"u.	c #E1E1E3",
"v.	c #B0AFB4",
"w.	c #8D8C91",
"x.	c #C5C4C8",
"y.	c #C2C2C4",
"z.	c #BEBCBF",
"A.	c #B9B7BA",
"B.	c #AFADB0",
"C.	c #B8B6B9",
"D.	c #CECCCD",
"E.	c #DAD8DB",
"F.	c #D8D7D9",
"G.	c #E4E2E5",
"H.	c #D9D7D9",
"I.	c #DAD9DC",
"J.	c #D6D4D7",
"K.	c #CFCDD0",
"L.	c #CBCACD",
"M.	c #CAC8CB",
"N.	c #CDCBCE",
"O.	c #D2D0D2",
"P.	c #D9D8DB",
"Q.	c #DDDDDF",
"R.	c #DDDDE1",
"S.	c #AEAEB3",
"T.	c #D6D5DA",
"U.	c #D0CFD3",
"V.	c #D2D2D4",
"W.	c #CFCFD1",
"X.	c #BBB9BC",
"Y.	c #B3B1B4",
"Z.	c #B3B3B5",
"`.	c #C7C5C8",
" +	c #D4D2D3",
".+	c #D1CFD1",
"++	c #DCDADD",
"@+	c #CBC9CB",
"#+	c #CBC9CC",
"$+	c #DEDCDE",
"%+	c #C8C6C9",
"&+	c #C5C3C5",
"*+	c #C6C4C6",
"=+	c #CCCACD",
"-+	c #B7B7BC",
";+	c #D9D9DB",
">+	c #C3C1C4",
",+	c #C1C0C2",
"'+	c #C1BFC2",
")+	c #C8C7CA",
"!+	c #D3D3D5",
"~+	c #BCBABC",
"{+	c #B5B4B7",
"]+	c #BEBDBF",
"^+	c #C9C7C9",
"/+	c #C9C7C8",
"(+	c #BEBCBE",
"_+	c #D5D3D4",
":+	c #DBD9DB",
"<+	c #E2E1E5",
"[+	c #CCCBCD",
"}+	c #D4D3D6",
"|+	c #8B8B8F",
"1+	c #CECDD3",
"2+	c #DDDCE1",
"3+	c #D4D3D5",
"4+	c #DCDBDD",
"5+	c #E0DFE2",
"6+	c #D2D0D3",
"7+	c #C7C6C9",
"8+	c #CECDD0",
"9+	c #BAB8BB",
"0+	c #ABABAD",
"a+	c #BCBBBD",
"b+	c #BCBABD",
"c+	c #CFCDCF",
"d+	c #CCCACB",
"e+	c #CFCDCE",
"f+	c #D4D2D4",
"g+	c #E2E0E4",
"h+	c #D7D5D7",
"i+	c #CFCED0",
"j+	c #C6C6C8",
"k+	c #CDCCCE",
"l+	c #B4B4B6",
"m+	c #C0BEC1",
"n+	c #CFCED1",
"o+	c #D0CFD2",
"p+	c #D1D0D2",
"q+	c #D5D4D6",
"r+	c #C4C2C5",
"s+	c #72A2E3",
"t+	c #A1A0A5",
"u+	c #C2C2C5",
"v+	c #C9C9CC",
"w+	c #D6D5D7",
"x+	c #CAC8C9",
"y+	c #C9C8CA",
"z+	c #D3D2D4",
"A+	c #C7C7C9",
"B+	c #C5C4C6",
"C+	c #AEAEB0",
"D+	c #BBBBBD",
"E+	c #BAB9BB",
"F+	c #D0CFD1",
"G+	c #C6C4C5",
"H+	c #CBCACC",
"I+	c #BAB9BC",
"J+	c #B2B0B3",
"K+	c #757479",
"L+	c #9A999E",
"M+	c #BEBEC1",
"N+	c #CDCCCF",
"O+	c #ABAAAD",
"P+	c #C0C0C2",
"Q+	c #CBCBCD",
"R+	c #BDBDBF",
"S+	c #9A9A9C",
"T+	c #949396",
"U+	c #99999B",
"V+	c #88888A",
"W+	c #A1A1A3",
"X+	c #A0A0A3",
"Y+	c #B3B2B5",
"Z+	c #B1B1B3",
"`+	c #B8B8BA",
" @	c #BEBCBD",
".@	c #BAB8B9",
"+@	c #BFBDC0",
"@@	c #D2D0D4",
"#@	c #87868A",
"$@	c #BEBDC2",
"%@	c #ADADB0",
"&@	c #8D8C8F",
"*@	c #919194",
"=@	c #8C8C8F",
"-@	c #959499",
";@	c #99999D",
">@	c #949397",
",@	c #8B8B8D",
"'@	c #949496",
")@	c #A5A4A5",
"!@	c #A4A2A4",
"~@	c #D9D8DD",
"{@	c #8D8D8F",
"]@	c #9D9D9F",
"^@	c #B0AEB1",
"/@	c #BCBBBE",
"(@	c #C3C2C6",
"_@	c #C2C1C4",
":@	c #C0BEBF",
"<@	c #C5C5C7",
"[@	c #CACACD",
"}@	c #AEADB2",
"|@	c #ABAAAC",
"1@	c #C3C3C6",
"2@	c #B6B4B7",
"3@	c #D5D4D7",
"4@	c #A8A7AB",
"5@	c #9D9CA0",
"6@	c #C2C1C3",
"7@	c #BEBDC0",
"8@	c #C7C6C8",
"9@	c #C8C8CA",
"0@	c #D2D2D6",
"a@	c #B5B4B8",
"b@	c #8A8A8C",
"c@	c #C5C3C6",
"d@	c #C9C8CB",
"e@	c #BFBEC1",
"f@	c #B8B7B9",
"g@	c #B3B2B4",
"h@	c #B6B6B9",
"i@	c #BDBDC0",
"j@	c #B6B5BA",
"k@	c #807F84",
"l@	c #C5C4C7",
"m@	c #C3C3C5",
"n@	c #ABABAF",
"o@	c #9B9B9F",
"p@	c #CACACC",
"q@	c #B9B8BD",
"r@	c #A2A1A6",
"s@	c #8E8E90",
"t@	c #CDCDCF",
"u@	c #D4D3D7",
"v@	c #D2D2D5",
"w@	c #BEBDC1",
"x@	c #8F8F92",
"y@	c #BCBBBF",
"z@	c #BFBFC1",
"A@	c #CECDD1",
"B@	c #D8D8DB",
"C@	c #C3C2C4",
"D@	c #D7D6D9",
"E@	c #BDBDC1",
"F@	c #8E8D92",
"G@	c #B3B2B6",
"H@	c #C7C6CA",
"I@	c #D3D2D5",
"J@	c #949398",
"K@	c #ACABB0",
"L@	c #C4C4C6",
"M@	c #CBCBCE",
"N@	c #D7D6D8",
"O@	c #D3D3D7",
"P@	c #9F9EA2",
"Q@	c #99989D",
"R@	c #C2C2C6",
"S@	c #D0D0D3",
"T@	c #C0BEC0",
"U@	c #CAC8CA",
"V@	c #CAC9CB",
"W@	c #C8C7CC",
"X@	c #CDCCD0",
"Y@	c #D7D7DA",
"Z@	c #C4C2C3",
"`@	c #D6D6D9",
" #	c #DAD9DD",
".#	c #CECED0",
"+#	c #C4C3C7",
"@#	c #D0CED0",
"##	c #D5D3D5",
"$#	c #C1C1C4",
"%#	c #C7C7CA",
"&#	c #A8A7AC",
"*#	c #CCCCCE",
"=#	c #B7B7B9",
"-#	c #BDBCC0",
";#	c #A7A6AA",
">#	c #D0CFD4",
",#	c #B9B9BB",
"'#	c #B8B7BA",
")#	c #C0BFC1",
"!#	c #C8C7C9",
"~#	c #A09FA4",
"{#	c #B4B3B8",
"]#	c #D8D7DB",
"^#	c #C4C3C5",
"/#	c #BAB9BE",
"(#	c #86868A",
"_#	c #B5B4B9",
":#	c #CFCED2",
"<#	c #A6A5AA",
"[#	c #B1B0B5",
"}#	c #C3C3C7",
"|#	c #C0C0C3",
"1#	c #848387",
"2#	c #919297",
"3#	c #C7C7CB",
"4#	c #E5E4E7",
"5#	c #7F7F81",
"6#	c #BCBCC1",
"7#	c #E4E3E6",
"8#	c #BDBDC3",
"9#	c #DADADC",
"0#	c #A9A9AD",
"a#	c #C6C5CB",
"b#	c #C9C8CD",
"c#	c #BEBEC0",
"d#	c #BBBBBF",
"e#	c #8F8E94",
"f#	c #BDBCBE",
"g#	c #939296",
"h#	c #C6C5C8",
"i#	c #C1C0C3",
"j#	c #D1D1D5",
"k#	c #C9C9CB",
"l#	c #D8D8DA",
"m#	c #D1D1D3",
"n#	c #CECDCF",
"o#	c #E1E0E3",
"p#	c #AAA9AE",
"q#	c #959498",
"r#	c #DCDBDE",
"s#	c #BABABC",
"t#	c #B3B2B8",
"u#	c #CCCBCE",
"v#	c #B9B8BB",
"w#	c #CCCCD0",
"x#	c #8C8B8F",
"y#	c #8A8B8F",
"z#	c #CCCBCF",
"A#	c #A7A7AB",
"B#	c #8D8D91",
"C#	c #CACACE",
"D#	c #C4C4C7",
"E#	c #DDDCDE",
"F#	c #A1A1A5",
"G#	c #D5D4D8",
"H#	c #DDDCE0",
"I#	c #DAD9DB",
"J#	c #CECCCE",
"K#	c #C1BFC1",
"L#	c #B6B5B8",
"M#	c #C6C4C8",
"N#	c #CCCBD0",
"O#	c #B6B6BB",
"P#	c #DBDBDD",
"Q#	c #8D8E92",
"R#	c #D1CFD3",
"S#	c #DEDEE1",
"T#	c #E6E5E9",
"U#	c #ABABB0",
"V#	c #BFBEC2",
"W#	c #D7D7D9",
"X#	c #BDBCC1",
"Y#	c #89888D",
"Z#	c #A8A8AD",
"`#	c #DCDADE",
" $	c #BCBCBE",
".$	c #A5A4A9",
"+$	c #8F8E92",
"@$	c #A2A1A5",
"#$	c #B7B6B9",
"$$	c #858489",
"%$	c #AAA9AD",
"&$	c #9D9CA1",
"                                                                                        ",
"                    .                     + @                                           ",
"          # $ % & * = -   ;           > , ' )                             !             ",
"        ~ , { ] ^ ^ / ( _ : < [ ! } | 1 ^ 2 3 4 5 6 7 8 9 0 a b c d   e f g h i j       ",
"        k l m / n o p q r s s ^ a t u v w x y z A ] / B n C ( / D B 7 E s F G H I J     ",
"        K L ( 3 M N O P Q R S T / U V W X Y Q Y Z / `  ...+.@.G #.$.%.&.*.T F s ] ) =.  ",
"        | -.;.>.,.'.).!.~.{.].^./.+.(._.:.<.[.}.y m $.|.1.2.[.` 2 3.4.5.O 6.F 7.D E 8.  ",
"        9.4 0.a.C M b.c.d.e.@.f.p g.h.A i.Y j.Y k.l.m.n.).o.p.q.M r.1.o.O s.#.t.u.^ v.  ",
"        w.V t x.y.z.A.B.C.D.[.Y O E.F.6.G.@.H.o.!.I.P Y O J.K.L.).M.N.O.r.J.P.Q.R.,.0.  ",
"        S.T.U.V.W.X.Y.Z.X.`.!.J. +.+).5.++<.@+`.#+O.$+G.Y 5.`.%+2.2.K.&+*+=+5.Y D D E   ",
"        -+T.( ;+!.>+,+w N.'+)+!+#+~+{+]+^+/+(+z.M.D._+:+p.r.#+).@.<+O %+[+!+}+j.S F C   ",
"      |+1+^ 2+Q.3+M.=+4+5+6+7+L.8+9+0+a+M.'+b+>+5.c+d+e+!.f+5.p.Q G.@.b.#+2.P.g.g+2+    ",
"      _ ^ ( y P h+c+1.E.@.[.i+j+k+X.l+m+d.n+o+p+++6+D.D.1.5.o.q+o.O 6+r+c.`.N.4.<+D s+  ",
"      t+u+v+w+[.h+x+y+z+5.<.K.A+B+y.C+D+E+i+F+2.2.6+O.d+G+=+=+F+w+J.b.H+I+J+N.O <+/.    ",
"        K+L+M+M N+J+O+P+Q+v+R+S+T+j+U+V+W+X+Y+P+Z+`+a+ @.@z.c.N.j.@.++q+b.+@@@^ 2+V     ",
"            #@$@%@&@*@=@-@;@      >@,@              '@)@!@9+X.*+H.@.].++N.d.}+~@,.      ",
"                                                  {@]@^@/@(@_@~+:@1.5+Y q+<@[@:.}@      ",
"                                                  |@C.c.n+V.1@D+2@b+1.!.3@v 4@5@        ",
"                                                * n r.N.(.H+6@7@Z+J+8@9@0@a@            ",
"                                              b@5.j.!.c@d@m+e@9@f@g@h@i@j@              ",
"                                            k@0.o+).l@m@y+d.c@W.N i@n@}@L+              ",
"                                            o@;.[@L.<@p@Q+e@y.4.I.>.q@r@                ",
"                                        s@t@9@m@u@v@8+!.o.`.+@N.!.7 w@                  ",
"                                        x@y@z@A@B@4.p.p.q+C@z.).D@ .E@                  ",
"                                        F@G@H@9@V.;+6+o.M r+M.I@ .2 J@                  ",
"                                        -@K@x.L@M@N@#+r.1.b.N.q.O@P@                    ",
"                                      Q@v.V R@S@n }+T@:@U@d@V@|.o                       ",
"                                    |+W@U.X@a 0@Y@F+Z@^+B+C@t@`@a@                      ",
"                                  -@;. #.#A+_@+#N+N.@###r+$#v+%#                        ",
"                                  &#:. .*#m@=#y.(.=+6+q.e@-#$@5@                        ",
"                              ;#a ># #Q.N L@,#'#)#!#N *#1 ~#                            ",
"                                {#3 ,.]#n+L.^#r+>+b.V@/@/#(#                            ",
"                                  _#L 7 N 2.O 2.1.2.4.:#>.<#                            ",
"                                  [#}#|#*#2.%.}+o.[.@.$.E 1#                            ",
"                                2#$@_ 3#p@)+[+#+J.O 5+4#2+5#                            ",
"                              2#6#{ X@8@<@.#y+).K.p.Q.7#l                               ",
"                            % 8#;.C Q+p@*#F+c@M.#+N.9#g.0#                              ",
"                            a#b#;.j+_@c#A+#+M.n+q.W. .d#                                ",
"                          e#T.3 U.M.+@+@9+C.f#Q+~.9#g.g#                                ",
"                          4 ( z F+).c.h#(+C.e@i#:#A j#                                  ",
"                          /#j#k#=+%+8@l#5.d.b.c@m#$.:.                                  ",
"                          K@l M@e@>+1.[.<.%+M.n#;+o#/.p#                                ",
"                          9 A q.%+#+r.4.q+c.B+6+o.Y B q#                                ",
"                        L+>.r#O n#V@V.D@d.{+s#L@n+n _                                   ",
"                        t#,.+.<.b.u#q.+.&+v#s#P+w#>#x#                                  ",
"                        y#[ z#t@`+=#q.++o.K.!#C 3 A#                                    ",
"                        B#C#>#T.D#Y+=+O +.E#J.}+{                                       ",
"                      F#8 G#y H#N+C.>+[+=+I@+.] -.                                      ",
"                      ^ D I.;+I#J#K#L#y.M#7 n / N#                                      ",
"                      ' Y@A 4.2.K.%+b+B+=+D@m B _                                       ",
"                      O#-.>.]#6+1.1.`.c@N.P#^.s {                                       ",
"                      Q#c t q.6+J.2.=+b.R#S#S T#{ F@                                    ",
"                        U#V#N#P.O p.K.B+[@W#5+D X#Y#                                    ",
"                        Z#j@8 2 `#}.N  $b#3@Y@l L+                                      ",
"                        > 9 l ^ ~@<@R+m@^#p@O@0.1#                                      ",
"                          .${#_#u +$@$#$s#:#l v.                                        ",
"                          $$%$$         x#~#&$                                          ",
"                                                                                        "};
