/* XPM */
static char * 8_xpm[] = {
"44 58 375 2",
"  	c #009AFE",
". 	c #8D8D8E",
"+ 	c #89898B",
"@ 	c #BFBFC1",
"# 	c #ABABAD",
"$ 	c #747476",
"% 	c #B5B5B7",
"& 	c #D5D5D7",
"* 	c #DADADC",
"= 	c #BDBDBF",
"- 	c #9E9E9E",
"; 	c #4F77AC",
"> 	c #308DE2",
", 	c #838286",
"' 	c #98989A",
") 	c #C7C7C9",
"! 	c #DBDBDD",
"~ 	c #D9D9DB",
"{ 	c #D4D4D6",
"] 	c #C2C2C4",
"^ 	c #C6C6C8",
"/ 	c #AFAFB1",
"( 	c #828285",
"_ 	c #C5C4C9",
": 	c #BFBEC3",
"< 	c #A9A8AD",
"[ 	c #ABAAAF",
"} 	c #A3A2A7",
"| 	c #9E9DA2",
"1 	c #A0A0A2",
"2 	c #CECED0",
"3 	c #D7D7D9",
"4 	c #E0E0E2",
"5 	c #DEDEE0",
"6 	c #E3E3E5",
"7 	c #E5E5E7",
"8 	c #DFDFE1",
"9 	c #D1D1D5",
"0 	c #B2B1B7",
"a 	c #B0AFB5",
"b 	c #B9B8BD",
"c 	c #BDBCC1",
"d 	c #BEBDC2",
"e 	c #2B97F4",
"f 	c #D0D0D1",
"g 	c #DDDCE1",
"h 	c #E1E0E6",
"i 	c #DAD9DF",
"j 	c #C9C8CD",
"k 	c #C4C3C9",
"l 	c #BFBEC1",
"m 	c #B9B8BA",
"n 	c #BCBBBD",
"o 	c #C9C9CB",
"p 	c #DCDCDE",
"q 	c #E2E2E4",
"r 	c #D8D8DA",
"s 	c #D8D7DC",
"t 	c #D9D8DD",
"u 	c #DBDADF",
"v 	c #D8D7DD",
"w 	c #AAAAAC",
"x 	c #C1C1C3",
"y 	c #D8D8DB",
"z 	c #E0E0E4",
"A 	c #DDDCE0",
"B 	c #DEDDE1",
"C 	c #DBDBDE",
"D 	c #D1CFD2",
"E 	c #C4C2C5",
"F 	c #CBC9CC",
"G 	c #D4D3D6",
"H 	c #D8D7D9",
"I 	c #D9D8DB",
"J 	c #D9D8DA",
"K 	c #DCDBDE",
"L 	c #D8D7DA",
"M 	c #D3D2D5",
"N 	c #DDDDE1",
"O 	c #E1E0E4",
"P 	c #E1E0E5",
"Q 	c #C5C4C8",
"R 	c #B2B2B4",
"S 	c #939395",
"T 	c #D9D9DA",
"U 	c #E1E1E3",
"V 	c #DBD9DC",
"W 	c #D9D7DA",
"X 	c #E1DFE2",
"Y 	c #DFDDE0",
"Z 	c #DDDBDE",
"` 	c #DCDADD",
" .	c #E2E0E3",
"..	c #DEDCDF",
"+.	c #DAD9DB",
"@.	c #DBDADD",
"#.	c #CDCDCF",
"$.	c #B8B8BA",
"%.	c #8D8D8F",
"&.	c #A1A1A3",
"*.	c #ADADAE",
"=.	c #DADADD",
"-.	c #DAD9DC",
";.	c #D6D4D7",
">.	c #E4E2E5",
",.	c #D7D5D8",
"'.	c #D2D0D3",
").	c #CECED1",
"!.	c #D2D2D5",
"~.	c #D6D6D8",
"{.	c #A6A6A8",
"].	c #C0C0C2",
"^.	c #ACACAE",
"/.	c #B0B0B2",
"(.	c #BCBCBE",
"_.	c #C4C4C6",
":.	c #D1D1D3",
"<.	c #CFCFD1",
"[.	c #CACACC",
"}.	c #C9C7CA",
"|.	c #DAD8DB",
"1.	c #C6C4C7",
"2.	c #C7C5C8",
"3.	c #CDCBCE",
"4.	c #CECDD0",
"5.	c #CCCCCE",
"6.	c #C8C8CA",
"7.	c #C3C3C5",
"8.	c #D0D0D2",
"9.	c #B3B3B5",
"0.	c #B0AEB1",
"a.	c #C2C0C3",
"b.	c #C3C1C4",
"c.	c #B8B6B9",
"d.	c #CFCDD0",
"e.	c #D4D2D5",
"f.	c #D8D6D9",
"g.	c #D2D1D3",
"h.	c #D3D3D5",
"i.	c #A6A6A6",
"j.	c #DDDDDF",
"k.	c #CBCBCD",
"l.	c #B6B6B8",
"m.	c #ADADAF",
"n.	c #BBB9BC",
"o.	c #C8C6C9",
"p.	c #D3D1D4",
"q.	c #CCCACD",
"r.	c #E6E6E8",
"s.	c #D2D2D4",
"t.	c #969698",
"u.	c #CFCFCF",
"v.	c #D5D4D6",
"w.	c #D1D0D2",
"x.	c #CECCCF",
"y.	c #BEBEC0",
"z.	c #C5C4C7",
"A.	c #C3C2C5",
"B.	c #CBCACD",
"C.	c #CCCBCE",
"D.	c #D1D0D3",
"E.	c #D5D3D6",
"F.	c #DDDCDF",
"G.	c #BCBCBF",
"H.	c #87878A",
"I.	c #CACACA",
"J.	c #CECDCF",
"K.	c #D5D4D7",
"L.	c #8B8B8D",
"M.	c #A3A3A5",
"N.	c #B7B7B9",
"O.	c #CAC8CB",
"P.	c #D0CED1",
"Q.	c #D7D6D8",
"R.	c #DEDDE2",
"S.	c #B2B2B2",
"T.	c #BFBEC0",
"U.	c #C0BEC1",
"V.	c #D2D1D4",
"W.	c #8C8C8E",
"X.	c #BFBDC0",
"Y.	c #DEDDDF",
"Z.	c #A3A3A4",
"`.	c #C0BFC1",
" +	c #818183",
".+	c #9B9B9D",
"++	c #A5A5A7",
"@+	c #BAB8BB",
"#+	c #C1BFC2",
"$+	c #8F8F91",
"%+	c #E0DFE1",
"&+	c #D9D9DC",
"*+	c #7C7C7E",
"=+	c #D6D5D8",
"-+	c #B1B1B3",
";+	c #8E8E90",
">+	c #B4B4B6",
",+	c #B9B7BA",
"'+	c #B4B2B5",
")+	c #C2C1C4",
"!+	c #8C8C8D",
"~+	c #BBBBBD",
"{+	c #B7B5B8",
"]+	c #B6B4B7",
"^+	c #9C9B9E",
"/+	c #949496",
"(+	c #AEAEB0",
"_+	c #C5C5C7",
":+	c #A8A8AA",
"<+	c #DCDCDD",
"[+	c #A4A4A4",
"}+	c #9E9EA0",
"|+	c #C9C8CB",
"1+	c #B7B7B8",
"2+	c #CCCBCD",
"3+	c #9D9D9E",
"4+	c #9D9D9D",
"5+	c #CDCCCE",
"6+	c #A4A4A6",
"7+	c #9A9A9C",
"8+	c #757576",
"9+	c #D7D5D6",
"0+	c #D4D2D3",
"a+	c #D8D7D8",
"b+	c #BABABC",
"c+	c #DAD8D9",
"d+	c #DEDCDE",
"e+	c #D5D3D5",
"f+	c #D7D6D7",
"g+	c #D7D6D9",
"h+	c #B2B0B3",
"i+	c #99999B",
"j+	c #C5C3C6",
"k+	c #D2D0D2",
"l+	c #DCDADC",
"m+	c #DEDCDD",
"n+	c #E1DFE0",
"o+	c #D5D3D4",
"p+	c #CAC9CC",
"q+	c #BEBCBF",
"r+	c #E0DEDF",
"s+	c #CDCBCC",
"t+	c #C6C4C5",
"u+	c #C9C7C9",
"v+	c #C7C6C9",
"w+	c #DCDADB",
"x+	c #CECCCD",
"y+	c #CAC8C9",
"z+	c #D4D2D4",
"A+	c #BDBBBE",
"B+	c #DDDCDE",
"C+	c #DAD9DA",
"D+	c #CFCDCE",
"E+	c #CBC9CA",
"F+	c #D3D2D4",
"G+	c #C7C5C7",
"H+	c #C1BFC1",
"I+	c #CFCED1",
"J+	c #C9C8CA",
"K+	c #B9B8BB",
"L+	c #B9B9BB",
"M+	c #C1C0C2",
"N+	c #BCBABD",
"O+	c #B3B1B4",
"P+	c #C8C8CB",
"Q+	c #A8A8A8",
"R+	c #D4D3D5",
"S+	c #C4C3C5",
"T+	c #ACAAAD",
"U+	c #B5B4BA",
"V+	c #919191",
"W+	c #CECECE",
"X+	c #C0BFC2",
"Y+	c #969598",
"Z+	c #B5B3B6",
"`+	c #AEACAF",
" @	c #DDDDE0",
".@	c #C9C8CE",
"+@	c #A8A7AC",
"@@	c #8F8F90",
"#@	c #B6B5B8",
"$@	c #A09E9F",
"%@	c #B8B8B8",
"&@	c #97A0B2",
"*@	c #ABA9AC",
"=@	c #DEDEE1",
"-@	c #CFCED4",
";@	c #A5A4A9",
">@	c #909095",
",@	c #D5D4DA",
"'@	c #E2E1E6",
")@	c #BBB9BA",
"!@	c #A3A3A3",
"~@	c #A7A6A7",
"{@	c #858489",
"]@	c #B9B8BE",
"^@	c #D2D1D6",
"/@	c #D6D6D7",
"(@	c #C4C2C3",
"_@	c #AAA9A9",
":@	c #A5A5A5",
"<@	c #D4D3D9",
"[@	c #A09FA4",
"}@	c #7B7A7F",
"|@	c #A1A0A5",
"1@	c #CECDD2",
"2@	c #C4C3C6",
"3@	c #A8A8A9",
"4@	c #A0A0A0",
"5@	c #CAC9CB",
"6@	c #E2E1E4",
"7@	c #7C7C80",
"8@	c #A9A8AE",
"9@	c #C0BFC4",
"0@	c #DCDCDF",
"a@	c #858586",
"b@	c #98979C",
"c@	c #B3B2B7",
"d@	c #BBBABC",
"e@	c #DFDEE2",
"f@	c #D7D6DB",
"g@	c #9F9EA3",
"h@	c #C2C1C7",
"i@	c #BBBABF",
"j@	c #CDCCCF",
"k@	c #DAD9DD",
"l@	c #D7D6DA",
"m@	c #A3A3A7",
"n@	c #C1C1C5",
"o@	c #ADADB0",
"p@	c #C7C6C8",
"q@	c #AFAEB3",
"r@	c #A8A8AB",
"s@	c #9C9C9E",
"t@	c #C9C9CA",
"u@	c #D8D8D9",
"v@	c #B1B1B2",
"w@	c #959499",
"x@	c #9D9D9F",
"y@	c #ACACAF",
"z@	c #E0DEE1",
"A@	c #A9A9AB",
"B@	c #A3A2A6",
"C@	c #C9C9CC",
"D@	c #CFCED0",
"E@	c #ACABB0",
"F@	c #CACACB",
"G@	c #E1E0E3",
"H@	c #787879",
"I@	c #C4C4C7",
"J@	c #A7A6A9",
"K@	c #DCDBDD",
"L@	c #BDBCBF",
"M@	c #B4B3B7",
"N@	c #D3D2D6",
"O@	c #D0CFD2",
"P@	c #B1AFB2",
"Q@	c #E1E0E2",
"R@	c #A5A5A6",
"S@	c #E2E1E3",
"T@	c #C8C5C9",
"U@	c #E2E1E2",
"V@	c #D3D3D3",
"W@	c #BBBBBB",
"X@	c #C0C0C1",
"Y@	c #979799",
"Z@	c #868688",
"`@	c #878789",
" #	c #A2A2A4",
".#	c #BDBDBE",
"+#	c #929294",
"@#	c #8A8A8C",
"##	c #979798",
"$#	c #959597",
"%#	c #919192",
"                                                                                        ",
"                                  . + @ #                                               ",
"                                $ % & * = - - - - + + +                                 ",
"                          ; > , ' ) ! ~ { ] ^ { ~ ] / + ( ( ( (                         ",
"                    _ : < [ } | 1 ^ 2 3 4 4 5 6 7 8 9 0 a b c d -                       ",
"                e f g h i j k l m n o 3 8 p ! q 5 r s t u h v t w                       ",
"                  x y z A B C D E F G H I J K 8 L M u u N B O P Q R                     ",
"                S S @ T q U 8 V D W X Y Z ` `  ...+.3 ~ ~ { @.@.#.R $.                  ",
"            S S %.&.*.2 @.K =.-.;...>.Y ,.;.'.Z  . .J M ).!.C C ~.$.- -                 ",
"          {.].^./.(._.^ :.& <.[.}.D ` |.1.2.3.,...>.Y 4.o ~.4 q 8 5.$.$.^.              ",
"          U 2 6.7.5 p ) 6.8.6.9.0.a.}.b.c.1.d.d.e.V f.g.8.r q 6 4 h.~ 8 ^.              ",
"        i.j.2 <.k.` X e.o #.#.l.m.n }.a.n.o.p.}.q.p.p.;.f.* q r.q s.* 8 8.t.            ",
"        u.5 { 2 2 v...Z w.x.D ) y.(.z.l A.B.~.C.B.D.'.E.W V f.F.! { h.{ 8.G.H.          ",
"        I.3 & o ^ J.d.;.'.q.E.K.{ $.w L.M.% / N.y.^ F O.P.|.Z Q.r ~.s.! j.R.[           ",
"        S.2 s.7.^ ^ T.o.o.U.x.;.V.N.          W.1 = ].X.2.W >. .Y.5 r ! U U &.          ",
"        Z.#.<.8.* ~.`.c.E 1.F '.) %              +.+++@+@+}.f. .>.! & h.5 ! &.          ",
"          k.{ 8 U 6 ,.#+x.'.e.Z T.$+              S x C.X.n.a.e.%+~ s.[.8 &+*+          ",
"          % 6.h.3 ! =+b.a.E F d.-+                ;+>+#.y.,+'+)+h.* ~ s.4 =+!+          ",
"          M.% ~+o 3 C.{+]+#+b.c.^+                /+(+_+x y.:+(._+s.& & U <+[+          ",
"          }+/.# (.#.|+@+X.d.e.D >+                L.R _.) [.(.R % ^ 2 ~.6 ! 1+          ",
"          9.>+(+^.l.2+;...` Z Y #.                %.N.@ ) p p x l.^ #.s.~.k.3+          ",
"        4+(.y._.].7.E.V Z V V f.5+6+(+6+7+  (.s._.s.x $.) r r s.h.5.^ [.2 R 8+          ",
"          l.[.[.k.#.p.e.;.,.f.9+0+a+! p k.[.~ 5 3 & 5.b+(.k.{ * p k.].] ] {.            ",
"            [.#.:.{ d.q.O.F '.c+c+d+e+f+|.,.K V ,.g+q.h+E x.D V.3 2 = % i+              ",
"              ] [.k.2.j+1.q.k+l+m+n+o+o+e+d.3.W d.e.3.n.O.o.j+p+:.<._.}+                ",
"                ] ] q+}.d.e.f...r+n+o+s+t+u+f.D 2.3.F a.b.b.1.b.v+h.[.                  ",
"              # ] ].C.e.p.;.p.D w+r+o+x+y+z+Z 3.U.q+A+#+o.x.O.2.w.r _.                  ",
"              &.5.3 B+V p.x.2+F f+C+D+y+E+q.P.}.q.O.A+X.O.E.p.x.4.* r                   ",
"              # ^ r F+'.}.}.o.#.3 v.G+H+X.j+j+}.P.q.@+U.O.'.'.d.I+r 8 @                 ",
"              {._.5.J+P.d.E.P.& * * #.x K+#+q+}.P.}.,+q+x.P.x.F x.h.* ! L+              ",
"            {.m.b+_.D.W ,.` p.;.~.3 #._+M+@+U.o.2.N+O+q+'.;.E.'.w.~.p 8 4 P+            ",
"        Q+] 7.= = _+R+f.W ..'.3.V.{ #.<.8.S+O.p.F #+T+n.,... ...e.~.4 5 5 V.U+          ",
"      V+W+s.3 & ] % X+j+}.;.n.'+x @ o 6./ Y+X.f.p.Z+Z+`+j+W Y ..'.k.8.{ !  @.@+@        ",
"    @@_.G u C 3 _.% #@n.q+#+h+$@%@&@          c.'+*@c.O+#+d.V Z Q.[.o k.* =@-@;@        ",
"    >@,@'@p ~.:.= / #@j+2.X.b.)@!@                ~@#+b.E F V f.,.7.o <.~ &+.@          ",
"    {@]@^@{ /@8.~+(+U.'.d.a.O.(@_@                :@#+|.D a.E.,.Z o _.#.r =.<@[@        ",
"    }@|@1@~ &+{ _.$.2@Y Z F E }.3@                  4@3.e.n.2.o.5@_._+h.p 6@i 1@        ",
"    7@8@9@{ 0@~.h.[.R+` X f.E.1.                    a@,+b.X.x.e.]+{.N.5.&  @v _         ",
"      b@c@5.L & 6.2 V.e.Y ,.;.,+                    1+F o.b.E.@.d@R [.3 p e@R.f@        ",
"    g@h@i@@ j@^ y.].}.e.V e.|.j+                    ^ ~ I+O.e.H ] _+& p ! k@l@m@        ",
"    +@h@n@$.o@^.9.L+p@'.|.p.f.O.                    6+) #.6.~.:.) <.~ * ~ j.:.          ",
"      a q@{.r@m.N.~+2@P.W f.Z p.w                   s@t@<.o 8.[.^ { r 3 u@:.v@          ",
"        w@x@y@o o 7.a.E.Y X Y z@* =               A@(.<.8.#.].= ) :.r { :.^ ++          ",
"        B@@ C@{ [._.D@V ..Z ` ` -.& k.          ++~+$.[.s.#.~+N.6.k.{ r 2               ",
"        E@) F@[.].) S+D E.W f.f.X G@r :.      # ) :.#.s.s.k.L+% o _+s.p ].              ",
"      H@s@_.I@y.].@ E x.f...|.E.;.X I W w.#+J@1.I+K.B+K@R+|+`.L@x [.3 { x@              ",
"          M@N@:.6.[.O@,.Z z@Z p.D Z ` Y ` d.,+P@2.'.z@ .e.q.3.=+{ 3 ~ * :+              ",
"          ;+_+h.h.~ Q@Z W z@V p.x.|.f.Y ` D #+O+@+o.W  .Z W p.E.V 3 h.j.R@              ",
"            M.k.:.s.g+f.|.f.E.p.P.,.f.X ` e.o.X.U.2.d.p.p.W ,.|.|.h.<.r /+              ",
"            s@6.x [.|+5@;.p.E.,.D x.;. .Y W 3.3.O.2.o.1.2.d.` S@;.6.6.7.                ",
"            -+:.) #.b+~+d.E.W W d.T@p.Y ` 3.b.F F q.F p.e.'...U@V@W@X@m.                ",
"            Y@9.] (.(+L+^ I ! -.6.y.].& Q.|+].A.o ~ h.s.h.h.p f - -                     ",
"                ++Z@`@ #2 * 5 ! k.N.o <.s.5.].N.k.s.* ) _+2 8..#                        ",
"                      (+o ~ ! :.^ 2 ^ 2 & #._+m.>+].2 ~+/ _.L+-                         ",
"                      M./ M.i+(+~+8.<.<.~ 5.++x@+#@#m.L.x@A@}+                          ",
"                        '     .+(+].@ $.N.t.@#@#@#                                      ",
"                                - ##$#%#                                                ",
"                                                                                        "};
