/* XPM */
static char * 9_xpm[] = {
"44 58 691 2",
"  	c #009AFE",
". 	c #9A999F",
"+ 	c #98979C",
"@ 	c #BCBBC1",
"# 	c #A2A1A6",
"$ 	c #C3C2C8",
"% 	c #DCDBE1",
"& 	c #D1D0D6",
"* 	c #A1A0A6",
"= 	c #919095",
"- 	c #8F8E93",
"; 	c #A3A2A9",
"> 	c #88878C",
", 	c #949398",
"' 	c #A09FA5",
") 	c #D7D6DC",
"! 	c #DBDAE0",
"~ 	c #E3E2E8",
"{ 	c #CBCAD0",
"] 	c #BFBEC4",
"^ 	c #CDCCD2",
"/ 	c #D2D1D7",
"( 	c #B2B1B8",
"_ 	c #ADACB2",
": 	c #929196",
"< 	c #D1D0D7",
"[ 	c #CCCBD2",
"} 	c #C0BFC4",
"| 	c #B2B1B6",
"1 	c #B2B1B5",
"2 	c #ACABB0",
"3 	c #A7A6AB",
"4 	c #AFAEB4",
"5 	c #CCCBD1",
"6 	c #CFCED4",
"7 	c #DFDEE4",
"8 	c #E1E0E6",
"9 	c #E2E1E7",
"0 	c #E4E3E9",
"a 	c #DEDDE3",
"b 	c #C4C3C9",
"c 	c #98979D",
"d 	c #A3A2A7",
"e 	c #8A898E",
"f 	c #7A7980",
"g 	c #86858B",
"h 	c #D7D6DD",
"i 	c #E2E1E8",
"j 	c #DDDCE1",
"k 	c #D7D6DB",
"l 	c #CBCACF",
"m 	c #C7C6CB",
"n 	c #BEBDC2",
"o 	c #BAB9BF",
"p 	c #C5C4CA",
"q 	c #E0DFE5",
"r 	c #DAD9DF",
"s 	c #D0CFD5",
"t 	c #D0CFD6",
"u 	c #CFCED5",
"v 	c #B0AFB6",
"w 	c #807F85",
"x 	c #85848B",
"y 	c #CBCAD1",
"z 	c #D7D5DB",
"A 	c #E3E2E7",
"B 	c #E0DFE4",
"C 	c #E2E0E5",
"D 	c #D9D8DD",
"E 	c #CAC9CE",
"F 	c #D1D0D5",
"G 	c #D4D3D9",
"H 	c #D8D7DC",
"I 	c #D9D8DE",
"J 	c #DAD9DE",
"K 	c #DDDCE2",
"L 	c #D3D2D8",
"M 	c #DCDBE0",
"N 	c #E2E1E9",
"O 	c #DEDDE5",
"P 	c #DFDEE6",
"Q 	c #D7D4DC",
"R 	c #838086",
"S 	c #99989E",
"T 	c #C1C0C6",
"U 	c #C9C7CD",
"V 	c #DDD9DF",
"W 	c #E1DEE3",
"X 	c #E1DDE3",
"Y 	c #DFDBE1",
"Z 	c #DAD6DC",
"` 	c #D6D2D8",
" .	c #E0DCE2",
"..	c #DEDBE0",
"+.	c #DCD9DE",
"@.	c #E0DDE2",
"#.	c #E3DFE5",
"$.	c #DBD7DD",
"%.	c #D8D4DA",
"&.	c #DDD9E0",
"*.	c #DAD6DD",
"=.	c #DEDAE2",
"-.	c #D1CDD4",
";.	c #848086",
">.	c #A3A2A8",
",.	c #949399",
"'.	c #B4B3B9",
").	c #CECDD3",
"!.	c #BDBCC2",
"~.	c #B9B6BC",
"{.	c #D0CBD1",
"].	c #DFD9DF",
"^.	c #E0DAE0",
"/.	c #DDD7DE",
"(.	c #D9D3DA",
"_.	c #D7D1D7",
":.	c #E2DCE2",
"<.	c #E6E0E6",
"[.	c #E2DDE3",
"}.	c #D6D0D7",
"|.	c #D4CED5",
"1.	c #D8D2D8",
"2.	c #E1DCE2",
"3.	c #E3DEE4",
"4.	c #D3CED5",
"5.	c #DBD5DD",
"6.	c #E0DBE2",
"7.	c #D6D1D8",
"8.	c #A6A2A8",
"9.	c #C8C7CD",
"0.	c #D0D0D5",
"a.	c #C6C5CA",
"b.	c #C9C4CA",
"c.	c #D5D0D6",
"d.	c #D7D2D8",
"e.	c #D1CCD2",
"f.	c #CBC6CC",
"g.	c #DAD5DB",
"h.	c #DED9DF",
"i.	c #D3CED4",
"j.	c #C2BDC3",
"k.	c #CEC9CF",
"l.	c #D2CDD3",
"m.	c #DCD7DD",
"n.	c #E6E1E7",
"o.	c #E5E0E6",
"p.	c #E4DFE6",
"q.	c #DFDBE2",
"r.	c #99989D",
"s.	c #D6D5DA",
"t.	c #C7C6CC",
"u.	c #DDDDE2",
"v.	c #D4D3D8",
"w.	c #C8C3C9",
"x.	c #C7C2C8",
"y.	c #B4AFB5",
"z.	c #CCC7CD",
"A.	c #C4BFC5",
"B.	c #B8B3B9",
"C.	c #D9D4DA",
"D.	c #D8D3D9",
"E.	c #D4CFD5",
"F.	c #D9D4DB",
"G.	c #E2DDE4",
"H.	c #E9E4EB",
"I.	c #E8E4EB",
"J.	c #DDD8DF",
"K.	c #B7B3BA",
"L.	c #B8B7BC",
"M.	c #95949A",
"N.	c #908F94",
"O.	c #E0DDE3",
"P.	c #C8C2C9",
"Q.	c #B3AEB4",
"R.	c #B0ADB2",
"S.	c #C6C2C7",
"T.	c #C7C2C7",
"U.	c #C3BEC4",
"V.	c #BCB7BD",
"W.	c #D0CCD1",
"X.	c #D2CED2",
"Y.	c #CCC8CE",
"Z.	c #D0CCD2",
"`.	c #D3CFD5",
" +	c #DAD7DC",
".+	c #E7E2E9",
"++	c #E6E2E9",
"@+	c #DFDAE1",
"#+	c #CBC7D0",
"$+	c #B8B7BE",
"%+	c #87878A",
"&+	c #CDCCD1",
"*+	c #E1E0E5",
"=+	c #E0DEE3",
"-+	c #CECDD2",
";+	c #D7D5DA",
">+	c #C0BEC3",
",+	c #C1BEC5",
"'+	c #BCB8C0",
")+	c #CCC8D0",
"!+	c #CFCDD3",
"~+	c #D8D2D9",
"{+	c #D2CAD1",
"]+	c #D1C8D0",
"^+	c #D6CED5",
"/+	c #DDD8DE",
"(+	c #DEDAE0",
"_+	c #DAD5DC",
":+	c #D3D0D7",
"<+	c #C5C4CB",
"[+	c #B3B2B9",
"}+	c #C3C2CA",
"|+	c #AEADB3",
"1+	c #ACACB0",
"2+	c #C7C7CD",
"3+	c #D7D5DC",
"4+	c #D8D4D9",
"5+	c #C3BFC4",
"6+	c #C7C3C8",
"7+	c #DDD7DD",
"8+	c #D2D0D5",
"9+	c #ADACB3",
"0+	c #A1A0A7",
"a+	c #908F96",
"b+	c #B3B2B8",
"c+	c #BDB7BE",
"d+	c #CBC2CA",
"e+	c #CBC3CA",
"f+	c #D0C7CF",
"g+	c #D0CAD0",
"h+	c #E0DCE1",
"i+	c #D8D5DB",
"j+	c #ACACB2",
"k+	c #C6C1C7",
"l+	c #CAC5CB",
"m+	c #BFBAC0",
"n+	c #C0BBC1",
"o+	c #D4D0D5",
"p+	c #CDCBD0",
"q+	c #9C9CA1",
"r+	c #9D979D",
"s+	c #B0AAB0",
"t+	c #C4BDC4",
"u+	c #BFB8BF",
"v+	c #C5BFC6",
"w+	c #CDC8CE",
"x+	c #DFDAE0",
"y+	c #E4E0E5",
"z+	c #CAC9CF",
"A+	c #9E9DA3",
"B+	c #CECDD4",
"C+	c #D5D1D7",
"D+	c #C5C0C6",
"E+	c #CDC9CF",
"F+	c #CFCAD0",
"G+	c #C7C5C9",
"H+	c #99989B",
"I+	c #808EAE",
"J+	c #9F9BA1",
"K+	c #B7B4B9",
"L+	c #BFBBC1",
"M+	c #C1BCC2",
"N+	c #E8E4EA",
"O+	c #DEDBE2",
"P+	c #D8D7DD",
"Q+	c #D4D0D6",
"R+	c #CCC7CE",
"S+	c #A2A0A3",
"T+	c #B1B0B5",
"U+	c #C5C5C9",
"V+	c #D4D2D7",
"W+	c #DCD9DF",
"X+	c #C9C8CE",
"Y+	c #AEADB2",
"Z+	c #CACAD1",
"`+	c #C9C4CB",
" @	c #D6D1D7",
".@	c #CCC8CD",
"+@	c #ABA7AC",
"@@	c #B9B4BA",
"#@	c #B7B2B8",
"$@	c #C9C5CB",
"%@	c #DEDBE1",
"&@	c #E7E6EC",
"*@	c #A5A4AA",
"=@	c #BFBFC6",
"-@	c #BEBAC0",
";@	c #B5B0B6",
">@	c #BAB5BB",
",@	c #9F9AA0",
"'@	c #A09FA4",
")@	c #ADADB2",
"!@	c #C2C2C7",
"~@	c #B6B1B7",
"{@	c #B2ADB3",
"]@	c #C5C1C7",
"^@	c #D7D4DA",
"/@	c #D5D4D9",
"(@	c #E2E1E6",
"_@	c #C4C3C8",
":@	c #8B8A90",
"<@	c #AEAEB5",
"[@	c #B2AEB4",
"}@	c #BEB9BF",
"|@	c #D5D1D6",
"1@	c #999499",
"2@	c #A3A3A8",
"3@	c #C7C7CC",
"4@	c #C3BEC5",
"5@	c #BBB6BC",
"6@	c #B0ACB2",
"7@	c #C8C5CA",
"8@	c #D0CFD4",
"9@	c #DEDDE2",
"0@	c #DEDEE1",
"a@	c #CFCED3",
"b@	c #9D9CA2",
"c@	c #C5C5CC",
"d@	c #C8C3CA",
"e@	c #ABA6AC",
"f@	c #B1ACB2",
"g@	c #E1DDE2",
"h@	c #AFAAB0",
"i@	c #828187",
"j@	c #BBBAC1",
"k@	c #CCC9CE",
"l@	c #DCDCE0",
"m@	c #C5C4C9",
"n@	c #959499",
"o@	c #D6D5DC",
"p@	c #DBD6DC",
"q@	c #E4DFE5",
"r@	c #DEDADF",
"s@	c #B9B8BF",
"t@	c #D2CED4",
"u@	c #C7C4C9",
"v@	c #C3C2C7",
"w@	c #D3D2D6",
"x@	c #B3B2B7",
"y@	c #D1CDD3",
"z@	c #D9D5DA",
"A@	c #95949B",
"B@	c #ADABB2",
"C@	c #E2DEE3",
"D@	c #C4C1C6",
"E@	c #B6B5BA",
"F@	c #BDBCC1",
"G@	c #D2D1D6",
"H@	c #CDCCD0",
"I@	c #D4D3DA",
"J@	c #CFCBD1",
"K@	c #989399",
"L@	c #96959A",
"M@	c #A4A3A9",
"N@	c #B0ACB3",
"O@	c #C6C3C8",
"P@	c #B4B2B7",
"Q@	c #BBBABF",
"R@	c #C1BFC4",
"S@	c #A7A5AA",
"T@	c #7A797E",
"U@	c #BEBDC3",
"V@	c #D3D3DA",
"W@	c #D7D3D9",
"X@	c #DCD8DE",
"Y@	c #BDB8BE",
"Z@	c #C0BDC2",
"`@	c #CBC7CD",
" #	c #D5D1D8",
".#	c #D9D5DC",
"+#	c #DCD7DE",
"@#	c #C9C6CC",
"##	c #828185",
"$#	c #C6C5CB",
"%#	c #D8D8DF",
"&#	c #E3DEE5",
"*#	c #E0DBE1",
"=#	c #E3DEE3",
"-#	c #E2DDE2",
";#	c #C3C1C6",
">#	c #8F8A90",
",#	c #B9B3B9",
"'#	c #BDB9BF",
")#	c #CAC6CB",
"!#	c #D5CFD6",
"~#	c #D7D2D9",
"{#	c #DDD7DF",
"]#	c #E2DCE4",
"^#	c #D5D0D7",
"/#	c #A8A7AB",
"(#	c #9E9DA2",
"_#	c #D8D7DE",
":#	c #E4DEE4",
"<#	c #D6D3D9",
"[#	c #AAA7AC",
"}#	c #89848A",
"|#	c #DED9E0",
"1#	c #E4E0E7",
"2#	c #BEBCC1",
"3#	c #9B9A9F",
"4#	c #B5B4BA",
"5#	c #EAE5EB",
"6#	c #E5DFE6",
"7#	c #DED8DF",
"8#	c #C9C3CA",
"9#	c #BAB9BE",
"0#	c #9E9DA5",
"a#	c #C4C1C7",
"b#	c #E3DFE4",
"c#	c #E9E3EA",
"d#	c #E9E1E8",
"e#	c #E7DFE6",
"f#	c #DDD4DC",
"g#	c #D5CDD4",
"h#	c #D3CCD3",
"i#	c #D6D0D6",
"j#	c #CFCAD1",
"k#	c #D4CFD6",
"l#	c #D8D3DA",
"m#	c #ADABB0",
"n#	c #BFBDC1",
"o#	c #C6C2C8",
"p#	c #C8C4CA",
"q#	c #CFCCD1",
"r#	c #E2DBE2",
"s#	c #E5DBE3",
"t#	c #E4DAE2",
"u#	c #D7D0D7",
"v#	c #CDC6CD",
"w#	c #D2CCD3",
"x#	c #DCD8DF",
"y#	c #C6C4CA",
"z#	c #89888D",
"A#	c #B6B5BB",
"B#	c #D6D3DA",
"C#	c #E1DAE1",
"D#	c #E0D9E0",
"E#	c #DFD8DF",
"F#	c #D5CED5",
"G#	c #C6BFC6",
"H#	c #CCC5CC",
"I#	c #CAC3CA",
"J#	c #BEB7BE",
"K#	c #B5AEB5",
"L#	c #D0C9D0",
"M#	c #DED8DE",
"N#	c #DCD4DB",
"O#	c #E2DFE5",
"P#	c #757678",
"Q#	c #8E8D93",
"R#	c #ADADB3",
"S#	c #B5B5BB",
"T#	c #C0C0C5",
"U#	c #CDCDD2",
"V#	c #D7D4DB",
"W#	c #D9D5DB",
"X#	c #DCD5DC",
"Y#	c #DBD4DB",
"Z#	c #DED7DE",
"`#	c #DAD3DA",
" $	c #CFC9CF",
".$	c #C7C0C7",
"+$	c #BDB6BD",
"@$	c #B4ADB4",
"#$	c #C4BEC5",
"$$	c #C0BCC2",
"%$	c #D4CCD4",
"&$	c #DBD1D9",
"*$	c #DAD4DA",
"=$	c #DDDCE0",
"-$	c #D2D1D5",
";$	c #919192",
">$	c #B7B6BC",
",$	c #BCBCC2",
"'$	c #C6C4C9",
")$	c #D2CBD2",
"!$	c #CFC8CF",
"~$	c #D4CDD4",
"{$	c #DDD6DD",
"]$	c #E3DCE3",
"^$	c #D9D2D9",
"/$	c #D1CAD1",
"($	c #B6AFB6",
"_$	c #C6BEC6",
":$	c #CEC5CC",
"<$	c #D6CFD6",
"[$	c #DFDDE2",
"}$	c #DAD9DD",
"|$	c #AAAAAC",
"1$	c #9F9EA4",
"2$	c #C1C1C7",
"3$	c #B4B3B8",
"4$	c #C2BBC2",
"5$	c #C8C0C7",
"6$	c #C9C0C8",
"7$	c #DDDBE0",
"8$	c #9D9D9E",
"9$	c #7284A6",
"0$	c #C1BFC5",
"a$	c #C8C1C8",
"b$	c #CFC7CF",
"c$	c #CDC5CC",
"d$	c #CEC7CE",
"e$	c #C6C0C7",
"f$	c #BFB9BF",
"g$	c #DBD5DB",
"h$	c #C5BDC5",
"i$	c #C9C0C7",
"j$	c #D2CCD2",
"k$	c #DAD8DD",
"l$	c #B7B6BB",
"m$	c #ABAAAC",
"n$	c #C3C3C6",
"o$	c #C8C6CA",
"p$	c #BCB9BE",
"q$	c #C7C4CA",
"r$	c #D9D6DC",
"s$	c #CECBD1",
"t$	c #CBC8CD",
"u$	c #C3C0C6",
"v$	c #CDCACF",
"w$	c #CEC8CF",
"x$	c #C7C1C7",
"y$	c #B6B0B7",
"z$	c #DAD4DB",
"A$	c #C2BAC2",
"B$	c #D8D6DC",
"C$	c #9C9BA0",
"D$	c #9E9EA0",
"E$	c #C4C3C7",
"F$	c #BFBEC3",
"G$	c #BCBCC1",
"H$	c #CDCED2",
"I$	c #D2D0D6",
"J$	c #CDC9CE",
"K$	c #A09BA1",
"L$	c #CCC6CD",
"M$	c #CBC2CB",
"N$	c #DAD3DB",
"O$	c #AFAEB3",
"P$	c #B2B2B6",
"Q$	c #98989C",
"R$	c #AAA9AE",
"S$	c #CCCBD0",
"T$	c #9E999F",
"U$	c #AEA9AF",
"V$	c #ADA5AD",
"W$	c #C6BDC5",
"X$	c #D4CDD5",
"Y$	c #D4D1D8",
"Z$	c #A6A5AB",
"`$	c #2094F0",
" %	c #858489",
".%	c #A9A8AD",
"+%	c #A2A2A6",
"@%	c #908C91",
"#%	c #C3BBC3",
"$%	c #D4CBD3",
"%%	c #E0D9E1",
"&%	c #DFDCE3",
"*%	c #DDDBE1",
"=%	c #A09FA6",
"-%	c #A2A1A7",
";%	c #7C7B80",
">%	c #818085",
",%	c #D3CDD4",
"'%	c #D1C9D1",
")%	c #E0D7E0",
"!%	c #E7E1E8",
"~%	c #E1DEE5",
"{%	c #A1A0A8",
"]%	c #BCBBC3",
"^%	c #A4A3A8",
"/%	c #A19DA2",
"(%	c #D1CBD1",
"_%	c #C8C4C9",
":%	c #E3D9E3",
"<%	c #E2DCE3",
"[%	c #B3B1B8",
"}%	c #9E9BA2",
"|%	c #C5C2C9",
"1%	c #D1CDD6",
"2%	c #D6D3D8",
"3%	c #D5D2D8",
"4%	c #ABA9AF",
"5%	c #CAC5CA",
"6%	c #DDDAE2",
"7%	c #D0D1D5",
"8%	c #9A959C",
"9%	c #C9C3CB",
"0%	c #E3DDE5",
"a%	c #E0D9E2",
"b%	c #DED7E0",
"c%	c #DFD9E0",
"d%	c #AEAEB3",
"e%	c #B4B5BA",
"f%	c #C5C5CB",
"g%	c #D0CBD0",
"h%	c #D9D8DF",
"i%	c #98989D",
"j%	c #D3CFD6",
"k%	c #E1DCE3",
"l%	c #DCD6DD",
"m%	c #C7C5CA",
"n%	c #C3BFC5",
"o%	c #D1CCD3",
"p%	c #D0CBD2",
"q%	c #A7A1A7",
"r%	c #D0D0D6",
"s%	c #BBB7BD",
"t%	c #CECAD2",
"u%	c #848389",
"v%	c #CAC6CD",
"w%	c #C6C1C8",
"x%	c #C5C0C7",
"y%	c #D1CED3",
"z%	c #D2C8D0",
"A%	c #AFADB3",
"B%	c #C0BCC3",
"C%	c #D9D6DE",
"D%	c #D7D6DE",
"E%	c #C0BDC3",
"F%	c #CFCBD2",
"G%	c #D2CED5",
"H%	c #DDD3DB",
"I%	c #CCC6CC",
"J%	c #BBB8BD",
"K%	c #DEDAE1",
"L%	c #C1BFC6",
"M%	c #D5D4DA",
"N%	c #E4E1E6",
"O%	c #B7B3B9",
"P%	c #C2BFC4",
"Q%	c #E3E0E5",
"R%	c #DDD9DE",
"S%	c #D1CED2",
"T%	c #B9B9BA",
"U%	c #CFCFD5",
"V%	c #D3D3D8",
"W%	c #D6D4D9",
"X%	c #C2BCC3",
"Y%	c #C3BDC3",
"Z%	c #CBC5CB",
"`%	c #B7B4B8",
" &	c #9F9F9F",
".&	c #ACABB1",
"+&	c #C9C9CE",
"@&	c #B5B4B9",
"#&	c #D1CDD2",
"$&	c #A8A7AC",
"%&	c #BDB9BE",
"&&	c #D3CED3",
"*&	c #E0DBE0",
"=&	c #CCC7CC",
"-&	c #D5D0D5",
";&	c #DED9DE",
">&	c #A9A4AA",
",&	c #1E98F8",
"'&	c #87868B",
")&	c #B0AEB5",
"!&	c #D8D4DC",
"~&	c #DFDBE3",
"{&	c #D9D6DB",
"]&	c #CECAD0",
"^&	c #BDB9C1",
"/&	c #D2CED6",
"(&	c #E0DCE3",
"_&	c #E1DEE4",
":&	c #C5C1C8",
"<&	c #D6D3D7",
"[&	c #B2AFB3",
"}&	c #D4D3DB",
"|&	c #C8C7CE",
"1&	c #B9B8BD",
"2&	c #A5A4AB",
"3&	c #C1C1C1",
"4&	c #ABABAB",
"5&	c #ABABB0",
"6&	c #96969C",
"7&	c #B7B7BC",
"8&	c #BEBEC3",
"9&	c #CECED2",
"0&	c #CCCCD0",
"a&	c #D2D2D6",
"b&	c #BABABF",
"c&	c #9A999E",
"d&	c #919196",
"e&	c #A9A9AE",
"f&	c #96969A",
"g&	c #A1A2A2",
"h&	c #BCBBC0",
"                                                                                        ",
"                                    . + @ #                                             ",
"                                    $ % & *   = -                                       ",
"                    ;       > > , ' ) ! ~ { ] ^ ) / ( _                                 ",
"                  : < [ } | 1 2 3 4 5 6 % 7 7 8 9 0 a b # c d | e                       ",
"                f g h i j k l m n o p 5 a 8 q q 9 r s ) % t u ! v                       ",
"              f w x y z A B C D E } F G H I J K A L s M r N O P Q R                     ",
"              w S | T U V W X Y Z ` V W  ...+.@.#.$.%. . .&.*.=.-.;.                    ",
"            >.,.'.).!.~.{.].^./.(._.:.<.[.}.|.1.2.3.2.2.1.4.5.6.7.8.                    ",
"          & q ).9.E 0.a.b.c.d.e.b.f.g.h.i.j.k.l.m.n.o.h.e.4.6.p.q.4.                    ",
"        r.s.a G t.{ u.v.w.e.c.x.y.y.z.z.A.B.k.e.e.C.h.D.E.F.G.H.I.J.K.L.M.              ",
"      N.l q H L ^ s 7 O.i.e.l.P.Q.R.S.T.U.V.W.X.Y.Z.`.d. +&.G..+++@+#+[ $+              ",
"    %+&+l *+=+s.&+-+;+Y C.e.E.e.x.>+,+'+)+'+!+~+{+]+]+^+].g.J./+(+_+:+<+[+}+|+          ",
"      1+2+3+@+4+5+6+{.i.E.i.{.7+D.8+9+0+a+( b+c+d+e+f+e+g+c./+h.h+h.i+& % 9 /           ",
"        j+y 7.c.k+b.l+m+f.f.n+o+i.p+q+          r+s+t+u+v+w+x+o.y+[.q.a K 8 z+          ",
"        A+B+C+i.D.x+/+D+m+k+l+E+F+G+H+            I+J+K+L+M+d.3.N+3.O+G P+q ).          ",
"        . <+Q+C.o.3.o.l.l+l.l.`.R+S+                T+U+V+i.m+k+(+h.W+X+^ q /           ",
"        Y+Z+`+z. @C.3.l.M+A.x..@+@                  | n E f.@@#@$@c.%@s.P+&@s A+        ",
"        *@=@-@#@j.k.d.b.;@>@x.S.,@                  '@)@!@`.~@{@]@b.^@/@J (@j _@        ",
"        :@<@[@y.V.j.E.D+}@w+d.|@1@                    2@3@4@b.5@6@B.7@8@9@j 0@a@        ",
"        b@c@d@@@e@f@w. @/+2.2.g@h@                    i@j@l.3.D.L+M+k@-+s.k l@m@        ",
"      n@s o@E+j.b.n+l+p@p@x+q@r@#@                    c s@t@g.x+4+d.u@v@E s.w@x@        ",
"      T+r o@y@f.k.w+f.w+D.h.h.z@>@                    A@B@4@l.p@C@p@D@E@F@G@H@Y+        ",
"      r.m I@Q+i.e.E.E.z.w.z.i.J@K@                  L@M@N@x.i.e.D.D.O@P@Q@a@R@S@        ",
"      T@U@V@W@g.l.l+w.k+x.k.g.X@Y@                  K+Z@L+w.k.l+$@k.z.`@ #.#+#@#        ",
"      ##$#%#&#*#c.{.b.U.z.x+*#=#-#;#              >#,#U.m+w.z.w.'#)#!#~#{#5.]#^#/#      ",
"      (#p _#.#h.d.l.i.i.d.x+q@:#*#<#[#          }#>@}@Y@D+F+i.k.x.i.~#~#~#|#1#q@2#      ",
"      3#4#t Q+d.e.D.x+x+*#C./+W@/+5#6#7#8#    ~@f. @k+Y@x.F+c.e.k.{.^#7.7.+#1#J.9#      ",
"        w 0#a#z.f.E.m.C.d.l.d.%.b#c#d#e#f#g#h#i#i. @w+B.k+e.d.l.{.k.j#i.k#l#&.$.m#      ",
"          N.n#o#p#$@q#e.i.D.x+x+3.r#s#t#t#u#v#v#i.D.w.;@w+l. @i.l+k+Y@w#|#+#x#y#n@      ",
"            z#_ A#] z+B#*#2.[.D.h.C#r#D#E#F#G#v#H#I#J#K#L#M#m.m.J@o#H#N#7#O#=+x@P#      ",
"            Q#R#S#T#U#V#W#*#[.{. @X#Y#Z#D#`# $F#u#.$+$@$#$].2.q@d.$$%$&$*$C =$-$;$      ",
"              b@z+>$,$'$n+k.c.@@k+)$!$`#D#D#~${$]$^$/$($h@w.C.2.D.n+_$:$<$[$}$J |$      ",
"                1$o 2$3$M+M+k+~@w./$h#H#F#`#v#{$]$D#<$4$m+D+C.x+d.f.5$6$h#7$=$F 8$      ",
"                9$M@S#0$p#l+w.w.i.g.L#a$!$b$c$<$D#r#u#d$e$f$l.g.g$E.h$i$j$k$J l$        ",
"                    m$n$o$O@p$q$Y.r$s$s$t$u$v$k@(./.w$x$y$~@A.c.z$D.A$5$~$W+B$C$        ",
"                      D$E$F$G$v@v@F@F$l 8@H$I$J${.M+K$K@{@U.n+l+L$x.u+M$N$x#r U@        ",
"                            : O$P$Q$N.R$9#S$G@Z.m+    T$U.n+k+D.c.U$V$W$X$Y$s Z$        ",
"                                `$  `$   %.%+%      @%F+l.l+b.g._.@@#%$%%%&%*%T         ",
"                  =%-%;%>%                          Q.c.x+f.b.g.,%M+'%)%!%~%)           ",
"                {%]%[ E a.E ^%l$#                   /%b.F+z.l+D.(%_%`#:%<%x#[%          ",
"              }%|%1%&%O+@.=+2%3%>+                  4%v@^@e.E.c.F+5%W@6%r 7%            ",
"            8%9%0%a%b%c%6#<.g$/.`.m@              d%e%f%B#E.z.5@]@g%z h%G@              ",
"          i%j%F.k%~#4.g.h.x+p@l%C.m%            A+U@!.9.k c.{.;@n%e.)+O v@              ",
"          1$o%j#o%p%4.f.l.D.p@i.i.h.D.x.g+,@q%  _ $ { r%s.l.l+@@s%z.t%O Z$              ",
"          u%v%w%`+d@x%b. @m.h.y%E+z$Z#^$Y#z%#%A%!.^ r K B$t@f.A.B%l+C%D%-%              ",
"            E%~#j%F%G%X@C.x+o.m.l.D.7+D#C#H%I%J%b+9.s q &.k#w+i.g.x+K%y Q$              ",
"            r.L%I M%I N%g.p@2.m.E.d./+m.h.(.F+j.O%P%q#Q%o.D.D.c.R%*#S%T%                ",
"              )@U%U%V%W%C.D.D.C. @d.c.m.3.X@i.w.X%Y%Z%l.l.l.x+/+r@e.`% &                ",
"              .&$ $#+&a.l.C.D.d.C.E.F+h.n.*#E.e.{.l+F+f.l+x.c.q@C@@@                    ",
"              >$5 t.!@@&D+l.D.g.C.l+z.d.p@/+l+w.{.w+k.w+d. @d.[.#&                      ",
"                $&T .&@&%&&&*&m.p@=&Y@f.C.D.k+n+x.-&;&D. @C.c.D.>&                      ",
"                  ,&  '&)&!&~&O+*.o#-@v${&` ]&p$^&/&(&_&:&<&S.[&                        ",
"                        s@u }&< |&m@G@E v.s.E 1&2&[+{ / x@3&4&                          ",
"                        Z$5&i%6&7&8&9&0&a&k b&c&  d&e&[+f&g&                            ",
"                                /#$&h&x@F@x@                                            ",
"                                                                                        ",
"                                                                                        "};
